<mxfile host="app.diagrams.net" modified="2023-04-20T11:18:14.995Z" agent="Mozilla/5.0 (Macintosh; Intel Mac OS X 10_15_7) AppleWebKit/537.36 (KHTML, like Gecko) Chrome/111.0.0.0 Safari/537.36" etag="McCrmu7zqogPhJDJyCba" version="21.1.9" type="github">
  <diagram name="第 1 页" id="AN5fUWPag51Ybv-m357-">
    <mxGraphModel dx="954" dy="591" grid="1" gridSize="10" guides="1" tooltips="1" connect="1" arrows="1" fold="1" page="1" pageScale="1" pageWidth="3300" pageHeight="4681" math="0" shadow="0">
      <root>
        <mxCell id="0" />
        <mxCell id="1" parent="0" />
        <mxCell id="wPIXFzT_h8KsHpIcY9-G-3" value="" style="group" vertex="1" connectable="0" parent="1">
          <mxGeometry x="40" y="290" width="875" height="141" as="geometry" />
        </mxCell>
        <mxCell id="wPIXFzT_h8KsHpIcY9-G-1" value="" style="shape=image;verticalLabelPosition=bottom;labelBackgroundColor=default;verticalAlign=top;aspect=fixed;imageAspect=0;image=data:image/jpeg,iVBORw0KGgoAAAANSUhEUgAAAvMAAACNCAYAAAA6svVPAAAAAXNSR0IArs4c6QAAAARnQU1BAACxjwv8YQUAAAAJcEhZcwAAFiUAABYlAUlSJPAAAP+lSURBVHhe7P33dxxHti0Mvn9lfhzzzayZb6235jPvzTP33m4Zit4bUd62kdRquVbL23byIgkP0IreW3jvPQGQcAQIEt6Vt3v2jqwki2BCBEmQBMAKrs0qZGZlRkacOGefiBMR/wmJlEiJlEiJlEiJlEiJlEiJNC9TgswnUiIlUiIlUiIlUiIlUiLN05Qg84mUSImUSImUSImUSImUSPM0Jch8IiVSIiVSIiVSIiVSIiXSPE0JMp9IiZRIiZRIiZRIiZRIiTRPU4LMJ1IiLYAUDPvnMAIxBK3PkMDjIR//FvQ9Bn4P3PDbeMSuTeAa7GT+VrnyM8By9LNsA0Ed03V2mQfMuWv1Ya63j/F35nrrb/u6QFBlfv2YAa+74e842M+3n2c/w8qfdc8bYM7HHb92/a/BflbcMfMsHb+eXx2z8sWyMJ/xx2LH9S5679hvDPjON9xHn7F3vpZX87zYsw2se1//O4bY76//HUP8O8T97tpzY3myjune1vWJlEjxyU85UVv3UzamfkqWzHnK87Xr7L91neQ8dtyW7xt+F7vPtetj15nfmWssXP/u/BsdN9eYexP8OzgNrPtf/338O5j83XDfGOKeee0a3Svu+LW8xd3bXB87fr/f3z5+7br438cdv5YX/u30/vEpQeYTKZEWQDJKYo7CIjAhIhz7DCJkjnl53kPlZitJS0n5dIzw87wvBr/5222OOT3jYYWdnM7NabCu42GMUwz2NYYI24iRWusa67wMnU287d8sbNxovBMpkeaj7Ks9hw0CCLFdh8K0B+ZT7ZzXxDvMtjMb+0zgRsSnBJlPpERaAMmpoc8VWIrbTwKvnvkw/OEoAYLk3ihuHifRD4js83sgTAMVJoEnfDzviQSIINyREP/m+bh7P+ywk9O5OQ1D4lmXwYAh5zc6bvpb18lxi8GQdtvBk3xQboIeA+tc3L0XKOze/Ot/30hw4v82ZCiGXzs/9dx0x6eem+4688l8+sOqK9YN27LlgPN6OfFBL8IC61Ajc6Zueb3auerVr3cUbEcvdv/4Z9jfp3u+03Gn7/bf0323/57uu/33TL/Hfzodiz9nY7pr7DRVJuYDROYjbLfhmFz4qdeD1PHhCNuz0fsxgh8K8ZPnDG4umwQSZD6REmnBpTmr7GiQ1cMS4vcQjbU+pcwDNOzGwFN5W+esa2TkwyE3z7mo1AU3vLzGw/dzUal7eZ3jcx5S2Gm+GTv1sHtJ+CyI8DH/htxbdSz4YvDruBxBkkCLvNPokwiYkZ2HiszPkzpmPuV0W2CeCRF5wUNHXvDSkQ/wvBVqx7q8AQ9Hfd4N7HR9lGo+QfKhjpmwkRF/5DqCEdoCOiiWzbDIvIh9gsw7Iz4lyHwiJdICSHNV2cnYyHD7qJj1d4jkK0QS5g+QzPFvNxW1JxIx13iNgheR88EdEslz8b0mSdYmqNytEJv5abzuHew038rF9LDTUVNIlem5ldNHUi5YvfNErHdWsbQhyouIvOQnGHRThq6HYsWH5ixszJP3ZBvWqFvgWkgdnXTWa4Tw85iInK4JkbSH6cyFKQdhtnXrO537a2Q+QeCmg52czs19iMxrhFayIaec7Zj17onQkVfdE6FImIgYMh/W39dkIoF4xKcEmU+kRFoAaS6TeQ8VtydEsk7lPBEMYTAQQbc7iLyOqzjS0ouTF/pwnJ+n+Xm69RLOT/rQz2uHqdAVYmNi5QMk9abHPqHU42Enp3NzGiR2GqkJBoOsX9YzjfZ42I/xCB08hOCJhunoqeeOjl7Q6t31azSHxF6jNyEjCx6ej4+hX9iYLyEVJiZaZN3Ur+pKxF1x0UH4vGMk9pOIhEjeYwjJaWd9hkjowuqZJaTP1Dtr7qfvMUx91sMKO81X2bdJvOpcIVZjbOOjkSiGqAv6A2EMh6IYC0fhYvs3Izsi9Ka3/mY43f9hQXxKkPkFnkxMMivdCm0gYkrSgo5pmFMK04KusRRn7G8qY/NdjcY+r9+px8z83jpnXXP9+LXf8PfmHuaY9Uxz37jf2HkR4n9v/da+RtCQu/JzYwM2f8fyeS0/5pNkckp+1Itn/W1dc8P1dn7i8jk1bze+i/Ix5d0M4vPD43H3dXof61rr9yYWWL+3/zbPs55l/23lmTD3txq0yZvOzzHI2KgOPFTWg94AjlY04fMDZXgpsxzLfy7AytRyrEwpx6qUCqxJKcW6lCJsSM7F93k1JPm9JPVRTJAEuFkew64JuAIx8hb3vlP/fphgJ6dzcxvqlQ2wPkMYDkbRRucu9/IodtS3Y299J36p7cIvVZ04UN2B4t4RtPtCGAlFTIiG2pTIgMi8QrAelp55u73PdRjdJD1FB81DMjYZAR3zKGp7BnCqvBZ5NU0Y8WtETk6+Rui8rEfqvCiJW1Tx01aMtNF3upe+x3DtGVOOTT2/0GEnp3PzAbJ7CpscoFzkdPZja34TPjlQhI8OFeG9vfl4Z1cevjpcipyOq7gSDGNCozzU8SLv9qf57nDvhwnxKUHmF3gyQ9UOQjBfISXgC2gInqQuRmwfZqh+TT07nJsboDMS9LDOAmi7Ooo3f96PTT+fwuLUUjyeVoGVGSTyGSVYnVGE1ann8PT2PHxd1oUnk09i/c5cZNS0o3nYhS9Ol+O1Y7X49GwFusbcCPsURy1ir9hrkQcrVMM5DwsXdnI6N5fhZ325g5PoGhnHtlNleGXbOWxIogykVxqsSa3C2pQqbEgtw7qkc3hh+zmksO4HgiAJ0BC9Jk3yHhESQd1vyv0XIuYPWQ2wTVokvnXEhQM1F/Hl4WK8vO0ont16Ds9tOY13ss6iqt+FIV435PWgsbsXVyY9huAHCL2r5bDFOjqmkPX4Y1NxY14WJuyk8nE6P6fBOhqiM3equRufn2rEmuRSLE2uxpKkKixOrsCyNLb/jCo8u7sGm7edxYcHCtFFZ14TYeUgmrkW/LQmyT48DpwT4lOCzC/wtNB6rUTkbSTIvEVirHp2Pv+goXxpcqMnEMJ4IIzzQ24cbOxGUnUntpa14mD9RRxuvIijjRdQMziC7kAQfaEw/nqsGIt3FGBNylm8tacMS0j4f5NVjQ07TqPp6rAh83YMvSdB5h3PzWmo7dLJuzw6jgOlDXh3+2m8klWItUm5NORFWJlehLXby7EyNQ/PUA7+fLgU756swGsHcnC4+yqaXQGcaurGjtoGNA70Y5LOovSBmVBJ2LLh+Ox5irncM6+RQzNhUaCz5QpEkH1xAC9k5mN5egmWZeRjfcYZfJtdiz8cqMfybWX4OvsCykd8+MvuU3jhx8Mo6O6HK8r7hVWHYUPmVZfhGGkzI5b286aQ96l/L3TYyencnAfrqN8bwDf7z+BPaSfxAmVjU2oRnsoqw/NZRfgupwGHattx+qoXG1NLsCm5AJm1vaif9ON7ys9Xh/KR39oJr5w+0+YdnvGQID4lyPwCT04CMC/ARupVj27Y6p3xKdbaF0AJFf7RylZknClBXkunIYiugB8TwaCJrQ3xe0gxtryHmVi3wJwZJ8zlehahMpNbg0KIpD4AFw3+WCSEiXCIBIx1FdGqF7qWJCyg5cn8yCFhW5JyDo9l1GLlzgv4953teHRXExX+MXSOTLCeQ/ydSATrPSJDL3LonIeFDDvNN+Kq/GqlGsXFj4YjZri9ecKH/K5+FPf0o6R3AEW9Qyjk3/X9IxigzPxEA78s/QSeOliOl/c34EmFZGWcxJbTeRjzB6gjKAeUgetkPuHs3y/Ek3k/6/P4+S78gXWzkW14XUo2Xs7KRnplGy5TX/9c0oo1dNaWJxVhfWohnswswDM/n0TJlVGSefXEi6BZkyMVd3+dzDs/+2GEneZL6NUNYJ491PNjPh+GaBMujnvRPu7BAO3BlbAVNz/J7x2UlTf2VmFVWjU2ZjVic0YdNqVV4cXUHBysasVYIPjQd+jFp/9khyvcFqQsqTT1XaQr/vPGawRdZ107HZSpW11jK2bHczdhptf9OuKfN+176thM8n8NTtdNOXat7GaAG669MR9Kytu8BPPvC7nhCbsxyXeq65vEe/tKsTQjDytSi7E8oxgr0rLxQ04zqsZ8+FdBBfbX1GPCLzJvxVwGIlrxwqqfhYy5XM8WaeN31mEgQONMBEXYTU+6JbNeExMfNJNk/aGIQc/EJF7fW4jHUqvw26x2/LfUC3girRSfnCqkEreGWBUvHSSBkyNgrUd+/bkPC+zkdG4uQ3Khyc1eOmSKmfZJHowuu76aiVa88GpZSjnobM/5/aPYvOMsHttRh//Y3oNFmV1YmVmFtMI6jFF2NFlWcrZgyfwc7nWOJ/MTJFkfHcrGO7+cwSeHcnC2sx+9XjrwIcDNtn1h0oM3DxZgcWY1Fm8/j3Vs158frkAvz3lNz7x65K0wmwSZd4ad5qd9o85WJwxlxax0ZkJmvIiErcnQ/oiPdj+I8WgUJf2TWJtchsczuoherMpoxatpeWh3+eGOaHKsVkl7OEZjnBCf/pPTBQksDCjNVwWoDUQ0aXLEH8I5GoOXd5VgWXIFlqYW4vUTdfisrgePZuRjTWYtXj58EUvTT+GVtD306knkY4rfb1a6WNhkXk6L0tztlfaRcIu82wRezmaQ9RsyhE4r1Gh5QhFzs2kMj2lzKcVBn5/w47XdBVifWoR1SeV4bVc+aifdcAe0RrWUuZwDa1Jzgsw7n5+rUJ1paUqtVKSJrKo/ax159cyq7YrMh6gDQpQLxVFH0M+63pJXjbWpdOq3d2N1Zjue4/eC9n5MRGJrlxsyLyK/8Mj8XA+z0cpEIvMBOlV9rLeBSBhj0RDcYHvnp5915PdrhZIwiq6OmbCKtSmVeD0jDwUdAxiLwOjsINt1kITOLEnIezuF2TzssNP8DCvSnIoo3FqthnXuJjSxXSM6WnJWbd9F2fHT0R9nu//XufNYlUrbn1GN53aVYX9DJ49HSfwpa+q4e4jlIj4lyPwChtJ8NWgukrs+rxdbspuwMq0Ij2WUYgM/dxZdRI8ngrpJP57fVYwnMhqwLOsCNtOo/3Sy0oRzRLUmNe9hhW4433+h4NoIzJwm8yLxFgyJ43GrXiSbInMiddr8x4twwIso3ylCBe3zh9E7MY5T9S3YnXceTYOT6I+QFCikgvLhotEP+63lChNk3vn83IVV96p3OXHaJMpDIqjRmWBYoVakgILWlKcjGNZ1fg96Rybxxa5z+H1qDl5POYdTtV0Y5288WrZSRt2v31x3DJ2fPT9hyPycbefXybyB2QtgkoRrnMR8ksTMC682BgqIsGvZWeCvGafw5pajrMMLGOMxHwmdRlWCGlGNas159c5fR4LMX4ed5mPPvGyz2rN2gNXIi7WBoDUqq9EnL3W8O0pZ0DKl1PNa8OBQ0yVsb7iIgqsjGIGIv8fsWyBZS5B5KyXI/EIFlb6Swhgcz89xuGi4duYVY/OPh7AyswTP7C7ELzVtcHtCiJDwjfG9tlV14bFdFVhEPJ2ZjbIRN8bprat3x1rikfeap+8/U6h+TT07nJt7kOIW6RasECjFTXtjQ67+oNXTEqJi19yHiI/K2jfK60T4I+Y6l+LjFVrD37vVcxegIjd1nCDz8wmSV6veBdWndcxy9jS5WfXK+mXdhgX9jvWuORaDbg86Jj3onHTDaybCWz37YZH+2AiQ7mfCuxYQ5nZ8dByZNzqY9ULCpVBHfTcbRBnyJUc8wHYcRW3HFdT1DKCfbd5Doh/i7yM8FySRD0S1kVSCzE8HOzmdmw9Q77tloykT/LTqmDJgbLdkR733bO+UiwB1vjvgMz34GoGTrMjRV5uX/XC6/8OC+JQg8wsUdvjFfFWAGjI/XFyGXWXVqBmawEAgivFgBP6A4MLE5CQ+35WHJ9Jy8dwvBSi5PGzWoXap91cKIBw0w7QLncwLSvOrF1Kk3oJF4K5D583QMetNnxak9HlMx3Udz5l5Ibpe9RtXx/Nz2PnOYaf5FjequpMhFmm36j0mE4aIKwwrRuhvAn/Ha2TozZKkcuJiZN4K09Hf1+Vq6nPnNea0LrPItoHabITHNEFdkNMtMs/6NRPVWW/a/dPUs0KpjL62Cbt1vbWijXXva/clbn7uwwk7OZ2b+5BDZ+0ELFhLTdpQfVt1LxnxR9TBQ0ddx+nsBcgLjF4wMqJr9N3pGQ8H4tO8J/Pxjfya8r7B0MeMhDEUgq7T37Hr9bc5dh3WNfw0sK6dj1Ca270500Nx1e5QCJOm3rwI+XXM6r31sH56Bobx0U/78FbmGZT2T8LrDyPso4dvtn2362/+1t1MIdlXmsuT424Xd0PIH1Yyf11fLVzYdRsS+Zty7qEA9Zrj8TkG2Rzt5OoEp+sTuH3Y6WGwcQlMj/i0AHrmAwhrtQOSOBMnKeIXsDYSkXcX0soZoUkqmHF6d2MI+71meN4TdtErFFG0eoBcmkFNKEQjQuKoXgM3/9bEvfnYYGT4lBbUJDAaMzsedsTnxemyWlwcGMNIQJPkHi4SZ0MkTmm+GPqZQvJrr8rkdD4BC3Z6GJyYh53Mz5c6Vj7DkTiI3McwXzuX5hrslBiteLgRn+Y1mddEKX94lKR8AiG/GxFfgJ8hs3axhwpFMZOuYADDVP4DkRA/tXGNJlt5EAlM8B4j/P04ybvbkH5/xI1A2I0oiaLiOLWBhY5bvfvOeZjLUFpoZF5Om+rExzpxeUX4omZ49mHtobBj5p3OJbDwYSencwsNNpl9GBwXJ9hhJ3Mdqp8boGNxcPpNArcHOzmdS+DhQXya12ReM51DwUmz2kHQ74eXmAj7SNz9yO3qx8m2AXx5rAQfnqzEX0/U4OMjNfixsBF5nVfhcZGsk7iPR8dI5n2Ienk/rZgQ8SBMsqil8txhkUcajnnY6yklqjRfJ8BOB72PYiqtyVUk8wHF003y3MM5AVKyqbTQeuYTmBnslCBJCx/zp47lbNmY+rd9LIG7gZ0SYTYPN+LTvCbzPpJ4D0lcn8uHgquj+GdJC/60twBvZOZhcXotHkupxuMpFViUVoLVaaV4alsBNqQVm+/p5VfQGwpjLOwyG5NM+KIYC0YwEgnDywbiVxhORL3A1trFTs+f61BaSI1dISVags5DR8tLR8xafk7v9/CS+WthNlOOJ/BwwE5O5xJYaJgvRFj5VCiUExJkfjZgJ6dzCTw8iE/zmsxrXeIzTd14bW8+luwow2/S6kjiW7E09Twey6zD0rRyrN2WjT8fKMWx9n6U947hu7NteCy1HGvSK7CrvAlu3yiGSdaPtHXj8yNF+OfJYlyZdCOk3t6IByES/HlN5hdQzLGIqzYbspaxU/gTj2uGuyHyD2kPBetX6WGYAJnAzbBTIhZ54WN+jb7YvfBT4XRtArcLOyV65h9uxKd5TeYnSOxSc+vw4ZEKvHWwFm/8Uom3D1YguakXu5pbUHr5KgZ9QYz5Apj0++ALBtByeRxrMkrw2/Q6vL4nHx0eH74vq8Wi7efwxPYKrEk5h5qeYWtr4YiLzwkR808JXeuxXWhGnnVokXgqMfOpv6XQHl6lZurZ4XgCCx92Shj1BBJ4eGCnRCfOw434NK/JvFabGSImIxG4QsBoKIqhcATjYRJ4eOAJe6y1a0n41KOrpQ4HQmG8sq8Qv82qwSMphXgr+zyeyMjHv2XV4T+ymrA0PQ9FV4YRDHtJ6N2Yz7PFlZyOJ7CwoJRQ6g8n7JQg8wsfpmd+no4SJzC7sJPTuQQeHsSneU3mhZtmzv8qNEnWjYuTbrx/rAiPpZzFv6cX4JGMPDyaWoVH0uuxMu0U8vsGeO8goA1ItGLOPDSUel8lp3MJLCwoJcj8wwk7JcJsFj7UsZRo5wkIdnI6Nxu4mTtZcLo2gQeH+DTvyfxU/KrABX2IeFwI+PzonvQjo7QBP5c0IKuxAx+UdeC328vw6q5zuOoJAb4gIiEPXFH3vCTzgpLT8QQWFhL1/PDCTk7nElhgSPTKJxCDne6VczeVwMd/T2DuID4tODJ/K0j4tQqKN2xtMuWjgvT7/TjSdBEv7TyEsoEReEMhRH0+hEJeuCPWb5zuNZehhqfkdC6BhQO7nhM9dg8n7JQIs1n4SGwQlIANOzmdmw3Y5H0qnK5N4MEhPj1UZF7KMBwImR1eI9rZNTgBb2QSk1E3hkKT6J4YwETExWNuCq6XZD6IYHB+Lk0pcqfkdC6BhYVEPT+8sJPTuTuFYrODIek/zTnSpw0fj9tOw43Og447wUzANyRgGvCcPxyMQygG629f7NPc4yEnE4bMJ3rnEyDsNNsO3nQEPv57AnMH8enhIvNGGGlgFAtP+GigvGEPPBHtKKrNpyZI3idoPNzwRr389PMYDck8VKBq5EpO5xJYWEjU88MLOzmduxv4In7qxQC8kaD5tL97DcHW8rCxzxj8Zg3xEHVlmJ9azjfMY/oeNqRejkA85CwI15aVNRvBWZ+WM2F/ajM/62+nfCaQwMMIOzmduxskSPv8Qnx6yHrmBS036TJEXgZJPdhBQ+xpsIIhBANBEnj1FtG4RGRg5u8a5kpOxxNYWEjU88MLOzmdu2OY3nTqvYiboL40e27wMzJJnUhdSWPv4zXWpwWLiHtIBK7D+luk/XpPfTzMM2LXxSNM3RwO+gg/wrx3mLrZrEo2y72Q8w0P+/sncB12mm1ukiDz8wvx6aGLmbeE38b14yL1Ju5YvfCE9ffN180XqEEqOZ1LYGEhUc8PL+w0+0adhFtEXCCBtwm6j9+9UZ8D/PBGSOwj6tX3xeAl+dfxEBHm3xbsvz36Hg6RwKsX3w6rIZHg374Qj4Uj/B7lp6Dv6v2382eRjoeJfCTIfAI27OR07m6wkNpTvH5YKO80FfHpISTzDwnokCg5nktgQSFRzw8v7DSrOz2HScA1cklC7uGnHV4j4u0jsfaFcRO8IcKcI0TEFV5jCDgJPom+D0LAIv4i+jHyH+R9FUYTYf4Vly/nwV49zIrbdyNMREIu/n09jw+Dob4J8zDcM4F7AzslZMIZU/XDQtUR8SlB5hcwlJyOJ7CwkKjnhxd2cjp3x6Dha/AE8dmpYnx0jDhajo+PVeOTY3X44EQj3j3ZjPem4F0ef+dkA7/X493jNfgL8fHpOuxsuYLjbZdw4oKF423dBieIwt4B9EaAwUiUiKA/GsEVRHA1yr+JkWgY43QkJtW7T/Ifv5v1w2CopyLemUng4Yad/LPpxM9zTNUJU+H0m/mO+JQg8wsUiQmwDw+U7kRZ+Skjfk3wNt+1VKt6ZP1m/oi+m6VbzfcAj+szaD49fJYz7N9bCASZJ80/4W+mg/0sE+LmgKAmVpr78G9NXDe9tj5jxG42ZNY59VL7zXN1bP7OeZkJ7HQ37yhdYcqZ9Wdi33nscN8YNu0qwHcNffgwrxVvHKnDU9vLsSalAKtSiw1WppVidUYlVqZXYFl6JZZkVBM1WEo8kVrJzyosTSvD8vRiogTLMsqwJL0ci3n9kowKrMgswPrMImxMzSdysT49B2sycrGB3zcln8P7dAy+ym3Fv/KbkVF7CTUD42gcGDVoJloGRtAfCGFUO4CHI3CHwnBHtBKOYvLVHq6H5SwEzFqYjZnfINjfPbx3rMzMMT3rOjRyojkLN8KemCzZseTnOkJ8jvJ6M268PoRQ0IJ1zOF+avuxSdf+sDWh2ppYvbDq9nZhJ6dzM4XlHMbXT+xv6nKtIuVjW1K5a0TOw++C2pdg/30rWCF1vI8Drh9X/Vq4tnLVDXm6ni/r3HXZNO9gyywRigQQ5j1CzHOCzCewYKDkdHz+QA1wKpyuuxPIGEzFbN7//uFO69lHI+ojGfIHPFTYPlz1BXDJE8YldxhXaDj7aDQrewdR2t2P4i6iewCFREHPdeRfInoGkXdpEPndg7ymH43Dk+gnuRoJRzHG+4zw+zC/O2EkGMFoKILxIIkYr7VCOWIGQ7HTvMYb0OooNPpS2iEPFb52ZSZi5N4oapL9YNhNguEmAfDBSydFxiHEY9aqKTe//0KAnZzOzQQqmzDLKsR6MGE1UTcNow9HLg3j9Z2lGIsGMRr1YzwURfOoC02DI2gcGkf98DgqhyZwprMfKUX12FLciG+Lz+P3O3PxbOo5PJWWjSfTzxlsTj2LzRl52JhZQgegjMSfJD+9GiszSrCWBH9tajlWpZTzWBUWZdbgURL9xzIrsCirEk/EsDiTzgIdgiXppXQGyrGCWJ9ehN/vrcBfDuVjb+VFNA660Cvy4XebJYgt8uf83vMWsxFWYQi8Jh/rUxObJygHIvRsR/Y8CRsm9IlyopAoIhD7DEZ0jOSJbU/kKUxiLoQMLNJtVjeaAi0ooUnU1v2tidBa3cgfYXs20ARr5s3c33Ia/NEAPOCzoz5EmJ+I2rTyPvW9HiLY6U5JqkiwdKVF3CO8D+stQkcpCjrIQaSXNWIbkVpUg59LWvApneqntxdifVYZNmyvwEa2yc1ZNdjMdvx0eg2eYbt9JovfsyqIUjyzowRvHq/HT2Ut+Ln0PH4ubsa2kvNIoo5IJn4qbcYPJU34idhS2ohk4lzfKKqGXWgYdhtdc552pJU65sLQGHom3BhlPiejtAd03hXCF6bNVr7d1FEeyojm9kTZPqKBMCK0GSHKZYLMJ7AgoOR0fH5Aylqwe1btz9lU4nYDn/o5v6B0R8pKpDg4QrI8jvaRCXyQeRbvZhbgzaQz+P2OHLy8PRdPbj2DTdvUU1qM9Uml2JBUEkMp1hFrhJQyrEmuwuqkOqxPrcGTJGPP7SjCi7tyibN4dXsefpeVfxNezSrCy1nFeIVE7585Lcis6caO6k7squnAjqoL2FFxATvLLmAP0TjqQ5vbj4suL/pI1IbkLFCZj5E0TPDTQ6XuYv2pN17kIBAQEbHisGdXZuYW7HSn72it1mX1kqpHW5NWNQn156qLeCq1GBdGxun0eRD1kfDTyId9NJZ0rCJ0vkJmCUrFyEdZ/hFMkDxP8HMsDOPICdfCZyJRdPAe+e2Xkdt+BeeI0/x+9mKfwZmLV0kg2vDFiVL89WQp3j/Fz1Nl+OB0GT4kPjpdjo9PVeOjU7X8u47f6/H5yWr841QlvjxWin8dL8E/T+TiYGU9JibZFvx6N+d3nq+YLUJi9WhaE5wtUi9Yx8IhF0mQIMJsrzAk0s76JoL6ZH3biNIJtBCOIYQo5SlEh9osQ2p/xmBNYuZ7xJ5nOQvWRGk/ybtBjHwFIyJjfvAsyTx/KzLPa8PGGXB+t4cFdrrT3emvk3mWO3WotVqU5rFEkN0ziGfplP+zugN/P1WAV9OPYXNmNlZtO4NVSQVYRYd6SXoZHqdD/QQJ/JKsOizJrCdq8QQd8iUk+Uu3V2NxBh1wHluSUUtHvQbL02qxIoYnMmrweGY1nXf9vobXVWJpVhWW8e9ldBCWp1VjaXIZVtC2rCKe306dcLAUHx8pw466yzh4/gqOnu/DyfOXca61F53eIAapdyYpi0HJpun8uU7mncpgISA+Jcj8AoaS0/H5ASkpEY2puDPltVAhRWXq+Y567GgUA264qfh2lbTh2S3Z2HNhFAdbL1GJV+CzY2X47EQVPjlRj7cP1OKZpDwS+nyS90KsTi3EitQiLEsrwhLiiTQp+HosTm+gQq/D41TYj/PzsQyCx5zwaFoTHklvwaKMFl7P3/E3S9JoCKjMZRQWp1G5p1ZhBZX62tRSrE3Ox6aUc3jzcCU+PVOLr8/V4e+nq/D92Urkdg6g1xMwvfzadCik3tmgCL3Ig9O7LwzYyencTCAybw1vK9SBx2jc3TToX+SdpxGtQF7XVRI8H6JeDx8ygWiARI9kKmxIFcmfYIiZfhsyMEPcxkFQz6oIoiaxxpacpMMQJkkLaWg9GqDzIAKnofwwJvncCfW8aTSGToHX1GWU9yT0nc/V/h/qhdO691o5J8DnD/PaPj4zd3gCr2Wew/b883TwRFC0DPH1d53vMD3nDsdvF1a9SHeQqLMcPSxfN8t9MhKGi7IwyboZZZ0M8e8hOmLDxCSdsUleZ4GkKYaJCDAu8PcWIkTY/OYmsH7H9ZsYdE+XnqlRONPjCsqE6l6OJWWIxyOBACLKL/MUYZ1G1eNKsianwundHhbY6W7soXGiDNHVyIqX7dbPOg0jtbAFT205hbPdg3Dz/gpf6w8Cg0IgirKuAZxuvYwjLb3YWtSMT48W44NjJfjgOB3woyV4/3Ax3j9Sgtf3FmB5hsLryg2Wx0bUVqYJJOmx78tSSdoVesdP6f4ltANLZUtS6SSk0UlI5Xc5AKn8fUa1+c0qXrsmpRSbaBNeTj6M11L24YeTRajsHITfG6UgacQo5hTG4FQG8x3xKUHmFyiukTyHc/ce8og1rBofwnK7pOp2ybyllG7E9A3YjvmMhyEk8wzqiVa6E2XlpwPgCwZpWKP454kGrP0pBzubezEQpQInSXLTgE5EQxijIR4MhtE14UHLpBc1o27sqWlFVmUz0iqbkEIkVTZgW2U1tvLzy7PV+ENmEV7JqMJLVMabs6qwUUOzNnbEkFmOJ3lu044aKmjFV1eRxNeS3NdbPTxplXQWKrCSint1ShHWphRgdZociQKsS8nD0+l5eDkzF3/IOIt3dpzFvw6cRUZOFa76w/AESBwlL3RUJAuKr1+ICt1OTudmBJJrj4g122so4DO9r4PBKN48UmcM6Df5TZQRrWzjIbkaYRnGNtSjfIhIB4mQvquHzzgF6lnV3+p1tdrUdZCU8RoNj5v140XsDaxz1pC/yL0VimFCPnR/XiPonuptt2JsrXAsOSLB0CTc4XH8VNaFdRk12JBegvyeEYRMGJbDO89TqL06Hb9dmFh1U84u1mUEVzxhHK9rxY4KhVa04dv8Vry5qwC/356HV7JIlnYW4sU9+Xhhd0EM/Ht3MV7aXYJXdxYbvLyd7X1HMV7h91d2luB5nntuCp7fVYI39xbj8zMNSKruwraaTmyt6sC26g6kEunV7cisvogdVW3YVXMBxQMTqB33on7Ci/MTLowGmH+240BAoXP8dHi3hwV2cjo3Y8TarNpmxIQv+nE1EMLL1LHLtlXh5+JOaGWqSJCOtRwttjt/ZBIeuEHJwTgCmIBshMDvhCasT9AJG6fjNkRC3Ulb0TniQVccuokLox60jdOeEE28pn7EhUO0KZmltUgvr0NaeT1SyxqQYkJwaGPKmvmd9qasBZnlLcji37v42TjiRvfoJC6OjqNmZAJfHShEqZwQOpS2zrfhWAbzHPEpQeYXKGQclZzO3XvMApk3kx75m6lwutZAjVXn4zFdA75OEOIxXw2Eqec7MPTeoBvukMuEQjy75SSWb6vAFycbMMlyi5IgRYMuRMIeQsPbImJUiib2NWKGZn38VK+eJh+6+F0x7+pdHee5MR4b5XdB4RcuHjPgdzfPCS7eSz2oIzxW2X0F+e29ONd+GWfa+3AqhtPEmYuXkU3kXOzFaX6e7NBx/t11BRd9YfRFougmAc3tG8fzP+5DUmEjBgIi8CLzJC18n4VO5u/k3SyCraUiraUntTxkkPXR5Q/RcTqHR7Y34aVfiuD2+zFJg+2PjpEgW73tIcqbekwVUmGF3cghVu/7JMn5hPk08xfoUF0j3zTyPta1YnS1brxlZJkXflqOgA31GFoQmbdhXXczIn43Lk8M4cVfKvBJYS9e2FeNt0/UYITv4vTe8xWzJ7+xkCqSsjG2z63Hy+kMn8KXdISfSz2OzduOYdPWU9iUlIMnUwqxPr3cjJItTqsxDt7i1Ho62k10vpuxPJVIacaypPN4YkszlmxtxeKkC3gkvQm/zWg0+E16g8FviSdSG3kPC0tS+XdKHZ5IrjPfl6Y1mFCMlalVWJNegbVm8nQplmXmY0PGCby37xS+P3oORT1XSBalh5ze7Tos+VqYZM5OTudmCtN+2H7VnhW+pBGSDrb9J1PzTIjMV7n1JOayjRrBkYMtR17zaqQzrN9rBM7skm/uqTKWc6C6UduTnXCGV3N0QtYonIcyKLsgx1K66PrkWO1LoWNCmM/VCI7mUlFfSWfpGj5TOmyceTnTNYBnt53Fp4cqcMmjRRgWZt3HIz4lyPwChpLT8dmBRX7VW6TJU36SQitGVUaYBlkNmg3UbAZD+ETc+Pc4jbowpk82UPPJ64UJfee1FnR9lJ8ig3GfvIe5j32/2Kfipc1W8+Z5auQWgfCaxqy8uk3e7Pwr7waGyFt/382Q5YOE0p0oLK34onLq8QawMekcHs9sxJ+P1JJcUyGT2ImwKcRCca/ajVOELcLf6Zzd02qvOmEmuBkHjAjoGp6L4UZnzFL2FtR7YtWXhtVVVx4aCUGxswrBMOBxI1NS6DznVqgFjYwm7eqcVsMZJzncUtSMzann8HTyKZxs7qCjwvuoN8+8q+p64Sl1O033brYxczqvOlTdyiirhzti6iqMVk8AK9Nz8d+z6rEqLQcuX9AYXBMuw2tMzzmNvyYpBkSq2P6s+pQ8iHSrV51lLpnQcRN/Laj9WW3MPJvt0YqZ1m9i7VF5MwTfghxIG7bzod/IcRD03e+LIP/yEJ5gXg+0DODLYxUkhnkovjpidI91T71/7HssD/MNZvTC4fjtQ3XIthN1o4uk55UtJ/DS9hw0RIEu1lc30UWy1UkHOb9zAKdbenCspYvoNjh6nmi+hMPnL2FPWw9+abuMr8+U45PDRfjkSAk+PlyGd6lH3jlSR9Ti7cM11/Dnw5V460gl3j5Sxb8tvHOkGm8ercefj9XjrWO87mglj5XiL0fL8MmhImwpacKB1ks4zmfvbujC7zLzUDvkMm1fsuON1au+x6+KFS/7TvI/n2Enp3Mzh9UmjHPOtjwWjeJ0x1U8mV5iRkjfZN0NGvJNPU39YOY8SHZYlgpxk71Xe9Sotj3B2SLx1uRnSyfominPVbsOUN8E1AkQoE7xIcp2HA4qhE+7TlNXEPouhOlMWCN4vJa/147QskdmVSX+Xna+nzrowxNV2LS3CRvTC7C7/oLhA9fbjD5tHTIlP/MY8SlB5hco7ib8YmZgw1bjY4N08XvbxAhqB104WHkBWRUdSIsho6IT6cTW4jb8fmc2fr8rF6/uzscrewrx8p5ig1d2Fc0YL+8kdtyMb0vakFTZgfTKTmSWdyKD0HP3NvWgcXgMfa5JjJPYeUQeRWAIvcdCUPJKTsdvCSpUEfFzrV1Y8dM5/Ca1Gs8eqkK330MFSZLFMhKhN9dSAVsKVN9ZZtcgMq4eHpWjTdYtJSrYCtcJQUPkrd9YeRLZixE8ypSBIXk8Z/KhZ8hplCHXtR5zvYe/bxocw5NJp/FZUQte2H4KX56swIRxKiyHUvWsuNsb3n8BwE7TTYSz33t6OVc9aYhdYTYKgfGjccKPdakleHzHRSzNqkPNpT46cephV7wynxMj2jfA1I0+behvC9MZ0NsxrLpO8qfvIhGSQ5EAOQ6DdPI+OFuD9alncNHtx6m6i3gqrQCfn23AGOtfToMnKplkQUmmopM33X8+IJ6o3g3UvjTnQA6UJiIrbG3NjipUDI3DFSUR43HVmz8UJSL8rnZq9aiqtzWgkRX9zU/1jnqjN0MT0m0oBt6G5kfYCPA6G3ImneBnpbn5L6RnUV8UjXmxJqMCH5yoQ7/aN/PqouNhQiXpMIrgO73zQoOdnM7NCGxD1igY2z3bhHrfNedhT1UXyXAV1mxv4WcJLrH8g7Tx6ngxPfTmd4TpcFFHgNqgdLSl769Dcjb1WDzi7ATrzOogkmMgR/06zDwbA527EUEzJ4rywbxdpTw9tasCf85vx4sZ2eQKuejzUffx/tEAHX6+hzokbLviWCbzEPEpQeYXMJScjs8GRB78NIrymmtHXXg27TSe21KAjVtqsUqz0FNLsULDpGmlWEpi8AT/fiSjjmjAbzOb8EjWefyGCuO328/jURIGg8wpnw7fH8ms5T1s1Fz7XJqhyTVlNExlWJdSTlQQZdiUko3fZWXj7yfLcfJ8r1kCUYrD6Z3mK+60nkNUpootP9BwEWuSivCI1gbPzEP10AgVn9WLGiSB8lF5C1LQ+o1CqOJhkfGYUnaA07PvHCLyNNpGIdO4MP9S5kfrO7EuKQdZzZfwQ1kL5fEsWkhO/IGImRfwa/mK/z7fYCenc4Le7VZkXj3cpueN5aT49cON3ViTWoHHM1rZrhqR3dyBqCHOYWNYne9z72HI/A2yaBGLy8zXsxmn2dZP0qgD7ZN+vJSeixezctA6zncj8dCymxES0CjfNxCRE3jz/ec6jOMTc2juBiE6QBrhmqBDnV7WirWZFViW2YCk4kZMQhOOVbbq5bZ7WPW7mKNOORHs79dWoLkBFkl0gmTRCU7yaYgeHUwvcyUyP8n8JNV0Y52WREzNxanzl0y4no863fTs8r0kx1PvsxBhpzte1Ye/k0MnZ0xk3EudOkAy/+mhSmO/N+xowmra7uIrQ5QFyUGU9aHRbYd7zSqk161OnRvhbLMlgwrRKe7txyo6eV8VtmJXzSWsTzqD/bUX4GHeEeBvKeseOv3Gpk1zr/mI+HTvyLyUvyFNgipDCpQIethAdZ4NlcbDTFCzP01B2z1z8bBIhVk+iZ82ZkOxLVRIOSrNVm/OVOi+irFT3WnC0nNZx9Di9qKw8yqKOvpQ2H45tgxdL7I7L+P4hR58fa4WX2fX46vsBnyV00g0Ec1EK9Fm8CW/f5lN6DP2/cbzLTx2/gZ8ld2Mkxd6kdfVh4LOPhR1XkFJxxWUMh9N/f3opUe+t6ETf9x6EMU8PhmYv+TNCUpOx2+NoJkolFLejJUk84vpEC3dno/TXVdZt+qNs9qZiLM2g1J7M6EzNMoPisxrfXkfHUg5k5rgqPxMBCNIzanH5m05yO4awAnW/7qkXOyo6cCkX7171B9xeZmar9nO4/2EnZzOCXq36ciSBZIpGWlDkFkubNO767qxLKkKy7LaTIz08aZLvMbqtddEOef73FvEk3ebzCu/2pim5PIgNiWdxjPJJzAUiWKEhP7LU5XYlHwayXTshgxh8ZD5aJie30linJ4x1zF7ZN7Ddk8nyOPFn3bn48ld9STzbfhbbhtGtBAIy1dk3gqboOyY7xbMSJl6Y8131kcciQ9EqQdicCLywlQSb8NJPk0dU1d7o3LIomZi9gspOfjTqXY8nVmAv+7NwzDzK90D8gTN67EcjRvvsxBhJ6dzMwLrTnHvJjSV9emK+kx43Wt7SrEurQx/LezC6vRS/FJ3kfpfozAKpbsfZF64Lm/X4XSdZDlAJy+IlIoLWJFajkMXruB4XTs2pubg9Z3Z6PFp5IG6KygdJx46f3W9E+LTPSPziqUWGbB2d6THTNiEPihCL0MsZcDKsOObjUGJKYt4qALs2OsbsbAqZrah5HR8NmDIPBXBgMuLP2SdwKrUQyjsvYyR8ATPiWRZyt7H717FNxPq7bWg71QkZok53oeGRWBzu/Z9Zn9f/3TTmGjzCBc/PZpIQ+UjufJQAQ3w7+/z6/DUtmN4Z/sJXAloKHn2ieaDwp3Ws5dO9QgdnfcOFWB5cgneyL+Ax9Oy8VNZs1nBxivizutUn4pPN0SCxyyFOBU33/9ewIwISS8wLwqz0PDpUCiKP207iad+PIkefxSd/Ht9cgF+v68KQ9Ir/E18Xev7Qqp7pemcdr3ndGTJqjcaO20cREOna9z8+29nGrE8oxmrMhuxJL0WH+8vhottRr3aD4rMCxqWN2SeOkR2QfMtNOF6Z007NqTmkYw2m3k46qk719WPzUmn8PrhcnREo4agRsywvMieeuicn/EwQD3zLgTRMDKOp9Jy8Nqx81iz4wKeyyhFf1hLRIoAqawkH9IBssF2D2kcVAfGht8MlbcT7LZnwyl/NgyZp74xEy6pj7p8YbyYWomviy/hm8puPJdyCpVDk3BTj8n5CMtZSPTMzximk5TtQfXspe0suTKKzSn52JBcaMIVl6UW4JODxWY0WxPXJRNO93mQUN6HaQPeOFqH9RkVKLt8FV2jE3ghMwdrknNxsPUKtPeFNTF/0tj9+2mv7jXi0z0j84pd07CGNypBoFdulGgshsnnJXyIag3ZABtgIEIPnAVOg3EdoRv+DlGgwkHrGn23wHvOQk/FQoQUpZLTudmASJWbJODc+R68uq8EG/eXY2tpG0b8QdanJspZkPG3v2sCXSTkItyIhgl+hunYKVZXw6n256/B3v57KkzoDGVBzqNmsWvEQMe1bu6lSBQvZp7A2qw8bEo9idy+ETZq3m8GBmWuw67n6cjcr0HhJ1dpvN84VIalSaX4oOgiFqVk4/V9pRhkuckhMr2hrEPFqJul8R54e1N9qafFmpDrDkXQMu7Hi1vO4JXkM6b3boDK+71DVViZUo7TF/tM71P8PRZCvduwk9M5Qe8pMu907jqZp5GL0CVmm9Zk8rf2lZPEN+PtvB4syajBH3aXoc/FMqc+f5BhNqp3TbyzyLxCKqzdhb84WYl1GSX4O8m8T73CfK+rdOhe35GPNRn5ONgziAmSfjksIppB6gXn+z8ckCOkteCPtvRg+dbT+EdFF57b14pNaSW4FNDqVAqt0eRiXS8Zce4ZFZG029JUxPfYx2PqdU73vQHUUVo61YMICruu4tktVbQzPTje049nSOYzqtspA4rNJ4egntfkSMf7LDDY6dd6rW8FE5eu0SrCT4f3XOcgNqQU4emUAnxV0IA128vw7t5ylq8cPLV95/vMLlR/U2Efn3qteGYI7R4/1qQX4MnUQnSMT2DY7cEXR0uwMr0Eb+wtQzdl2hflu4YnYjLnfK/5iPh073rm2dC9hD5Nz5h6agmzQoafRN0vkh4lQYvAz08/jbDVYyLDMxUUNlbCTdBxh2cnYEHJ6fjtwipj9dToO42ljCHrcYT1+ZcjVfjd/jKiGm8fLsWkn0paSwIaJSPPX+DfJiRCkAxYIRKm94ffrfXOdW+7Tm8Fyzm0YA0Fq8fYWp3FGulR2JaMdogOY9XVEWxOOYgPc2qxIfUs3j9ZijGe8/B6u2HrHeejLEk5KVm9aM7XTAsqwtYxL57dUYTlSRX4tKAFi5OysSk5l2RIS0eyPbJ+AnTEDJnXM0yZOdzrPsHqSZJjT5JKmdEmUYfpUG7aeg6vphxDPx3+CRqelPx6rEirxMenKs2KRzfcg2U2IyIxD2Cn6Xro9J4z6ZnXmuNa/rF3wkPHtxCL0prwUXEHSX0520wh6vsnSKIVVnXn5OHuoYmSbOd2zzwJep8/iNf2FGFlRimSqtppF3wkHQobALYUtGJZSj7eOFqKXtoZT1SOgHTP/Kz7223jpmfbhiHe18/Judla2MTyycHOi1fw4q5qbEgvRdXAKLSRk5wllbEh9KbO4+2xBSt+/kZybsOEMsUIvP3dQOdiebgVzH34HI0UuEnmtVPwcz9XI7WkAxd5/Pe7cvBq1lmStTAmWN9+ks77QzgfPOzkdG5GoCxovwjTnliWLpL5n/NqsCqllHa8Ed+XNWI5CfIbuyvR61NsvXSuw31mHTfL2XXcfL2LcnyotYPEPR+v7y7FYIB2ndyysLsfqzJL6Zzk49jFqxiHwrkmoFVx7shWzlHEp3tH5qlQferRM1CslYblpCDUw+cmtDufjnt43IIUh3rbp8LEx4scxhyDGxAnYDcok9ixhxUqAyWnc7cLO1RKhNxHEuwjYVIvuTZnWMkG833FRXyb145lO86h18tGF6sTe8WYBwblwxfE0ZbLWJV0BGcuDeCLsw1YnXEchb0DGDeypfeSQpPMPOD83iGU7qxnPoCyvhGs1UZMWTX4obQZyzIKsGpbIYq7+uEVCdbkIZaNWQZSv7svCn16GB1BxS69oHwpRvrvZ2pMjPw3eY0Y5Dk3UXV5EOtTCvH0zkI0Dk+YVTWkP8z62jFSY+mV+Q07OZ0TbqUTDSkmZNjVq3lhcAKr04qwOLkB35a300gWYkVmAYq6h+GLisw7G9X7ARGPMOvd1CGdD5H72hEv1idrl8lslPQNQqvuWOfDKL4ygg1pBVi7vRSnOq/AR0Ov1Vi0RrXT/ec6ZFOdjk8HQ+Ip46bNsEws0AbzPhMsi9f312NpejHOdPXi4/21WJpajIMtl1jOLCcSH+MYyfHhp9P97zVCIv+sz3CYDrrIZkETNv1YhJ8K6tFLcv/ePmsn6m2VHRgjmTej9VMc94UKO1nzEp2v+VWwLamjVZNgXQpPZdv+LrcJy1Or8I8TVTh36SpWUg+sTytDdf84Zc8aDXW816xCdX4z1Hlr5uzQXlsr6Vj6fzRKp7SqBavYzn8uv4BJvo8iPQbIUV7eXYjlSWfw6fEKDNNOaJ186QeNNjs/e/4hPt0zMu+lwnCxAialOPipnSQ1tCeMUTAmCBchxWp770Eq2mAw6oiACGTI+rwOrVN9/Zm/ZrQeNojcKTmdu12YOGU2AhM7qfKmghep35J/HktoAH5p6saOyotYuT0X5y72mIY/J+pCio5G62eSvNVpJ1FydRj72q5g5c4c/PVsLUZJTMLeCSNLIvP3b4LP7OJO61nOVmZlC5aklWDz8XqcutiJxzLysCytBgdYp0EzysK6DmhzD4200el+4ATYxTy5Tb48NNxXaeTf25ePtdsK8H1+A0m7h4QljD6Svre2n8NykpV/5NVhgLpFbcLL37tIXPUeYb/T/ecX7OR0biawyLxiZi0nqfnqBOu/2OwAua2sFU9mFGNFRikyCxt5jcj8A2rTkj/aCJF5Qy41mhCOYl9tJ1YnleOZ/SXoobxGg5osKYMfQBfb/mv7K7EyqxL/yq8lgZV90RKJD4ac3i3urmfeJvO0yyEPCjt6zCo2i1ILUNw/gu8LLuCJrGJ8caLUhKyI+IjshVleVifa/YfIvDU6EMIg8/TR4XI8tbUQRy5ewSB5xM6aDqxOzsNLO/LR5pL+Vmz0w2H/7eR0biaQLCkMVWFrIvNq25+faMGy9AaknipF+4QHq1OKsSS9CqWDijenrZT9d7jX/YDyqc0LEVD7VvuXLgrhMp323+0rNh1SR7su8zoPIoEgeSawq64TazLP4aXMfFz2av6cNrXT/hTOz5iPiE93TeatHk2BBtKQPX0PQuEOY5EIjtU3Y3t+MbLyS5FRUIWkghr84ZdcPJ1yFM8kH8XfC8/jX0Wt+KaoBT8UN+D7olp8V1x3Dd8S35vjjTzfZKDvwq7ai2gaHMf5gTG0Do6ibWDYxFDqufGbCtnQbpNuCTA/TahGrHdP+Zaht0I0LFhrsCqMw/IKrZEGXsf3EzTLXkrSqUzmAmR0lZzO3T68fHerhz7IxiQiNBwI44391VieUoSGUS/2VZzHqowCHGxhgzINbQ4oVebTSwP+3i+FWLs9B/WDY2h2B2jcz2Hp9iKU915BOKA6pfHitUEzWuRwnzkOU893QLI9JPM/5NViaTrJ0OFKXPCHsTQrF4uTq/DtuTqzDr3luInMa/kyiwQ73et+QfH7IvPhgGK8/ThPo/Mqnci1qSU4fvEqAhEXjVQAw9QDmWVtWJmUg6eSD6PNo2U4acAoy3oX/XYh9czfaXuzJ8Fpc64gDeOZpl7joK9LLUdR7xD+evw8VqTX4KuTdZikwb/d3uHZhLWGOHULv2s5zYkQ8O3Z83TUq/GHg6UYpmOnHYutEBEvRkj4fihuw6qsCjydmYvaAWtjO7Ne9pR7zwfcTXiA5MMKtfFhAgH8kF+FJVnV2LCrjE4PkFrZgUVZ+fjgaDkm6SRZG4PReaKe1/wip3vea5ieeS2WwXrs8PjxXPJZPLk1m+RyzKy21TTmxsakM1ibkotfGnuYbzlrzvdaaLDTHcuEHDTWq2TCSz407o/ieerQZVlNyKEN75zwYj1t+9LMGpzoHKJuoCw8IKdOUHiclh6F5thRNhViqT1EKikLa0jW1ydno8mlEDpeZ3asDqNtzIPndtH20ynJvjBAJ1Xyb88FWRiIT7NA5qngNeRhhu94TDHw6klngRZcvIwnd5zBVwUV+OZ0OV5PPYuX0tkgM89iU1YeNu8qx8qUEhLCKixLrcOyjHosyayjkqmjYmnA49sb8EhWPR7b0WDWGH+Mx4VHM2ut7xl1WExPcmlaLVall2FNSh7+cLgab2iXuUPleIefbx+qiIF/8/Obcw04QIN17PxlHGvoQlX/BHro0Q9QoIcD2tKYhJ8wK6IQ2mjAQ6HRRByLxFvvF/JbRsWpTOYEKOxKjuduF2xAcnA8dI4U/+7l93oaxk2ZlXh+VymuekOovDyMFUmF+NsZ9Y7ODTIvgj5JJfViKgndvnIM+oMYYf29dqSY8lOGj44WkfRF+W4yVpJfOaTO95rLuNN6Vj19ldtMhV2BN45VojcUJTE6heVp9fjgQCnJr3qzRea19bYcugdP5r3KQ8CFqH+c3z0ouDyCTazf1WnFqB4YJVGbhFa5mWSbvuAO4enUc9iQehqHWy6ZOQBhP+uZ5zXSYIfbzGfYyencTKGN39RxIX2XlkedSqO+ifq0c9KPz080Y3VmsynH0ciDJfOmw4U6SIsoaMi/0xXA77K0j0W5Ie3KXyA0yXYssu42Q+77m7qwVqMLlI+shksY5zE5Ak73X3CQfMdB5afOqxGW4Ucn6vEE7edre0swTjK/s7IVi0iK3jxUjSG2e3u7/gdN5uV8KxSkcsiDzSmFeCrtDGq0fwTfZ5TO29+z67A2rQAvZWSbeT5W56Lz/RYS7HTHoaEsP410aRUgjbwOkCc/lV6JFdvrUXLxCnrGPXgyKY/8qho/FbeYEDuN6lhO4c1wfMYsQpPe5YRDc+1M7zudTcppRsUFLNtRjrcPV+AqeVk0oHAgn5kfo3DLH8q6sTKtHO/vLaRch2Jy7fyM+Yj4NAtk3lpWUjPOtWW/2S2MinaYZPfdw+V4Ij0fO9quYoikacgfZoMLoY+N7jKJw+VIFNmtPTjb0otTrX346kwT3j1Sj7eO1OFPh+rwdEYBnkzLw4p03kfEPVMKqN58WqilsFXyWBUWZdTgUeI36bX4d5L736Y34ZGM5ptBz/M3PP94RoO559L0KqzIKMc65nMzFcXnBR34qqQbfyf+UdqNLTWXcK5/CB30+jwkrerFVby4m0JhYojnMJRmo6GFNAGSStIl4svGNEanZk91h5ks89djFXCzEbWMubEqqdzU4Vwh8+pVHnJH8ExKEZ7ZV40Jv0aOQtje2IVFyfk08nnIuTIMt7x1M49jfhoCpTsh2aMsi03J57CYyu7TExWmN/sFOt9LU+rw9oFKGnmReI1EicRpbXcS4cCDLSP1qiscKhqYMKF63+RUYg3b7vN7q9DjVe+li2Sf8sp2OkpH/IMDRabn7q3dORikzgn6rPAatV311Dg9Yz7BTk7nZgL1ykf81Gmsexfvk1RIvUp9u5F69dKIF18crcPK7U1Yt6OA5akNhR5M/ZveeMq4Olm0Vrzio4uujmJlajFtTDGONPTwnDqWXHwXOnwafWFe230B2pBzWJJRjZf35dPuiPDPz7jq29Wp1vwQQU6QRpwtG91LJ+jZ1CosyWzAv85Vwe+LILv9KhZlFeLJ9AK0DU2asCuVoRUzf/O97wdE5tUbq2WH99b3YD311OtHSkznW4g2xk3n7UxnH9ZSh63alo3srkHT+eZ0r4UGO92xnWWdallorU7lCwE5Fy5jBe355l1VGAkCY9QJb+2vZtuqwd/yWugYi8w7E3nB8RmzCIXWaPJqlDIc4nfFznvCYB4ryAMr8fWZMrgiIMmXs+8x4Ta+oAdnyD0lG0+m5ONcyxWzup30gtMz5iPi0yzEzFsznTVBRbF2CltQT25uR5/p4Vm0vQ6fnqozWzGHfFqKcNIsTaj4J7NFLwvWWm0hSEMdxCSVxwSv1eTErqFhdA2PoH14AhcH3Windy7ou1DaOYCf82vwc3Ezfixpw7+KLuA5Ku6nU3OwPr3MrDs6Fasyq7EqqxZrs+qwnthIbGYe12+vxZqdtViZWYXlGZW8phrrdtZhw44iPLtrD97Zux/l3b1mpQxtemVIjmN5zA2ogSk5nbtdBFmnmsisjUbk7Wrpv3f20ItPKsWB5l6zPGDnpAcbtxbgld216Gc9m1Vq5AWzrrX85L3vBVUPhUCPnQ3dkFuS0LILV7EhpRh/3FMMD2VKZK6PpO6lPUV4LKMWH2bXU9Z0Ld+NZSaSd4Pnfgck+X7jTut5iIR3XZrIUAV2VFwwK/z8I78BK1Ib8cb+OjrfCq+xRqQUqz53yLxCadzopxy+dbAQy1LO4fXDFZRLOZG8jtdoEpTa5146nWuTivFCWg5qNRHWHyB5pUyzXue6Mz4T2OnODWqI5UEnh21inPfZUtxAeVDnRi0uUdf+7UQVllIXLt9dgMte6rwH1EsrhKl3ReY1yVFD7FsrW/B4VhUeTctD66jIu4y+2xAVMxeLOrqf+f38nEZ8a7Ai8xTyLvdTX8kp4T1ZZnISbFghlzc+cy7hdkeCbTIv8nI9dDSC8ov91InNWET9d+D8BQRZr80uHxbvLMPa1EK0DIvMyyHymhGQBzkBVsRsnPnYVtJJp70afz5ahAE6lWZXUrb3Pr7Ps5k5WJaUj39lN2BcZD6uXq06tXHzM+Yr7OR0bkZQG4nSkaet1MpP+893Yfn2Cry0swhu2gUvCf5HR6vxeFo1XsrIxwSfFRL3Udk6wPEZswittBWh/NKnQDBKHc7v/XRCN6cVYTl1wLG2Tjon0mPU+0YHKJpAK+6F8cHxCtM7/5ddlbR5CTI/LRRzKW9YS0PJ8w/63SRHXnyTV08lW45FmXVsgE2Y8FEhKM6cCtlaVk4bkGi4lNAnYW3oIYVj9fZrRQI5Cj6jhKSUboQUlXrI3TyvDYy0Pq42DJH3NcaK1cY3UzFKQRijYIxFtdYuwe8TvMcElf84f1dG5ZZX04i6zl4M0svTMZHVi5N+fHcyxyx95GUewwG+6xwnekpOx28Xfr6rP0wFH3aZ7bPrSYqeSS3GmuRS1AxMmB77PrcPL6YVYFVSJbo9HtOLZvUKuegte/h7EXvn+88GTOyvQr0U60nnwaxQQ0J3tP4S1qWWGkWvXqmQ4ulI6pPKz5PMV2JdZgEujLHhUzY9bOSmFyv+3qrjeVDPMy9by+nR9f0sn9UsgyV0YI/VXzTO+E9FjSTzTXgytQzNfROGzGvZUEPm2a4fNJk3DkXQZeroUgTYmHqaijoHW2o7MURd4WLdeniN2Y8iMIG6/klsTq4k8rCvod3ohoh656mH5oOjdivY6c7bllYGiiBM2Z9AFF/ntGJZahWeySrBEEnezpoLWLS9GqsyS8xyb9ZKMLbjbN/jPpAl6Q8R8CCNOduxtmn/8/FKPLK9AS9v1wQ36WVdJxJq5UVhcy7q9yMtl7FuO52SHVX48qw2ElMIJeWazEB6w94Iy6zicq/f4y4Qv9jDTOCP8L1YZiE6L2bSH0mO2sfeqm6sSavF2pQiVA6MsQwCaJvwYENaLtt+JYrY7sPU25ogqd5baxLqzfe/11C+9NxB2vLXD9RgZXoN9jT0kGvQ9vLd/JQBVzCKgw1d1OMVdFBKUdqrpTUjpl6tiY4aXVRv/YNzQu8F7HRjO7wNyM7RWYrw95pn+MmpMiyj0/7HHTlsR+Rc1AlfHFVkRa3RnaPkd0HqTiciLzg+YxahTpoo88ksmJAf7ZFyrqkPq9MqsCq9Emfbu2m/RNTp5FHOlScP24vk59iFy7QRFXh6WxlKOq7yOrZzvruxg7xOuO78zS/Ep7vvmQ+KUEcwqSHYgHpk3WgnsXv5l2Js2l2NJ/c24KmdlWgfGTGkX5PpfArXIPxEgBUU0CcFyBIWedxWpdiQgpViNmRNnzEoflPx26Y3VYqOedEECC03qGNOkDMRCmj4UJMotGERP3lMoTMBxQdSgQlmGTOSBZGZIT4jrb4dmzKPIq93ABM8FvIrNOMOG9J9gpLT8duFtQa8y5S5i4Zhb716SUrw0vZSDNC4Slmq/j84UodVydU4e/ESr1W9KTbZim8zG7bcqeKZEWJkXs9hvWpys5ywv5+swTo29qzqTiMjJi/8bHP7sYGKa1lGOVJKmknwLRmar2Te6bgFlbndHmgE+bfKx8O/z7T1YmVWrdlc42RzB41gFLndA1iSVkUlWY7a3nH+1m16w622ITlg+d1w//sMtjkf26smsmvd6RVppWZ5ulPNXXwnhRHoPZlfjSawjY/R+fhoXy2vKcd7h0qsnUzdauPqJJjb7XcmsJPTuZlCOlYjpRPRCF5lm15JovfWkSqMsYxOsS0vJplfw/I723nVhDxcW+zg2j107N4bdO0EyscwvyGM0W5soiP+eFYj/sE2bgi6IRVs/2zD0gOhsLX08WXanJd2lWFxZh2e2VGA5kleI5Iapb2hTMsWyJDrvnOZzN/uZEeReXV60fdh/eqYm/UXxd8Osz7Zxp/fXoyWCZ7nuV46br/bU4plKdVIK73I36hDJgJ39MESHenkTncAL+wWaavGwfpu6im2cfNulq3u8gbx7E7KbXIFthW0YNCQd9arIWniEyL3C5PM37ETzzp3Rz2mjIZYhq/vL6MubcY3LD/Zcq1staOsDctI5jelFWCQZN5aDtLhXvcDzGeUPJEUkvkOYZIynZTdhsdTKrEmuQjnRz2UbYUCifS74WfbFkkPk7f0+UN4cXsJdVgJkspbTbigbIR6+83CDtRpNrd0fPYcRny6+5h5Njb11rppEMKBSfhJ6HP6RrA8rQivHa7D7480YD2VRtvIIAsuZHpLTS8tETRePxsd76OQG+tTcXKxnnoSMq0nHaZBjvh9N0Gk3FplRpMyrVUqzBJ6/K21odDNUEy/beil6M3ulsb4U1Ap1Bq+9RNe9cDz0808VwyMYGPqOTy1vQLvH8zHIH/rCY3wt3O78pWcjt8urImPlvMyTDL/8bFqM2nyHznN9H7liEVJhsP49FgNFWo1dtS2w816VgPRxBWFXlmT0u4debKUmp7DvBq5CGGUxujtQw3Ge99V2WaOhwPakdaHcdb19yUNWJZagVd3l6DbJ5mhE0f5iQ8JMkZsHpD56ZW6ytwactTIhC33k3RIDzRcwnKS+RXbclBMJ1VkvvzyCJamllKxV6Ds0ripN9V/UKEYJNEPnswrD2HKW4R1egGLthVhfXIBqrquOJaBwgt2V5OQ/lSEtVvOoX2ITimNv3He53j7nQns5HRuJjDOHXWc4lCHaSlfzCqmc1eL9w6XYswfRvaFLhr0YqxIqcD+lss09Ha5TSXz99jQq10yj9Y68SF0+yNYkZSHRcllONSglUxE2vQu0jn8jLgNmdeu01rVbAsJ6vL0MqzMLKN+6uQ5xeAqjEO984JFWh2fPUdwu/mzyoLfWa/qgZWNHSUJeo/6bhXL7U+/FJkVgOTMaJfPD05UY0VGA7aWXrJkgrpdIzFaBvZBlY06ICqvjmI9ZXBlcimON9BpV7gnYZE1L0aZ128KW7A8pRwvpGWjccwD7TxvcQryB3W+GRl1fsZ8hJ3uuIOM7ckTleMbQOuYyywisILtPqmsle1FcxKCOHfhihmpWZ9qOX3WalIO97oPkPOteowScsKHWQQfHazBoiw66HTq+2kTvNIPERcd13GSeeaVeiJKMq9Oih9KLphFEl6iw9rhsUbhNfdKo06K/DAj+3dalg8Q8emuyLyMp4i8SIIIsC8QNj1+PxY34fG0Wvx5Xzl+d/Q8jUMRii9PsLBEnvlb9WjHQSTR9HJPJU36Owb1oFjLEcUjdg9WgoTaIvZSAMqbyJkTrHzbToCIvFlyksfMPXnsmodmnBSShuourFF8dX49ntlyEu3j/I0mTPJ3N+R3jkHJ6fjtQnHvpqzZONpIhJ5O1xJWtciqvGiNYJDMa+jqi6MVWJFchfePlNG40kjEvF6tDR26x8s+qs4tWWL90fhoDfIrvhA2quc2vRzHG7tJ4Cx5sXqmg6geHKOTVoiVVFh7W/owHqEjp55HDeOqsZsGb8HpmXMFSqZdOUIyapN5yj/fXYp8jMovtagFS1KrsC45B30RmOHpWhrO1alFZujyQFWHGZVRmYZInrSbrtXenJ5zn6D6IxEfJin5y75CLE0pweaks3SwrRj5qdfrnU+2XcLqpEKsTqlCRkmbmZMTkWPnn9vtdyaw0/T1Pz1E0IKUB4WXqAe3jw7uc5lFJL1V+OxYGdt2BC1jk9i0nWWX2YB/5jVgLEbmTeiF3UYM7i2ZV14VNiFCoR64ffVapaIa69NKUNk3EjPIbuoor+nBF5kPk8xHQ5OUdw8aJ33YkJKLZdvr8M6hKhOOad6feoA+C59B8jrH9fmNDtQMQDIv/SvnR5vlSC/WsX2/kJqPNSml+OJEBXUeGxLLTcs6/u1sLZZnNuKt/TV02rQJk0bPWbdsLw+EzBsHLowz7Vexinp8bXKx6aUPGDJP543kLaLQT7bx3M5Btu9COin52FLYQIKv3niLM4jQL1Qy73RuRmC9ivy6aes0cVhzp2Qnt1e1sn1F2Z7DKO0eMmW+Kq0Kh2k/TRgbYbf5m+45y4h/jhlhYtsG27L2Pmgd8uA5tv0ndjbh09NNGKcOU0euHNgI27zkVro/ovBgvmf+lVFsyCjA46ml2N/YY+Y+GoeebUo6YK7b+OkQn2aHzLNwNQzvpUFVj+efdmfjsbQ6bKnqxe+ONJud5TLLLtIIK5Z5bipM0/tAYqqVO0xYD//WigljVGhvHao1YSVJdRewOaUYZ1t7aOhY+VQUTveaC1AjUHI6d/twmVAkGdGj7ZdpCCqxJKUaJWwgUgoeQ+aDSCpuw4qkKvzpUCVGAiLzJApUFlp9IsJ73LYxmiEkh2q4FpnnMeZVMbXt4x6sSSvHWhoCrUlsTVwOUma9Zo7FEGX27X2leCKpEb/fW4ke5k9xhGbUiPc0yiTuOXMVt65nO8xGCosKnOU0QuL+6cFiM4z6TFou+qnAVWatwxPYnJZHolSFpJJWuFh3ZmSFBNqsVMUydH7G/YHpPWEdX5z04pXdJSSeJfjzzhyz70E8odWGWAasw16+67Mp57AipY4GIB8XRidI5v2I+OenAo+HnZzO3QpGxmNkXj24/dEoNqfnY3FqGf5+vARBOnDaOfG5zLNYmlaPj8+SzCs0xRD5WPswkPN778m8mQBLgz7OZ318vIqOaCNe2VFiZFfXhEhKZfS1spqIbIRkHsFxY9AHSE4+OlKO5Xy3jWlFqBty8Z2lmyhPlA/TE206cpyff7u4XjYWnK65Xdwu4VBbEZnXpkDa+VUjj/m9w1iXRDKfXITd9XTWeS7qH6MMhHGw7YqJkX5pZznrnUVHe65yfGCjFiy3SeqkbQV1WJJcgtVbczGkEXTaFQ9tkZYqDNFpU91d9Qbxu11FWEJ9/2zqGepyOrh8J5H5CO+RCLO5EVp0RLpxEmFsLaLdTi6nXc9FweVBtguR+Sj6/Gz7qUXkbw04fGHwWpjNbMr0ryH+OUZXsa4jkXHTQ1877KZdL8PSrAbDOxTq7We+feSjGnn3h9Sm9XvKB3/XSxn488FSPJpahQ+PVGBAYUOUa00AVvTHfJWP+HTXZF4EwJB5wk2D2uvT2s5n6AFVI6v5Ml4/3kilW4bk0nb4/BQiYi6SYM3a13rLXvVG8J009CiPvmlwEisza/HXM7VoGPeSHFZiW/l507snYXC611yBktPx2wbLxiMSSGP3VV4tGwSN6J5yDPo0G15yYIVZnaaTs5SNRbtGNo9S0fJ6GcsQzysGz/Heswg9T3Wn8CstoXmoqRMr6L1vTMlBg8g868ycozLwscFrHerUsg6s3FaPVakFOH1lkB675cxpgraG39VbN9eH35R+XanHyDzfSQ6Pl3XVT2X9/j6R4Tq8kplLch81E58GAxG8c6ACy9Kq8deTdSa+UCFtIsYKRXuQE2Cl2EOsV7/fg7L+CaygoVnOevs5u9qsK+9I5lmXg3zfH/LqSOZLrKH6pl7KgsIC57+Bt9OdOMoykGbZWRppreVd0z+KtSnZeJzEKSm3FmGSeS0A8Na+AixJb8KLu4txRev0GzIvWMb2/pF5rR/tpePmwx9+KcMTaW344vR5U7+6xrR/OSY06OrFV69tNDyOaMRleuIONHZjk4gsdfj3xRcxHlUnw4QJ91QZmMmzsefdLa6XjQWna24Xt0vmpbtUr9okShNGNWftu4J6rM4qx9rkApQM0qEhIQbJvO59tO0ylmTVYFNmMeopC9otN0AyZIjUlHvfH5Bsst7+caYayzKrsSGJeoq6SARNDqhWxQtEpeutSa4/F7fgicwqrE3Nw/HzmhBJUiqdb3rp539bj4ednM7dCpJHs4Ig7QGpMb4r7MDSbVVYn3QSTcMTxp4HqPdHyYVeTs7BorQWpNZcofxc//1syfSvwX6OoA5Bhe0GoqOGpO9u6CEvq6TdrsaBum7yNur8WNs3KzDRlqmXXr3ymjsih3Zn1UWsTC3HU6k5aHKpUy9ilrpUT7+WOp3L82WmQ3y6azKv3j4rFjcAF8lwdscVrKLCfIJG80zXAN47VoPlGTXYWt4JD8l+2Gv1rDnd70EiTKMmYyBSqrjgcGiMguBHRvkFPEKCuq2oFr2TbqzJrMDv9uai3x/idZaCuB+CfSdQcjp+u1B4ijvsxwDreFPmOfwmrRFfZTeS4LMxmLqMmDCbvLZuLGG9ryVpqqKhkAEAfxvmebOU2JT7ziZkjNQzp3j3SMDNxu3DVo0UpFdg/daTaBxn/TL/WlnHbIJCUuimUSjuHcOTW8vMEOMHx4v5jpozEXPu1MjNva8TF6dnP2jcup4tMq/2aiYx8/07fBG8u68cy1Jr8bY2jqHhk0Ec4+dfSPKXpFfTKJ5Cb1Br97KdSzGyDs2ckxvuff+g8jeT1kkkz3aP0nBXYxUdx7NtvUYWnRwaHZsMRXGy6SLWJ5/C41vK8V6mNsohAaDMzuV6nQns5PTut4JF0CznVrouv6OHRLcEizKqcLazn+etVcJ+LDxP4txAechFt8si8wpnsdqceupZfmx3Ts+YTahDIEiC3jw8RqNMMp9cj5TSNhMep+eb92GdqkdWeYtKj7ONB2jM1fN8yRPBS2l5JLN1+P2eCvT6lf9J3lO/4/1JbG1ZuEEmeM6eS2NW1LFhn3eALVc2nK6511B5SMYV9675Awqte3NvmQmB3ZiUjS4P34dkHyEXdbSXtrsPS2jfVrNN5fC7l3bdw7pW27/V+949LLkKUQ6NfEnn8vt4NIIn03LxeGYNPj5RiTHVNetTC12YURith089rU640oExLNtZhMe3l+CDYyXU5ZrISXLH+9v3vNHpVb3MT5JvpzuRLf1GMfEKfx0hmX99ZyFWpNTj5R3Z6PGo881amGSc5fd7Et9FGe346HiDcQzt399PmdazwrTLaqc+jGEyGsB3RS1YTsdtc1oF6oforrLtSh40sm5tCsd61ggOr9UcGslS04gLT6YUYl1aIbaVtmCE76kyiBqHT47rg2mnd4P4dNcTYNXTZ5F59d6GkFTSbkIwVtMo9JLwbi1pw9KkCrxztAoTJAomTpW/cbzXA4SIoHpmtMxlUBMogsPo9vmwIfkkDUc+WobHMeGP4J0z9VifVYSWEXqwMaG+n4J9O1CajbyJQLn4md8zhCVppfTUa/FLXRffP2p65s3yX2wMHRNerEopIsqwr/oiyzNkyL7IvOVZ37ty0qoFYcXKRWSYJqH18P9ysBpL6Lm/dagCV9Rbx7xE/Rox0PUyzC6z8+9nRxpMb92TKedQ108njnnVUJ3pnacCset4Ltez0/HrsCaHW060RlhCaBgax1OphVhGkvb12WYzTCnCI1L/wf4ikrdqrEjNRjcVnpwj3UOjHmbJzwfYfkN0xjzUIT8Xt2JxVhPWpOeidnCUxtzSQfZ1dh7lmLlI3Hv8frx3uABLtlXiqeRy1A1OGgdU9asenevrp8893fRrsJPTuZlAOkwjNSLzOe29WJpcQSepFrmdV9mWrPXakwqasTS9wWzQVN03zDJTD5nIvHrL1evJexmydPP9Zw9se6wnhevtqbqIRVnnsTy5DKdbe5l/S7dY+5Vcb6PSTXL8/FEffxeENrfTpnbL6OA/mV6EysFx896aCBvhOyksx/79DW3dyIgFfdf72rh2zX3A7fbMK3+2bGvljiG28Y1JOXg8owlvH6nBMNuzQieiJD9yfC54Q1ieVUqSVIoj53ssuWA5qIfz3pN5dZjEk3nKF79rlaIV6hzcXot/nqsysdGy0yLoCg3TSI2ZmB+MoC8KvHqsDL/ZUYJ1O3JQNjjGe2kCrDpwrHsmyLzKN2bLWJZXEMULGTlYmVKJ9w8XmxFardUe5rkJ4jO2l99mXMB7RxpNyJPT/e4HzMifSHl0EgPRIJ7eUYwlWQ14PSsP/aOajxnrZJIMmTYqB0Dknt/5O7V/rbz3533FWMS2vy4zG9Wa1Ks5I1oUQ7Jxz2V89hGf7o7Ms7BMzKUKkorTTUP/2clGev7NePNkKyZ8fhwi6dNQyNMZp80usBomn4sGU72vIqRaqzQcHIcnMI79rX1YllmGL/Mb4PKH4Q5E8dFJTbqrQmlPvxGcaw3D4Z4PEsqT0mzkTXWsTbx+ruzAY+n1WJtWjMYhbSIk716hDBrNCGAgEMCm1AIsZX1nlF2IlaXVe6fGdG9HZCwyH4xM8nkk6YEQXjvQRDJfiw+PllFJ6TwbtUYKmA9r8rLbOG8FPaN4Kr0Uq5OK8O2pKrMKjjXZeu7JqROUnI5fh8i8jF5s6UYS3+rBEbNSweK0evwzuwWKQfWyTDSsnVQs8laLVSyTcxd7SdgmrNWjTDtnfavdPyC5D/m0ekUEb2p3wqRa/PFwGTolVwqZiZOvGx0OymbUj90NF1jHpSQzjfjybD0meFzE1CLyQb6f12A+KXU73WldiMxbvbcBnLx4GUvTqrCYZLew44oxiEHKReHlcSynA780tYJOehsNoEizykqOvmXg1Ss29d6zDRMDTl30Y8lFPLK9FWtI8lpGJpl/S99NlUkRPhl2hWJE+V3b1h9vuUzHvRjLKPs/FTWbnt4o8x4VQRRZiP0+/j4ixdZIHcHv9qeZnxO75n7gdp0H63q+B8tA8whqhtxYnVqKRZmNJGk1GI+GTV2KzIO4QjK8ensBnsgqxz9Pl/E3InZWG7nXjovVaXId5hjzpnXBl6eUYnFmNVKK6mlT2FYle6wfM1oS4feAyH2IeiGMPa2X8Hh6Ph7bVYUfyjXnh05aRB11ks8EmResdkJbwHZfPzaBZzPysCa1Cl+frWJ7AMvS6rHWHLnviy/gse1teDazEF3j93YRi1+DkQm2T0/Ug8qBEdqmEjxBOf5gf7FZeTDEujcOoM3JWLdqo+qQ0Epdar/aHGtP4yU8kVaGZRlFSK/VviMk89rI1Dh8Nz93riM+3XXPvIiBNpuRkW+fcGFjciEeYyFvKWmDlwTgdO1FrCExWJdVgk6S+Zsb1NyAhqn1HpokFPGP4Cor//eHavEojdve6la+X8gsq/nN6SosSW/E3/O0CZGlDNSTawSBhsYo+Pus5KeD0p009qnQUp9XNMHoQDUVZQPe3FtIcm8ReBFklZk2FJrgs17fX8Vr6vH+wTKM0xhYW6ersfFe96hcrBADTWbTyhWULT7n/PAE5Y5GO6UGGRVtcJnhN4JE3WxRLlLK32mDoSvM31v02FcmleHZpAJ0eUImvlyruDg9b65Byem4DYXWaE31a2Sejo9W8tEqPstSa/BzXjMVpTXxV7vgHqzXXINKrMqswAkaR61CJafNiju12u5syNWdQLvRXqJjvTk1z4z4vUtHbSAapUH/FTLv92IcAdRNeLBxWz4epbP50p5iE2ZgJvixbBRfbOZHsAxEcK/9do7DTk7nbg3VuTURTkPovzR209BRv6UUoLS9l+Wh4ecAqq6OYVVKOR28emRVd5mlHhXmoHZk7Seh8rq3Ot0QasrxOPP04o5C/EdGE97YV4Z+bUZo6k0ExYL9G0O4dYwGPULdLGe0xxPAq7vKSAQa8OKuIrPfhIbl1eOvnSXt38ffR8++jthxtRd93kfczvOUf7P9vsqGZEbL8x1ouWRWKnoivRp7my9Z67XzGq10Ew26zWTnjVnn6ChV4ctzNWYzQGvU4nr5Oj1rNmDfP/45ciSP1V/C4uRKyl45Ci4N8ByvN/mx5Nb0xAYUdkOnnHXSOuHF05l5+O2Oejy/Ix+95CT2PgILkcw7nbsVrDIOms62U+09WJeci1XbSkl0u6E15iPUrwo9EdnfVtKCx9lW1qXRcR57gGSedReM+jGBCA629mFpRjXluB4Z5Z2UA+ojysp1Mq/OhpBpqxp50uicZFw8rXXCj3U7+Fs6h6/uzDG72Wv5yrAcPrYHp2fPZcSnWSDzYXhpTEXqDzWSBCTT69leg+LeYQpDENnVLSQN1fSEanG2a4AF73yfBw8vhVsCIcI3gqKrCikpISpQd2XEUga+II61DGJRRgN+rxgyQ/ikVKzeAvVgq9dmLpB5CbKS07nbAt/FFQmjeciFFSn5WELyl1RYZxqMFKMIkMi8YtAn+cyvspvxaFYTG0oBrtBjVk+KhsHvpdcrIye50gYRZriNhL1hxI0VGQVYRoIuQqqeaUPmQ5oUxYZOMmImb9PQjbCxH2zrw+qUCqxOqsbOsgsmVlhLOlohYbdJVKbIgMmffU6wzxOzQQhuVc9ySqyeeYVUyIBHUNE/jhVslxo1yyxsMrKrOhTpz2u7hDWpRWyzFfguv9GMXkiuRaTvNWm7FTRyoImMa1OKsSatDHtISkY1LMw6vaHMbTLPY+rNd0U86GFb/eCAVkGpwIr0IhzrGDLr7ctZ0S6ghvxRRmwyMR9gJ6dzt4bIvOLL1XMbwJcnqsy6zevYbjrHJw0ZDKvcqPde2EUSmNaIt/daQ/ERtrMo5cGMyokc3GO5MESaz7nMut68k2R8RwO+z2tgO5XOdibz1lwX9cxpyF0b5FCXhUHnvhvLMuuwmqRVo69acs8K0bv++/j7SHfFx8zb7fmGa+4DrjkSM4BVFtacHy3pN0YS9H1+kyFBK1JLUHplmO9gzTFSOYWDLoySEL26O9sQ4dcPlGPQHyKRV4eNSNKNZXsvYD3DDpUimP/dFZ1m8vUKtvXSrj7mxU2SrzhoKy/GLlNvGSLH91AoyNaiZqzcrh1uS5DdPmj0nX3NzfprfpP525GJeCgkzRMB9jR0YDXlYa0WBmjrMTYRPoWeWIR4f30HFqeVU18WoP4BknkTB886H2CePz5eYToVl9N25XWIU9ohvGrvql99F+ewPiUjpuedn1qd8P0TzXynSqxKyUNO9yA8fhd1nSIN5kfnXTzi012G2RAiCPw+QZL06alaFnANnt5Rgk7tssfjLVfHsDJFs9HrcfRiP9zxv59LsNeN5ztNUvH/VNyIJRnleHZ3JXrH6bVpx1cKeG7nEB5PUyx2HgZ9fHfNrqei0M63RmHEEYoHDSWn49PBGEySINWbenCN4gu44eJnenUnHkurwcqkQpK9y8ZIRAOaWOmDW8PT/K5JiBkljazrGmzcXobzo5p0quXRolQcMro3P3M2oHpTrLzyr54mDant10o2WWVYQwek+sogjbh6bhQbp3pWXrTngVZqYL5J8i55/PjdDjkrTXhtVwk6/Nr5VMPrfDdeZxmCGTR2kUchwLIk9LcIgD0BVZ9GufhV1hr1mPL7O8Ct6ll1qph5Pc/D99bSY7sqzmNZSi3LpwpFXcOIUH4thejFEBX6k6k5dMqr8eeDJTTyMobKP8/L+Jvr+LdNmO8jhqi4fy66aJyQtVTGR8930tlQ+B7PC1N/w2Oap+OJuDGOEE5fGMCqpDw8kVmOtw5VGofTxOCSzGjkQesri/Q53msOwk5O524NkXEr5l1hGJ8er8MjJLmbtxdgJMpyiSr0ZBJj0SDe2KuQrGb8YVcx+jWPgs5T1EyMVg8eSZh0xU33n114KYfFvUNYRWKxmM7Y8dZu5lsT42xjfl02re8ioTLwVu+cvktH1QxMUo9RBrY34i8nGmi7gnROtISdM5nXd0GdARGBNm9iaBhBD21C7Jr7gdsl89pJXXpaRGYEUZKgMtq0CjyZWYSrLAcr/EQOncrGjUnW83eFzfgNy2VD6jn0eXUf6jJ1hMTKwOlZswGr7akeY/Upks36/pJOhcJ2n9xVg8vUmdGgQim1lKqccKtMNEKuMDF9147tBVp+M60AKzPq8d6hOvTFOm3Uzs3Irdq3KUv95jbJvH5rfq9nW7jpGsG+LnbtbMNOd6qnFMLkJjH++5lKrEyvxLqkYjS5ZJ8CJPMEuY6WgKwZdmF5SgFteiEqRx8cmQ/LXrMs2zwBE+P/eEYzZbQUgyTnZkELo39kn/Up+65OBtWPZMnS8UYX8Pq8nhEzD3JJVhX+ltOMcV5r5tbMxL7PMcSnu58AS5Kr2e5XA2G8sKcSS1Pq8M7+YhpYFiKNvWYML9vG4xmN+PZMNcbZIEVqHO/1AKFJniLlmjDXR0F+JjMbi1LL8JfDFWYugHaklTIvv9SP5enlWJxRhnMkEi4qg1BAQ3nq2bTf7d4btltBilfJ6dyvQYTPkE42BJFklYlWQXj/cLkZ1nqSTkwvlbw2hNJuqh5e5zFk3gPtmJvXeQXL0qqwnN588WUaPE1OogzI4N+rejdOGI2Rid9Xo2R9pde0YVlWBdZvO4vLzIMrIjKvDSW0HFus1109+drMiu+sXe92NXRhsbaHTi1Hbs+gkQXtnCjSfzOZdzZseseJKImHlHisLHUf+7vKS59aM1tlbZN8p3vNBDOpZ+M0GEUmQqSViSJIzqtmHTVhPR20uv5J5kdOjoidD6N0bp5NPYUnsmrwyoEK9JK4WatW8X5SkDGj/iDI/BUa+7cPVGJ5aj02pJw2YRIeEnIz/O5wvSAZ9NDZ80bd6J4MkJAW4nG24RVbs1HRP2bqRG3Y6s0hyTHv9eDb8ExgJ6dzt4bqUT3zXhr2ID4gsf1tZgM2ZeZi2GzKQxIXGacTFMS7+7XyUSNe2VlJXa9J0RqtUdyyyDy/O95/FkGZm4xGsa+xC8sySmiMc3FBPYVRrScdMr3vksvrhFPfrXrUMXNew+iUn/5ABH/cmY/FfNe16WW4MKwNpnzwRZ1XsxFhixAmBj/gRUdFNXZ//U/UHDzKvz1wkSxrkqg2ZJO+1OpP1iQ86z7xeZpOb8wIknHpEqdzU6BnWr3XARJgHzrdXjyZdY5lV4X39hZhjG1cebQ29BORpsNPB+7n/Doz52lJRilqroyb30vv3fgesw8RccmQz4TiKsxDu1RH8f7RJjye2oKX2WbH2DYVMuOl0yGZu07mqYuUP+WV5TPI3/3lSIXZ+G59Uj5qxrQ3gcrEw3cWX5E+tMLDrKWHnfPkCP5Wv9d3M+qh+uDfFnG8/j0ept7s388S7OR07lYwdcn2ro3BvjhViRUZdXgypQQ96rThuaifDitlQiFWjSMTtIckvnSet1edN+et+1jlbZXdvZMLG5rErBDQsv5RbCIHWZTehM9ytE9CfJifoO8i89ILsnk6L2eO9yHC5KlDPPanI1V4fEc9ns4qRo8nJkv3oJ7uNeLTXffMK1ZaZL6k/TI9YZI4GtldVe1GeUrxjbFQVyRVY3FaA744XIYxs6Sjw70eMEyIDIXBS3J+uu0SVmSW0RutxJHmXiO0mmAh5TdCRf38zgosTavGP05XYtgYfy+FRMpcpGduEAGVsZLTuelgGqapU61QJGKs40F0TvrwYqZ6ravx4fEaKlUZbxJh1ruIkIiryLwaTUXnVaxKqWJ91+JQaz+dfBJnKgZrmPPG580epJBlRC0yr5VZ3j1SRDJaQeJWQO9dPTbWOfXMyxDIC/fzHUIBElk/iSzfoX5sEhu3F9JRa8YXx+rhp+MpJ83y2GdG5lV+6nVX+bl8LrjGxuAdHUfIQxnxq4dchNq6zpS10z1uE7esZz7nWs+8qbMItuRqQmMT1rGu6vsnYmWgCW90fFiPn2bXmuXg1qYVoHpglO3CGoFTOdlG/d6SeTlRN5aPvl8gKXkhs5iOyHk8m0FHjY6inEjpIMeyjJWzJ6IevQm4eO220gtYnFpqJtZtK6w3ewsE+f4KGRQxjEqWH4Cjciewk9O5mUD17VevLNvEu6ea8Eh6I57cUWDip0V+wuFxjNBgfpfThNUp1diUVImWvjHjOGv1I/WKyQnU3073nzVQ5kaiwGcnyrAooxwv7CoxK1YpDCREEqpVUKyVUOx2qU+nNhowYYMH67pJ5KuwiIT+lwrp+CBJojbBm3o9Ye5JO0dd0N7WjPy//YTqT/6F5r/+HRcL8+H2D2OivxeuiUG4/OPMl4tlKifCZ+zg9XtNl6eZwdTVlGO/Bqs3WosUBFA7PIFVWfkkbpXYXtJiRjn81MsaYVHIlJYq1MpFeZeGsCa5FI9vr8JhlpFx8J3KZJahTgTFvXvZng2ZD7jRPurBhuRCLGJb//JcvdFLKgPpT7VTx/vQ3niCERyi07c2Oc9M+N1R14ExjTSFXYjQqVfvvJcyoLqQzXe6z7SIlYVIvFZL0iiw1Yasz2vyE/vUMXN8lmGnO3Gw7N/Ijv/5SD2WZzbhq7PnzdwjjVqbddfVpllOV1mef9hXgcXp5Ugmr1PZG8fP2AqNVMk5Ul3cuVzPBFqYwEU9nV59AcvZ/uWU7qZ8mt52vo+N622MMHWi7/b8CutvyXRB9yBWaSfk9FKcoKxMirtNI1NzGfHprsi8FIt21FTPbNGFHixNrzHEvZgKQeROS9ppOcqVyTVskA34+EApxgLO60E/cFCRaBOFCQrvl8eK8WhWHZ2TclT3DFGQSEb5Hmr4Hu84PjnWhDUkq69qApXLatBhE26kzSukHO4lcZ0ZJNhKTuduDeafhku9sW4KeU77INYnF2BVWjn2NlwieSIJpsHy0tibGGz+RmRa9TpBEvA0DcbjqQ34Zy6NhlEObHCG7N8bg6/nChG/8uM1qya9sjefRr8CX5+shItlod5xGS+FQxlSqmE7EvsQ3yUaUIiFiwTGj+/LWqi4GvAKlUXfhMJweB1/eztkXsPvLbklSNn4Gj7/fz6Kt/7f/4HkP32IvtpmhH0iQbFebnPfu4eSraAdwedoQq8ZaeE7aKnGTwvbjHP2UlYhukZJdGUoRWR5vS8YxXeFNWay3PLUWhQOTMAT0lq+lHHKg10WN5L5X3n+bUOOh+SPJFxtj58iGz4aevXMLNuWg6UkYX89XIZ+tjltRa/wPV1veukEO298d/XmKeZSjpx2B24cmMSGpBwsSanE7/bkoZ3XaYOkIJ0wT3SccsTfzlLd3GvY6U4Jl+lRj3gxzHd//Ygm/DfgpV+KMcJy1dB0KDyJCRKhPXUiR5VYs7UcDSTzIl4yfrZxvNdkXsb4ciCEV7LOYklmGb4uaIUmt0WI4G2ReSGI5sFJbM4soZ5vwFt7qjDiVW/liGM5iqh5o9SF6pU/fx5nvyaZ/5J4+ysUfPg1qjJ3ouj9r1DyzRb01dfhQnMNf6dRDeVnpnmaAW5TJs0oZczZOtzUgRVZJVidVowTTdThJjxJK3wJVj2qJ7/y6ijWaJJ4ZgV2VHXzmMIYnO8/m5BuUjtVfLsIpchbw5Aba1NLDHdIq75I3c48S4/xvaYrR/XERvi+veqAysjlO9fio1PVGBB5J5GP0KG39iNRuVg9sk73+TWYMMoYbLIuGRF0Xn+bc7qG36f+fjZgJ6dzM0WvaxLr6PAsI5f5uajZOMsamdRIjRwq1YHmUbx1UJEV1fi+tMOM4Gl1GLecfdaBwjPvB5kXaR+LRvDB0XITKrY6vRjlA+NmBSo7BOxXbeA18Dq+2xBl5JXtOVhBTvMV76lRiukcxLmM+HTXZF7hNGNUAj+eq8AjqRV4IbMcV3zqyRbB1VBZBC/sqsUSete/09bbbqvHzel+DxLaGEmNr21kHJu3ncBvMuvw3I5CDCumVoQiEkGECkAx5DvKL5henY07ylGkuHAS+TCNoXr1fSQN97YXemaQYCs5nZsebAxUliaeXHMIWLfaWTOtqIVebDHWkNA3jGtlk3E2eJItNiQ1aClYbdCgZcK06dYrNJKPkcx/fLbZ9ILJwzdL/jk+8+4hedJE24jfTSXjNcvVPZmVj8VUQFtz61gnVP6sI42ciCRqCUa9o+pKf8vpVFy8i/msHBozPTrrt1Ug++JVS+FTLmZK5nXt2aTt+OR/rEL+95kY6e2D63I/DtLw//m/LUFPTZPVC8ZrbeLpdJ/bgalnk8fpIUfGJvOKG35mF8snpRxv7i81xM2sIc931eiGyHxW3UUsTy7F0pRaZFR1snxdPK48XyfzNz5jJop0phCZtsi8RgTkRCvEwUtdUnBlAsuSCs2uzMlsh0M0Klp72jiVMdxM5i2janZ1pqwO0yn4SPN70iuwJvUsSkbGSORJSP2UX5J59e5Z7WBqvuYe7OR0biZQj6iHst85Mkq5P4cnMprwXXWvabfWqiHaeCWMg/UdWJdShhXJ1ai8rPW7Vc4iQyKMMvyx8r5HECmtG3VhXdIZrMgoRmb1Bda19A5hCAbrmHZoJsRZPaoKNfsiuwGLttdjVXIJirsGKWNar/rm6/UMP0mNnzZAk/l7Ojox2NWF3J27cPbv36Dhl30ofPMTVLzxKfJeeQ/Zf/wrOmprTNkYxzSWJ2vRgOvE43peZ4bbv94qN61Qkll1kSRIztgZNFM/ihiLNJtdrqkbFEKq67sm/XhxZykey6rEXw6UUieK5PB+gsMzZgUmn9YkZdkcE7rF40fPa7S/nHqqCocu9PI6hQQpzyLLzmWhNdKjPp0PYm/TFSwnH9mYegZVwxO0Dax7s3Sx9oixHB3H+v41mLzGdA3lTTCknZDeEbG0FlqQkyt9qd/cXr3NBHZyOjcTqLzb3V46S4XUpyU40zmICda15eCxbOQk05mf4OdfD1ZgeUY9XttTbpYFlq20wpQ06mM59bOr/2+GJj3385kvbc81Kxv9fn85+tTBatq92r8Fp9/eCNYXZV775iQXN2IFOetLWRXompDsOF0/txGf7prMT1Ko+9jAnj1UiX/LrMS3x8op0JqgInKsWMwIvstrwfKUFjxBYtAxph5a5/s9SIiMB0hksmrbzHKGi+ixZZaSjJLkSLDDFOxoUMo8gkLFhWcVYMnOGnxb3YKAP2Rijn0iPDR+cgycnnG/oeR0fDpogqO13CaJGsm8hwpKa66/vSsHy9NK8PrBGlxlXUeCE2zw6iFhuZkGre/aLlyNPIh/5p7HotR6PJmWgxEpYJadFaN+b8pFciinUg6GyHzVVRKT9EKzasnZtj5eo1EXKlb1KhuSKNlkfcUcL4WD6RqNMmny5+ena7E2qQJfkvCNB0hUAnqGzvOT97GWtZRzYH23nDd90qkYG8fX/20Vig4dw5hrDMPdvfBcGYCvfwg7fvcRsv70CeVFv7MUvUio8u/0XjOF0q8aej5LZN68N9/DxTpdk3wKS9Mq8OlJbeYmxayeWCpyvot68soGRrFym3pt6vBjQRONuu6lnvmYfBjEP2c2lbnKV0PuVnmblUh4zEUlvK2gGSvphGygQi8ZmDBrS7ujbJdyzmRgY+UZT+YtAmCTAB/GgmEcoFysSaMhIzFMr2+HLyAyL/mxwm2Mk8oyvV0Cdb9hJ6dzM4HiYt1sn53jLqxOyjEr1vxc2QWvyKveXWVK/VfUPUiyX0hDWocCknnpREOu1C7Y9izi6vyM2YAI3s6aduqhYqzLKkQ1nW6LVIloWzIpw379NzrmXHci89Jzx1p7sJZkb3FmHb7JrjMy42TQJQuyaXJaROhdbAPuoWE05+RjbKAHI8FhNJXlo70gH6c//gonf/cuOmqq+TuNCFHm9HsDkcfrcnXbsqXrmXfHcw5Qh5rqRjHk75GYaznOV3cVotdrhZlYPZHKk+qRepzlN8628tq+YpL5cry+vwJjWtyEtvy+kHmSRH2qTl3REFLpgGiDr5V0IqvHRMJ1vcik2vF0ZRei96G47xCaJ3x4MjOHtiAPyWVtGFEYSVRx81rCmHpuSvnH18tUXLvOlKlG8CzdLbsSdVGnXh7A2OUrcA0MIeLxmRFYyZNHv70HZWenO7WpcmSqRtxmvXbtiFrdP842ITuiFYzoVEUpF6x3zU/4Ob8NK9Mb8MKOSgzSMQxr5Rdep1EUy4m3nFSn58waqG/qtINrRhGWp5biqzO1ZiTBXv3opnqaFrzOdGx50DA8Ro5SijUpdfil/CLcGpF1/M3cRXy6ezJPhVVDw7+Cjf/fSA6ONvaxslVYmljoJcEL46fcJhLkJiwimb9IMn+35OVeIEwCrl6XT05UYWlqHdZllqB5jMqFFR+gYQuTJGpSiHrfW4bdZob34+mVeOd0JbxUHArX8IV5ventffBCIcFWmpmAx0ClY2K6jcC7qIh8KLs6gqdSzpGcFyO18DyJjpbf1IoONOBSUjIuhDUJVb8P4MeiaixNodebUoxOrfYTI2aOz5wF2ORNvS2+iAcn2jVJWb2uJSi9cAkeo3DkaIioWk7mtSUnmXcpZAths7JNfkcfNiYXY21qAfLpuKkHUsZfYVQmVIe/syaE8jvvpVAcKYmwP4iKY6eRsfxFuEYHcam6Ft/81xXIeOo1eEaGcbWsCV/9Xx+lvFgrYsiwm/j5Ke9zu1D6VSOvc8y3ReZFiknmU89hWWoZdjdryF2r1ci4q1dGJD2E+qFxbErJxZK0SnyT34xJXqOeeUtp32syL7IlmeE9WU8hOso6NkpH65uc81iRXI5naYCaRxVHyTpju1W7k3PkROaDdMh8dGCMoxqQ0xlGqzeIl3cVkLyW4N0j5SQxJAl06tz8vTX6MLvvc69gJ6dzM4FWcVCPZfu4m0atAIuS67CNhs2so24Iu9p5AJd8QaxLysOiNK3tfNFMPBMhkLzcLzL/ydEyPJ5RhWd2F6PHR/lj3j0kG9oYxiLz8XWm7851KGKtyXC9Xi/+/EslHsmsx7M78zEqZ99BX9oEXATGxBOTxJSn7EHzt1moOn6CbWPShKG5g6NwDfVipO0827c1GXZWyfxt2hWNZnn4vE63Dy9n5eGx9GZ8cLIOY6w7zXdQvVmjKzEyzzakEboPT2u+TDmJcAE6aeuMjpKun3L/WYPaHMtCixPYNmiUefxbXovpcFhP8tY0Mc48StZIyFnv04WvSA75BcwynRjgbzkV2JBZhFd3FKOddtpDJyFIMmrCJ6e8U3y9TMX1+1+/XiN+w509yMvYi/ceW4uX/+cT+P2jK7Dzy2/Q33LRhFsau3cPys5OTudmArWnzKoOOufF+MPhalwNaO4f+QL/M4tEyNnjdy1VfKDpElZn1GMDbWoz+VtE5cffW3Hzut9tyvEdwM16ze4exJrMaqxOK8OB+nbqLWvn+dt5vnEEaX/1XR1Bnx+tMWT+zZ0lsSgM59/NVcSnuybzEyzkX2o6zHKNv9VasL0jpudDcWnmGhLhpJwGEocGLGGhtYxbsdVT7/WgoXCLKz4/XswoxZLkGrx9sNzsIqqVCTT0FCJJ1MomIhn93hD+cJDvs52kPy0HQz6SoZCGLkVwROwe/OiDFJCS07npofdjQyfxE4GapINzqLEbT6cXkpjnIbdryFwjzzZkBP9m4yICdpwEeDkdt2VJpcjv6uVxEbN7WO80cqo/4zREfNhS1EQlVYVNmcVmgrImf2q1G4XXKA8Wmbd/q78t6LsI7RV/BJ8cr8fapGJ8dqwSI0ZpiCBa1whmrghJsRlG5XO1qVjYE0D5/iM4sv5N+H2TKDt8DB//L/+GH/9/qzDRfxWTdBL+9n97DGG3llijEaWy1AjHtbzcIZTiDc5NMO9rDV2LrIz6w1idnoPldHYOt9LZkYyL7JqeFpGkAPpp+P6wp4QOeKkxqlrL3ZINybbkXIh/zuwqdLUlPc/UDYmRLxrFVeKFtGws2VKEd/aVYtjkKWDqwaoTGSlLL127l/m93l2kX86XRmN8JmbyJ8rJMsr1hm1ncUmGnnVo9pq4TdL0IGGnO2tbVp2JzDerly6lBIu1yVp5K+WJ50WOqb9FRjQR7gWSu6Ukvj/kN5EUWT2kIvNWD+8slZnqj+1VMbKSQ9MrzntrhPQN1vmirFq8dazKLJdpQoDYhqyeef0m/l46Np1MWiRFjtuusk4szqrB6qwC1F4d43F7qN56viAirh2s1V6Dch75d+ORs6j+LhMdhWWUF62kpZEhNyZI7LVqksIONVLYVl6BDjr12uvA9Dozr2qr6vBS+VmjH9Pl80bcbh2r7FQ2xb39ZtfuJ1Kr6Lz3YDyqZ6peY89mOai8zYo+bAPb67vwGJ2mNXR0m/tJomPnb67jmeX7VlA5GFIo+0movjUB+6VdRXQea/GXY3UYYnmpHjRKZLb1j/v9tfvwXQRN3hRc1OUKr3ky9Sw2phchubLVrNJkdgTVtbyX7mk7M1rFRTKkkYgo9YZWMNJ7axU0hZAKfj1bOsU7gcmBK/jnqufx9ZoXceF0EVws55GOy/j7U3/AZ0uehuvSVf5eDvHslFM87OR07kY4t0vJ+ZbSi1i2vRx/OkobRyIf9ZOcs0y0TKuIunHS+b5HGruwkrKzhja1gLY9GrbC0Tx0lmZb71+r1xvaMp9FPfRLUw8Wp9VgVXIxzjS2G31vr0oUf+2vQfePKuSW76cOqiN13diQXIGNKUVovRY1ovtJLuLyE4N9LP64+R7L79Tv165TG7K/x2Cfn3r8dhCf7prMj/KlPzlahSeymrBhRwnOD7LxK2wh6IqRnwCO1l4ykyyWkczn0bsyPWRT7vWgoZ1Aj7ddxbptdRTcMpzrGoSLlR7ya1kuGQ5r6UORGDcNy8enSeazqklay9A0IKI4RsGiE0MFbi1l6Pyc+wUpNSWnc9PB9K7pHVlnqsMJEsBvzmrzjUK8lJWHXhE+Q44ES9in3kN1q0mKK0iEl6fX4OSFyywPlck9dHCYZ2sXQIVJBPBVThOeyKzF81n5GDY9zno3kUM2YjXS6ci86o3v7gpGcZRGb3NSCTanFqNyeNKQBhEXTfwzZID3EaE3YTosN5+P50mSBxqa8fd/X4v+820IuVyoPXYGA/UtCI2MoSrrCH5c/AKCdBqtXnnFicbycRe4dT3rfS0yL9RevIKlij1OLWL99Jh27A+EKb80giQh6vFUnO3bB4pJ5ovxe61uEtLGcJQNY9RVBkL8M2a3TWt1GpvMq05GqXyrWA8bk89heRINc9lFs0mZznlZX9d2t2Vd30TmmW8Ree0CLOIlOdHmMqf47qtZDuu25eFEc7eZrC/HQGvOzxo5vcewk9O5W4OOEI2hC14ca+7FsuRqPJFWiCIty0pDp+Xg1IlhiC+N6Xdn6lheRfhHXpPZUdTaVVUypRAUp/vfAXgfhetJ36r3WOu6g7rj/JALazLLKbN5NOqdlE8RbJEKyZ1NwGcOb5SOP3Vkj8tahnh1+jnsrOwk0aWOI2mTo2ARbYWekeyR5IrIKwxBvfN+lwdXr/TxmDqu1C68iNBWuHhfYSI4hp62Zux/5k2ceu0jdFVVY1Kjnerlpjwa54D3N6uD8F2s97g5n/HQ9U7Hp4dGkn04y/pcorXE00tQfGXIrCdvEV/dM9aemX/pfzlme2vbsSi9GqtJ6Gv7J2J5jTlYU+5/4993BtkRlaE1AuBBlPnp9UXw3J4K6vFmfHqsxITShdhmfSxbs3/AlHuY+5j6smLuDSknrrJNf3yi3Cyv+KfDleiljlN502BQvkkEKdeTJPiSb3XcicjTHaNsa36NykPP0t+y7VrxJ0T7T1LvHUHpjt3419Ln4GL5Br10LAdHEPL64Wrrwz9/8yRytu5knuXo3pzXu4Wdbq2nNEFUdaf6pl2XvTLtOYy3f6nA4yTG3xa00QnVcqCUbVN2kn05TYIf+Z39ZoO+ZSTSOd1DZiM5yYLapzVCIjm4Xdm8GZYcWN+tZVWZF92b+Vbs/r/yGskz6/FUWj66J6XnaduJ23m22plpv5QDH2Xq4rgHv0/NNvutfJfbbMrBcrqp36h3tHOsOvgMQTflRyfPr0gOS94UpaAwY3WIyO5IByjkeFI6hGUvp1B1IFnUtQrzNEvkqt3zu2RMHODGjoiZIz7dFZkX+ujNvrC9CI+SrL+2Lw9jFF5lUsbY2rQigNq+MSyhZ6dNavZUt1H5333FzzZGWKAfnm7Cim3teHK74grdJDgyVmyMFF5rHXO9j9W7m1J9AUsyK/lejTjVfBnusNarZsXyN/6wyIDzc+4XlEclp3PTQUrLJrpqVFc8QbyanoNVqaX4IbfR6qFm4/m1MCLVbeuYG5uyCrAsvQ7fn6w2vfL3lBypMQTUY+KlMQ7jucw8PE5H4qvsOtM4Zax0TqTDJuDOZN4aGhdB7PYE8ObOMqzeVoKfS1oxwt+GKAPqJdYKPbYDEY7NLbjK68tautDdN4Bd736Jb36zET01DfBQjrw+N2r2nsBH/20V6o7nso2ofVBBqYds6rvcAW5VzwotkjwoRExlcbq+nYq5GJvS89Dl1+RXKk0aKmszLdWTD2M0gj8VnMdyOrabkgowQJIrsmwt02ld4/Ss2YJCglRGUoiSxWHK3R7mezXJ5srkAhw9f4kK1HLOvFLorAO9o41r91K9Sh/xu5xtWxYU+6+VcF5MPYlVyXn4/GQVBvWOLId70ZN2r2Anp3O3Bsk82we1G3ZVt9P5riNZzkfd4JhZv10xzJrvot5dEd/0wmasTynC13nNhvRqpNL0/srw36Exugm8j4eGUE6l5m5EZENYh2WXx7AirRQb03PR4A6amGVrx2fL6DveaxqYuUEkbYqxnwgBX1NPrE7LxV8PVeEKn6nRvbDa+rX382MUdAYhQk/Cw+eF1Wsp4sNrtS/BMAngOCEnwUMMRidwdbAHRz/5G/Z//ncMXWxH5S+H0VVdj4DPciSMgef9NWlyJjI3E8IfD9kuObF/O0fSRsf9pZ1FZqUva3KjA5nndxGZyoFxLEouwcqMapRf4Zvzfe1NtwxhvvaM2yv36SASZzkSyo/VOVLdN4K1bOtL0uvxU2GjIdvqbfex3lXmTmVh8iadQJj34r2GWU8nugexLiUH69LykNc7ZDpRIL3C632GzLNuCUMkjbyLvLNe1ZnHY56oz+hqEWDZv8ngJHyBCRL2dSjJOGhWwSrfvhcf/X8eReH2/fD5PCjO2IfXfrsCLrdWCru9epsJ7HRjfThBsqy6VR0GEDV16MUY3+WPu8rxBPX7rvpe2skYUWVeg8aZteRD5dkTimJNcj6WZ9RhR0U7j6lsLVmxwjIlB3f/jobMx7iFTeblQEm/aLPA1/cX4/GsGvx5fxkGA7JHCvO5TWeJeZbDajsr2l8mtbAJK7eWkMeW48Kk9I5sT4ROJck4oRV+VIcqE5+H3M5FuF3waSNRlplsfM+VXox2dsPV0U3e6IbLP0G75LY2G2UZuQx5F9nn3yw/yZTX6Dnb2XLI6wwQn+66Z76ipx+rUwrwSFIFfiiwiJsaphb4N+SAJKvhyrgJe1iSVI1dtRd5zewL94zBAr3B6Ju/A7g4OYmVqYVYuq0Dn9FYuUyvj0UA/ZEJQ+jDwSiFV0LvxpELnViaWYEn0tqQUdaGSUPmKXwkeJoI6/js+wwlp+PTwShUvrPKRb2wipNdv/WciVs80XKFgs96ozGweqKkPG9W5vrtIIX/lf15rPN6/O1oHVxqoFSMs9Hgp4V6zmj4NUF3U2YRnqAh2lbSwEYk4q1ee71T+Bqhvf47q5FZoJEm0YuEJ0hmQ9hd245NKaV47ZcKkl7Kgcg+f6O4TSkdzbNQDP3VYATfnKvC86lH8Pf8GtS2tuLYh9/hu//YjP0r/oSsp9/BN4ufQxEVv8+n30tBBTA6DZm/tYK+EbeqZ4uEi8xrYqcPh5t6WKdl2Lz1mJnQ5KaMGweNBFc9+FJmImuHGnuxZls51m4pwVX1WJj6s5TtvYZi3g3ZkSHid/XMf32yGEtTi7E+rQDFlwaMjpEusVYniqvTGWKc8rKFRGFVcjZe3lWE8+NUsgGWkykD59/MNdjpdvJrGWrWpcovqjjiADKq2rE4o4YOXi5ahsYpn5o/IbIsoy3y50dh1wDWJeXj1e0FlF3qQtaLRXZnUS74HHWKWKtfWeESwUgEWWUXsTylBK/tK8ElGXKRD3ONni043GsaWJNmRXbpiFMf5PaO4KnMQmyiI9M4rhXYNArnoh6wNpOSsVVZKQQhoBh96T7F7E9MGmKjcpADoB596UZ1ZGm9+UGS+Ymuboz2XcI4jXzhP7Zh2+vvw0NbM8p7yrnUZE2RLCtUyDm/Nm5XJtUTKLLyeW4tFqflI7Oum+8rHXAjmTdg3s2qX/ze7fFgZQqJdEoFMoqb+T4akYhdx99df8bN+v+OwXtLjizbwjrp6seqNDoUabU4oHk9Okc96yWZ17XTknm+k+rWyqtWNwugMxDGmySA69ML8SP1s5Y4FAm1evel83VPi0iGvS5EaQM04V5/m3Bh2oOB4UuY8NBl87lQUFKASfc4fv4f63HhXBlCXi/2Pf0Gvvm//Bu+ffqPGHSNorWgHG8uWosRz7i599S83i3s5HTuRojMS4YtMi/7JhJ71R/Ey7u1u24h9jV2g64ry0OOquTCIvOWk6mN+iJYv+0cVmTU4qujFUZuzRw5XjvrZF7feX+zyZOpE4XEhdjmQ3TIzuJR2q1/5NTS+YgabmbyGHePW4L3VEeA7q9yUUdW87gXz2UW0KEvx8FmLZihfKgctNO1RgdZdvxbGBsbwfjoCFxjo/CMjaG/+QIq0/fhr/9zGd76z7/Bu/9jMfZ9/S2GWi8aQu/2TVI+XMaB9NPJG2xqgUsjeixjjTLJvhlny5SnQ35vgfg0YzJvdtKS0POh1iRA/e1DadcINu2qw3J6/ocaOo1XG4666b1S2QeirPgoqq+MmS2DF6dVYUdN+wMk86wgCoVm8lMNGxKgv13+MNLLevCb1DYsTiVxbeykV04BNYLEylBPAAvcxA6yMYjk946M4Emtp57ehNfOaAg11qvHZ1i9l07Pv39QY1RyOjctWJ/qtVbcpIffT5/voqNWjE0ZJWgb1Rruqjf1kPA6Y3xurkcZHBHhT8+Wm/i236UVYcSvcptFxR+DCePSJ+Gj0RehL+2+gtXM7wo6IPm9A4asqM7UEK1NvZTnuPrRPWIwcwFE/FnnIhStHh9eTS/Ak1tyUDk0aRqkVuvRltAqg3Ea9HYSwB/y27AmLRdPpJ7GM7tOYWBsHGGS/46ODlQfPoO6Q2cxyWMmJITPj1KRimCPyjBNycO1fN0Gfq2erbKxlK9GFGQw99d3Ynl6Kf6445w1p4B50vuofPymnVs9ticbeujMlWDdtjIUXbrK32qUw/k5sw2LzFvtTuXSH9KKHAXUM8XYuO00DQx1C/NthTtJEd5+m5MTUzEwgU3Jp7E+JRu/1Hab8BsTV2/u6fy7uQQ7OZ2bDhaRs6A9QtSuU6s7sXh7Lf60twQjIssy/sZ5tdpNMODGBcr6M5nFeJpl1a9l7HjOEEPzOUvlRR2rzYs0vK2JpmEabYV8fX22icTOWsVigu9r9WSxLTPvjvf5FRhn2hhojbh60U/d/cWpWmygQd9R24FhM8TuBsIuY2hl9KN08kQc+Ja0B0FczCtD85Y9uNzYTAdQo7Ze2gwvoiTCveV1OPnZv/Daf/0t3vyvj+CTlRuRuyUDoyT0pcdOwe/1YJxkQg4J1PvL+86EzN9u752ImZzgD1lmK5LOoaxv2OjBG4mwiBvbGe22lQc3BvwkN7vKsIhk/qf8JrijbPe85uY2Nks6ne9lVr9jvhSyoPjojIoLhjOs3FaKk63dCKnnXGReeZQdvuEd4mE5BeZerN8Q32scERy/0I9nUs/ijZ2nSO7VQSeHhs+Vc8Znu0mshJCbThydLa2ONRnxwBWZxMX8AvzjsQ3Y+cm36J5wY19lFarbWpG56TWUZu2Hi/XfV1+PrLc/QX9rO8KTbjSnHMA/NryECe0sfZv1NhPYyXJIfg2WM2qIPGEmEbM+q2gb18tm0Xmvc1kE11pbXmWnUamYnqCcDkWBj9n+VpC/fX68ynRaWnUvp1cycWvZ/TXE6yM9X7Imx9hy2oLQMrJNk36szSjGyh3lOH1p0NgnswDF7ZYtr/ewFfuiPpBlmzY7Qv3yfX4d9UsZ3jlUjXHyAG1GR1rI/IjQq+1bI3Lj42OYmJyAd3wCo+c78NkTm/DdplfReiYXrsuXMVxzHt8sfQafLt6A4Z5LJP3DGLvUg8G+y7jS2YmewjK0FRTB59aKYGp74pPSs3emP+PTzHvmY0TIbNhAQ6u1xUWGt1d2YMnOWno12WijhyNPNhqkJ2KFpbHQI6jrG6HglOHx1Bps4/VW76jDM+4DRGrcrEi3BpeDJOoUzAESrzeovB5Ja8H6jCI0D04gwmMBE4c7EWsM1yEyr0lQz2eWkszX45nDZSbMwix9qHcTKXZ49v2GktPxX4PIrGKQXRTepKJGCngl/nGk1Ozkq6F3xdwZwaOwOxlSkUfV777qNixLLac3XYgejzzd2S8Ti8xbhtnE17IRZnddxeL0CjyZXILa/uFrit3p9zdDcx34fiIvbGBjbPh7KttJ5s9gf/UFTESjVGQRY7BdQTcqqNhf3VuIxSmlWJacjz//koP6Ua0EYPUmKiYzwnYSZVlqqS8ZIuVFSkuT7xRnJ6JtFLJN5s07WeV4c/5uhq5Tmu4drfrQOfW8BZn/MP5xstIsSSYFNsa/TS+LGWUIs+4tp0hlWt7Rj81bi7E6qQxHmrrMu5ve+ynPuBewybwZ9ma9No+68VzaOaygPH10ogaDrAsTisN3UxneCZnX/I8rJK5fnq3B2qRsfHS4AgN8f63kNN/I/EzlRYg3nl4TEx9Acn0vFu2uwTu7aZRYBlYvqdq6RrbCCJOUDFAvvLCjBBuTc9BPA6i2Z5F5yfAslRfbhch2lG3RWhVNSyuG8RxJx5qMMhxtH2SeZVgpI5Jd5vN2yZLeV50SajNeEnYviXrF1TFsSD+D1/fm47JGA/juZHamI0e9wYqDV/y06YnnPcp37Efnlr0o2XOQtkBOgQ8DQ1dwqbAc7/3nR5D1xnu4VFFJQ96JhtJCvPXbZUj90/uIjE+aMBuX32PIs0iWoLpwyusNiNMPM4HqRYs4PJ+RR1tViF4tmWhWKol/lgiFReZ1XCu9aHnfv5xpxmMk89/kNdB5kj6T3PC6G/I5e2ReYQeahKpONMXHf3nCitFeS/3TQfmT/QixrWrukhkl+ZVnW+GClJGAh/qXbZm69zLt+Qd7s/Fc8mHk94/SmVJ4YSzcIaq9FDQi7UZx5i/424qn0VZUSv3gxphnAkezDuEv6z/GW3/Zh9/vrsaGPYewr64aTbl5+OB/fwQ1R08h6NPorzVK03g8Gx/858dw/sgZ6nmF3Trn825gp1vLQ4yzsMzCzIe+u6k7yy8PYE1qDlZnZaPTJ2dS9kFhK5YMGJtk5NJnRuH+STlYmVaOT0/UkhtoVbdYGRu9OwPZ/RXYushA9+IzbaIrEu2mM3GwoYs2qxSbqX/qaQs0unCt/Tvcc1qwDPimtMd00Hn/KPmOFj1odQewgTZgo+YMdQ/w2dRrEdpVQk6xhzbf7ybofHsVM08H6OSPmfhsxWYMX75E+zkO3+QwInTUXT1X8cXyzTj1UwrCo+Poaz5Pp/88hjq6zNyZS61N8JB7ahUstzq+yUW9zI9jfm+B+DRjMq/Kk0dm9WbTc6PQaoLkJ6ea8G8Z1fjr6SqzwVA0MMkG6QK5LRuDes+CGPZH8OL2EizKaMaru8vNfZyeca9hiDyN1yQbr1YeiIRYjHyPosuD2JRebDanePdQGYYo1GHNbGdDMRsL8bca/hH0XbsOauj5/cNVWLazEauyCtA8PG4RISrP21G49xJKTseng8iTVuuRJ9xPL/29Q8VYQ9J3pqUHbta1nBTLwItkydDe3JBEKmQsC7oGzNKUa9NK0EnBF1mceu3d4gYyT9kL0xAcbrmCpWlV+MOuSlymEbgdkmMRXso331VLjWpSdCcb+cvby/DZIcW6s25pUPyBCbS53Hj5aA3+PbMYS9ML8OOZBvRPBMyyj4rDtCfKicxrszEN0SucwUODqfARQ0CVfyNjFuy83mgwbw2lXyPzam/qbRaZH2f+PjpUihXJedjfrJ5otUUqZNatFYYkws488O8httsnf8oxm0dl0gmf0Dm+l9NzZht+yovqwlrfP4ySy2N0DHOxfFs2kkparbkQfCc/y1dyaM11cL7XdNA7TvKdi/onsX7LKTybko+mcZ2znDqn38w12Mnp3HSIN55aylUO0XcV3fhNVhmSittIbtluSN5sMm921aROl+P3InXdejquLaMiKfeCzKvDSGR+0vSISwb6SbzWJ58zcyXO0sEUeTBrxYe1TKHew+E+vwJLXjRRUiFG6lX3YMAfxu/25mJDylkU9w6ZfMjYi8RqToEb1PuUF6htiOAMDaAhtwDece0aSxLH6/zuCaS9/Db2/fEjeK9eRtCtnXLdGPeOoCuvHP/4j7W41NiEjvYL6GxuYR74DtQJZgIsn+eU13jMXJfpXnLG/CSxQWxOycbrO0swwXINyebxM94BUvnpHQzJJ4ny8L3/ltOAx6hHX96Rb8icRmItQm/l06pzpzzfgRyIYJHM6N4KDXKxvr+kPpUefz7NchxFkhVy4WZ5/XoHjY5Lp0n/ilyTq/DdFJZxuLkdT205jG3FLRihgxKIUpfxnDX6R2I34cbWVS8j9b+sxe63P8U4y66ssx9fHKnGxqRirM5sxcqdLdi45yi2FBViZHIEpz/8G979L4/jl3e/RMm23Tj9YyreWbwWO/7yBXwjo8yrbKVTPu8Odrp1x6FF5q2eedUZdR7r80h9Ozak5eKPxyoxqB558iGtM6/yU3iScTDN6IVCLqP4ubABq9PL8HJGLka8kgMSf7Yhsy/JXb7fNZmy65XP9FMvmcUY+Pckybxi9dfQmXhtfxmGqfsVBuU37f8ORotZ31a98BlsD3ruON/9o4NFZtW+vx6qwKhXjq/yooUfAhgdG0NQ8fQ87ieZD9H5f+/fV6Eq6wCCnnE69bvx5v/2P1Gx6xBoRFFOh++9f1uK6OAYhvp6MdzagTAd+eDwMALUHWO93RjsvICw19qR+E6jOeLTzMk8oY15FC+lXhoJ0SUvvZmtefhtchVSy1rg8WriiGLMFHeoQiChZ2FP0ji8sVu92Ofx7O56uE2Dc37OvYTeQRMRtCGFGWb1uzFKQ/VdYRuWpVViNY2UVl9xiczTA5MykAMgAbMQuxePq/doa9F5LNvVSO+2Aicu9MJFIm9WerlNUnEvoHdVcjr3azCkko20bcyDjdvO4OnkHPS4aNRo8EycYcAaElL5WYrzxt/ruVK2mgS7NjkXq0joC9qvssx0/Y3X3i1E5AyZ573NOuL8/D6XdZJag7f3lBqnbOYGUBB5kDLTShmWkR+nfGQ19uC5zMNoHhmnLEdR4/Hi9WOlWMz3W5+Zjx01XRjza21jGiPKgFZdUDiOmVhFpTHa24eGMwUI83fKj4mf46cvcF0R6tOUPT+lSG+HmJp6nuZ6Pcci81QYvEYTW/+yvwSrWK8lA5rnQWVoVp9SD749p8DapGmMzvjTP2djSWopPjhYimHTpu8PmVeeLAVn7Vh7nE7aytQSttEcFPQNs43K8FPX3AWZDyg+nvWlVZpe25mPp9OKcby1zzhx861n3uncTKC2PE55+6H6IhanFmJHdRdlMMJ2rvePLwO1+QDSK1qxLrkYp1ouU74lp5J7nxX+EHffuwLthZxpLSmrzqH81h7jfL6SehwjNLpREm/tui25lnyb+R5T7/ErkO4S9O7aP0QdNhqF29vUZfam+OfxKsq+3pfXazg/qlVoqNsV6kEioC3kzdKGJDXenkH0t3djzOfC1coGvP+//geGmprgG7uKnb//Mz74L4+gu6ocAf8k9vzxffz8109Qm8dy3vwmBlo6aC/pKLG8b+wtvxuo/VpQyEJuVx82ZeTgm+zzJPO0ZXReTLikCCzPX7+e5cI8mM4G2sdT7VfwWGo51qYXYYBEWCOLhtDrt7zWIvNOz58qNzMAy149pSKOIuEulsmf9lZTv5bhn+cqTZiVVppRfVlkXjb59p6hlbq62dZfTTuNz47X4Qrl1iw5bfSHQpIIrxudZdXY/tZnOJ1TibdP1GEJdfwjaWV4LLMSS7eX4oVfinCiqcOM4JnFFCbHMXGxE6nvfowtT7+B1D99iO6KOjpyJKKxDgmnEey7hZ1uXdZWuRqHl3IrOyxnKSm3FuvTsvHP4ibKhUY+rE4T1UUoYpF5rfRjJqKzDZzrGcaq9GJsTM7GFdox8SErFE987+7e7wYyT8iZF6HXqIrqRyup/WWvOgZLsbPhEmVAZD7mzCvPRo6d723jOocTVCeWrdXKPWZzNdqYA1XnsTapAGu3niV/meB7y9mLUtfwer5zyE2HR0vMkthGh7z483+sQk9ZLSIeF/7xxAZ887/8Bl+tehpeXnOxvAp//feVCPePwD9BQl9cjb7aBvQVlqLj8En0nc5Fx/GzcF3sQNTH8jY2xznvv4b4NEMyT2GgsdRwhAQ4TMXlpTI9QSW7cksJG105zpIEhxSWworQLF03KyDg1+S6KCYCEfx5d7HZtOLpPY10CkTAJGCsuNtUxHcDM6xGIVHPswRXw2iX2ajfPt6MxzMa8fLufPR5eB0bqoxFWITCNHpLyOKFRqQvp2sIizJq2OCr8WMx34uKyKzwIGIR99wHAeVXyenctDCEiPVL45yvZTpZr1/SS51UGZDYXkPsemPspkDHNBzdS+F/fnuhWebzSF1HrNHdfP3dQfXBhm8chQjrNoC/n2uhd12L73MaMEHZc8rjtKDisFYzUY+OhwaEiozHG8dG8XzmEexquoSGcQ+eJhletPU03t5xEg1XRth4QzTu2kiDoCFSfkSKJ5kf7Qibsv6PSPk/1qFo9yG2CTmCfJaWPGX+1QNtdh/m35p0bM6JlN4GMf21elb+7Z55kfmrdDre/KUYG1KyUdrHvKteeFz5UEy9teILlQuvHyWZ3/zTCSxOLzP7Lii2+H71zFs79UoePWxXEfyY3YgVmVV4flcJmietOG87HEbveCdtTqGCMuhaKedA82Ws//ms2ZRqzJS/DB/l6wboeOwc8yYSaU2cFvhdSp+Q8h+9ehVX2zvRf6ETvvHxuOvse1jOm1O+bgd2svST8zXTQe1YI0cTNFofnRRxK0Z2xxD1nobPne+3p7qVBr0QR5t6zOouIl8Ryc6skVHdRz2CJJ28p5YIPNN6hSS7CF+fULifXpYkg+Unh9lc63ifX4N+J6JCAkdjLrKjiZINY25szsrH77IK0EOZUK8feYwh9JoUGSXpj8SIkXr1RSbOnavFtmPZyKquwuXmLvz1/7sUwaExjHe348v/13/Ht//3/45Tn35NGziCoq9/xJ43P8HVuhakv/gOBrt7dXPek06yyLJjXq9jZu9plZ+gVTu2117EhtQTqLg6ChcJs5uOiXrfnci8CWtjPhRPXkKHeRHreWVaEZrHaAc1Gs0yMp0PhPJy++U+HdQONU9C3yMYoj59ms9dkVGJn3IqSD7VM289T/MpTG+6CNkN9/h1qCy0BOV32bXYlHoSjSPjRs7NHglsu625BfjHH9/C8ZoGvH0gF6vSCvAfaeQFaTVYvi0Xb+wvRlbdRTS7qaMD5DZ0OKW/5dz5/C6zgo2fOtzj98BF3aDNNN3Mp5mcb3Tq7MJOt7Jv4jxmBJ15YItivjVHKoQf8khcU07iDJ1RN8tXZSvbY3UmKWqBdU25D5LYRykf5bRzq1JzzRKfl7zUcTyukeZQiPJ0B7pneshJUNlqmMBtSHvzMLlEej5WJZ1F84ScCz3Pkt2ZyqAcW8He38HpmtaBMbyYpHcswr+yizESUcx8hDpbK9aRO/Jd3SwbccLIZADvrXwKjScK4KVsttMJTHrpLbNalUJw6w6exWdPbIZveAzdrefRdyQb54+exMXTZ9F94gwun8vDxexcBEZpgyMe4vbk2UZ8mjGZ13CVmUDHF4nSE3F5A/g5X72g1ViWUYZaKrCAVuoggVJ8m3bDDPtI5qkMR4PAm4bMN+Kp3fUY11bHhig7PeteQoJNR4SVqvV+XdFxNLnGsXJrHh7NasZPNR1wK0+mhzWAqMkjK5PvrbCJ64rP6tlpHJ7EEyTzi7c14P3jRWYVhFBg0oQhOT///kLJ6fh0MEaNZaP4v8ziNirzWhxs7IObTpqlNPTuVsOVMnVqFLpO66yO8vMvx6kIU8txuKGbjYFEMO662YHVoA2ZJ4meYIP4/NwFLE+uxK6aVtOj6/y7aRAjbdaqFNpcQg2fxIwyk0Vn7X0S2nePFuHlzHP44UwDugYGjRz4A7qWClAjVsyTwmzk2JqZ+JMu7Hn3K/zjv65G05l8c95LxRCmQoxMejDSw/K9qnWKLTJ6rWc+Pl+3wK3qWW1WPagikPUDI3iGSvzPdEgu0WjGGwP7u+khY3sfoj799GQJltAh+92+clxmm9d67vb19xQsI61WE2DZj9MB+exYE5anV+L9w4W4wvaoNhzkOTlQfrMuuUiWSMHMy06jDzJE6nXtn/Tjje3FeGlPGS77NB+IbZ/XaNRH8qV9FUQgjXzwnC+i+Taqc97HHCcp9Lkx0d2DusNn8P4jq/DG//Zbs8LB3ze9hJbcIoRcdq+o8h4iSbm9enaCnZzO3Qpqvxp9VMjSG7vPYXNGAS6RqChcbbr9Dxq0pXpSNrbmNJHMK7Zek+DoeM3Cu9iwhsBZxiLrxP6Wq1iflI+D9RcxybyaybGqA503cuB8n+mhvKqXnW2QkBxIbkZIIv6WXYen0kpxopNtm8d4Ed8tyvatOVZaTjaCVlcAx9qu4Kf8BryyJYd5O47fHT6N9s5+fPzbTZg838H2PYKaI4eQ9eGHcPd1weUZwtF3P8Pxf/6M9vpGXDhTZHRHlKQwKj1l3sUpr/G4tcE3sb60VYJC5rJqu/DH3dnoox6ySING3SZN+V7Tnwb8PfWnWUWEddnGd1xOYrMivRSn2/sMiVYdG8KnupYM87vV7q63PQvTv4vdPu1r7e9h5pWNjO0N6POHsS6lGCtSS3GypZtkU+RO724RPcuZuHVZ3AC+r58OWTmdmhVb9+PMxcsk4WGzsdSI24/PPt+Cd9/PxDNb8/EI7ceiH6qw4YdivJ1ZglN13Rjyivirc0jzjjTXwpJTS4akG1g+fM41Qsy8SjdEtfiDKWeHPN0F7HQr2VdnqTUKRT0XVQeENs8LkKw24Kn0k8i/rKU6r5N5la0cFJF59cwHKS+ai3ZeI/Vp58yk2S7aqmBE8iRyPGned7YcFsmSFQev0XEtuhFCYe8onqYT8ebBSrOyjlX/lB++lx367HSveMyEzI9R/r49XYtV6VX4w94K9Lmka6zNBgU5LmE5GLSD/jEfCjMP4L3/cwm6iqot3a6VDOnMdZRU4PP/uRbVmUdMx86YdxwNObnob2jCWHcnBjsvIuAaRUArHfEdNSqlSdhOeboV4tOMyLwJNeGLmhhTVTDJ7oQ3iHcP1+HR9Hq8vLMUwzymoXGFO+haE8tKAqFJdWMk+FuKWvEICfPKzFJUXOxigbqMZxekpyjiHB8zfC9hbQijEAiRBS+SixqxlITzyZRClPeP8JjIGQuWDV+9fYYISbCn3ovvp+Gml/cWsAzOU9APG8Wgnjcr/GPK9Q8ASk7Hp4PCGjS0PeH34r39xVi6LRf1g2ysqkeWgUYjjJdvFKmNqfcgWK7aTGxr6XkTN7+t7BLJvGThzgT212HJmpapGqT8/WFfLdYm56O0f5TGTOenz+tNMKRM+beulYKW0dBupENuHw5VtGAvnYQuEr9Jv5bNs4ZRNRnaKG71yvK3MnLaaCYs0sn7uV2TGOq+BP/gMEZHBuD1TaKrsAzHv/oWez/8Ese+3YrAGJ1hI29SvlRQ05ApJ9y6ninTbIe6ZwOd7qe2HcG7+wvMkppO1xsyT8dEMfI/F2n35lJsTM1GA8tUcZJOv5l1sBxkdKTstPvs5h+1Y20FdtR3mqXlzFJrPKceXGtFAOt38SThVtBkbp/iFekMKHzox5xGPJlxBiX9wxinfpiMuunwaxWjCcqEeqBkXIIkF1pzWqMoJC0qQ5atSLp7chz/XP08PvyvS1CedRDe9stw0Vk7/vE3+PR/fRRlvxzCSNRv1qyWIbQmYjrnbaawk9O5W0FlJlnvR5TGKweb03PQTX1syNg08tfnC+L1PcX4YE8exvnuMrxyaiy94Pyb2wbr0/T20dZMUHbfP1KDF7QngosywXIPkUiIcMiRuDMiobyKDPBehMi8cdT4rIZ+N15MKsbOaq26Zg1/D8vZY1uuHfMipaYTL/L91+woxeKMUqxOr8OmlCK8kHQAHUPj+OWTv+Hvi5ZjrP088zVOAz8K/+QQ8v65BX/5n4vR29qK498nY8czb2O4owfaqEdr6Vvr1v96Gc6EFN5A5lk/e6sv4u8nimnXNGlREwq1godk2eo8uIHMmzK1dGU/ieuzO4pMR93h9ivwRi0yb3rnbYhUsT4M9D3u2fF5ikc8gbe/a3Ug9YBqPoI6A1tYzqtTy7AutQj1fda68GbyscmnNcJrdFTsnjOC3pv3V3z4J2fK8OXBPPQFoygf9FK+KrH8l0o8kVaNVT+X4umMYnx9uAKNvWNwUY+L14D6ICK+wrzo2dqjIMx8h6Mhfg8TWvBA72G9lz0PQp+O+blL2EnczOm8DXWYGt3PfGkPhBC/a8Tg72er8frus+hWG5azxGPGITf1yHeNvYdIpuZ+DbF6XtuTg00k9O1eOrZsg2qj2rjNTN687TboDIW9aOTIlDHbnnZp/bmgBc+kFeKH3CaMK+yFtkHz2qylpPnd4T5TMRMyr5GphlEX1lD21qTUoOnqhHHUtMeBNnnSaOx4IGgWdEk6VYILl4ex7YW38ckj63Dq65/RerYIVTsO4rP/WIXUl9+D78qwsenWvhnq4NZIg8pZTrWXfFE9/m7KlzUH1SlPt0J8miGZVyML0SvxmCHZUCCKTnq4T6YW4rGsWnyb22LCbrSxkt2TJVKsHd1EiLSz4t76Ljy6vQnL6OkWXLxE4Z80hDrk12RT9fxScAin588WpHC0FJEUuZah6uNz/7yvBkvT6vF6Zjb6AzQezLcxEOpp42/k1TrdSwpPO8F9fppkPvM81uzKRvsACSQF33IAnH5zf6HkdHw6SJH76Wlf8vnw/M4c/GnPOTP34bYInIwiBXOcCuJYSxfWpuTjrQN1cCmU5BaK504h+dQqB1cogxvTC7Fp23Gcn1AvqCbQCKrz+GdPV6fOsI1O/N83HSMsZSFyo3LUcT5Hu72yTNxjI9j9pw/Z+F/DSMdF7P+UJP6195H7hw9w+u3P4b5AB9fronOrXl/eXw5l3P2ng97d1LPKfcq569D7kqTxe13/EJ7ZehAfHcyn8+Mc+mQMM4mMh4r/dOdVrEwuwvrUPNSyzZvVTRx+M7vguxuiLcfGh7ZxP9ZvLcKKbUXIvTxCmbSIuN1Dq94ZOU9O9fJrUH0Zp117SlB2qgYmsDnlMLY3dJoQLSvsSKFWUrasWxLdgBliZ1ka58jwDzMCGfX40HE8Dx//H4vRmlcEt8+FqNYhd9MRGB3FsTc/x9dPbESIx4wxUV5/tc5mBjtJDpzO3wpy3nsRMZM/n8uiDhRZot6ejoRo6c4PDpfhY2IypDlRunZ2N8aRQRch1FJwQ6yXPx6swl8PlbDeKeeGPIrMU0aoq7Wkoe18zxQqfyeEaFQnaRN+OtOErw5mY4B1PsR2c5h67IMz5Xh2Zy7bglYAKcOylAI8/sMpPL3lHH480Yjzg5Pop9M+0nEBXy5egY8eW45T21JRtfcwjn3xDT7+f/wbTv2YgsGey0jd9DoOrP0TBps6pKANGYwYEnyLMpyBwY8n1CLw+ytrkFFRb5YSVS+nSIPai0Xm9Tzphpg+NGTeIlKjJFGv7C7AEpL5zKbLzmTe1AWvN5/2s0UMpVec38V+x/i2KjKvpa61soibvz3e1ImVKeV4aXc5rkzynXl/s1Qh22OQ5FN1ddvkUTqDv3fxmdVDbny8Pxe/tPfg6Z15WJmZj/U7S/H8t6fw7h9+wtHDuRg3UQYqRxJbki9qA9CyI0hnPMr7RfmuxgljOYXUsx1VvvhOhHS/ykpOiDosjWM6NT93CTvdqt3ZZN6MHLActVeOyviLk1V4f88ZDMqHYv3LOVGdWmWr60SSFT5H3co2MEb5+SanFk+mnMEFr0bFFFJqTVQ3y1rebn1MA8XoazlRrSKlNj4WjeKdX8qx6edsnGvrpQxrJIv1QHmxeuZnj8xrMu8w2/zXOS1Yn1yFHaUdLCvaAMrnJPPSx++nrozgGTo1q3ecxtvHctDT24Oe8lp8tvF5fLJsI/6x4QU0HzsL39go72m9Q9ToSOpaqDytMlWZ6bs5z7KebiT0VohPMybz6iVTDLl60MP+CArP99KDKcVyerFnuwehZd68NIrGqJD8icybnnfTgKI4VNeOxZm1hsxnd/YhYHq9qLTVM8+XsX43+0IfDwm+wh8s0urG4Qt9WJpSj5Wpjfg+tx4DVOQSdJEILU1m9zY43UsV5QtO4ChJ2OLtdXhsVxEKOq7CRcVsHBrH39xfKDkdnxasQ214UjE4jM3bDuK0aTxUYbejjHgPER+tA9usnWCTcvGnX6oxpuWvZmCM7gSSHU1Wucy6XZOci7f2FbDhRcy7OJP5u5Mz2xDdgDhlIWUokqOeWxG2II18e1E5kv7PlUj/72v//+29Z3ccx5YtOH9lPs2sebPGrGf6dU93v9d9+96rK+8oiiJFecpLlPeU946iRIkWlt57kAAJ7z1AeIDw3lShvEFV7dk7EgmWqCIv6F0F12ahMrMyI8Ocs8+JExGoPXgYA831KPhtAyre/Ral736H4WMFGNMKF15rPfv5KG4b86lnK9QmgIaRcTy1Zhd2krC62dYTXsuyMpNPSaSqRifNpKAHN+SjdpQC6goYqup3ps6YX83ROdI6iIXry7CExKmPylwE21p2TqsRsJ/yOg1nGmU6Wx+J7nsmNFHZ8vDwXsEIjZsY3t2Rg7d3FNMo15wfkQfVBdsuZV6IRa012EdoBA14/Ohy+dA66cLxikoEPC788tCz2Pfu16YOR5ra8P1fHsLuj7/DtHsK4309+OZ/3o+G7YfM+xliZN7z4mCnROfmA5G3ISrrF7fm4svsOuMJ07yfRNcasM1sJblbsacYLhozCldUyJFxxrC9q80LGsGwceYx+3uiY8bTrxEX1rM2axnwevFwSg52NA8gICNKfUME0sjoEJ+tGNrzkyvWb/kblr/qwIIUK40EHu/ne33GesruHMFHW0qwdM1R3JVZgDto0GqRhI8ONyGzrB1pxyqQVViNupY25o1tNaQJezQyHW70l9Vg1ZMvY/XjLyHjy+8xVN+MqMuDjtZm1B7Lw2ADf8P3k2c+JiJriOM82u3fUfoWobagWOhuj4fvsg9fHy7BkfYejPN52jjKIu0qC7u/qDxkGJNYsE9pUuSPxW24O60EHx2rYz0zfyLdulZ1wE8R3VCMZck2YDy57Cdhyl3tlK7rZDRIJs6Rb/Mb6x31eRrSlySc7Nce/p1S3mbm4S0n0TbztVi/WhdcxptF4vT837/334PlLJQu08T+KI619eH7nDx8kl2G9bVNqBpz4NcfU/Dznc8h86Hl6OXxkOZCyQlCHSgPLQ/AhN6K9DIvMg40gTkmKDSNz1A5mBXMCBE0HZvLrylvC/b3RHmdD+z0e732RxhZzjKckdzmOzDr1MURvEBSvq+p34y+mvk+hhPxndS+mC+t3CTZKieZ9lVRKM6OulN4bH022tgnVQYyDLRWO1vSRb1LPDRypPq25rMEMcX2tGxdNp6i/jnl0rtacyusZSnVZ6TbE98rHvMh81qOXCvXlA858PS6XLyrsB4ZQjynUMTSUSee2pyHhemFeCztGE5ovoEmt7Z3YbK3B1HK/fG2DlTm52JgfADuoMLZ1GYswh4UgWcdSM6ZvsD7mr2L1I8usPzi07zJvNbF1sRIE3rCRv5bzkksSK/HM9uK0OlVIWsI1GMajzzz6vyyPrSEkQhhzeA47kutIJmnUOkZ5gvRCtf1hvjKo6/fJX7+JYUaNRugl++xghbYX9L6sHh9LY6dGia50STKWc/8XCexhM8foPzSeGmYGMf9mcX4S2Yl1mv5PjUyNriEv7mCUJ0p2cJzPlC4k0JWivqH8HraQUyy08vQMrF0Ca6PxxxRF3klFJIzwo7w5IbjeGNHNRyabGRfc54woSfn+K3eVR3kFNvhopRCrNhbZHahtcJs1NkvLZlPBNMxeV99ilwo9tSQcpado68P6a+/j4y7Hsf6ex9DeGTUePCCE6Oo2LkLuV//hIHsfIw2nDQz3+UZNTPo4+5/LigZY/isYH7Uz1iGDaPjeGbNDhyhMjvbqlJ2f5dy7g8E8dKOOrP+bi2F2ZXwzKvNyqC2jHySx7o+3L+uCG9uLoCTckWGhkbYzG6GEv4kfyJRmmtghuyJRPc9E1rXWs9QuWiE0E25trvqJJ5bcwjjFOxOtqExKjttLX+8YwBbyprweVYd3tl3Ess3VeLRjcVYvDEXT/y6B/3+CFYufAY1qTvMqhi73/8aK//Xf8dX/9uf0FfTAK/Pid8WPYPqHQdA6ktYISOJ8nU+sNPfU+pnwiZSIs+jsRk8v6UAP+eWM0+8l5SNmYdAuczytSBlr0UQwminUl259yh62KdbA2Ecau7GzupWbK9txW9FTXhrZyne2FOP1/Y24bV9TXhzbz3RgDf2Nhq8vkdo4Pm6WdTijV1l+P5EI7bRyDxc14qcll50+2dQN+HFirRD6Gf9aNECI89m5VE8STrz/c4F9VGj0O3fzkIOHJEJrXPeMTGJ3MZObC+sx7ayVpRQwTeMudE96YOLxe5h3k42taKouBBDwzI0WF6zdWBIA3VlxEejkzCjbJKLPKe+ZZ6tv9VWWZ7x4Rnx+UyIeepI04dIQNxsxz0OH1bl1+GhjYfx5vY85LT2YZTyIBjTiAD7EfWv8X6zDMwoF/uT5gasK2qgPC3B+0dbjUNOxNTyiiqvJD/yllPGaaUbEdsI60e6XyMqkmEyCmOUIea9TRmrX/7xHc39qCs0SuThb1/dV4lbN9ZiU2U7ZahlQNhhKxcuu2d/q3zou+5l7q25BXLgzWC0qRNpC1/ArtuWYe19T2GS9art97VohuqJlUeZM5sfQnImQnlkwm14Xu+hMhIhVtilRegtEqmyVRkYgk9Y5WHn7fxhp0TnzoQMGUs38TMATAejeHn9ETQ6ZTwpLpztk++jzTSNPGS+jMeb7y0yrxAokejyYRceWXsUuT1D5n0i7JOaSyKeZ72PVcamPvlci6SqzG3omgTXxedVbUrhQPLO8/sA5ctTG7KxYneVWcnKCq9UWyXxNvUn3X7692eD9Sy+v3l24muiCp1lfTl4zdq8k1i67hjqp8PkQQHkDU1i2aajuDs1D4/SwD/cPYER6qDJsBs1uw7i6IpvkPXW59j/xqfYtOJzhHyKr5dhomeyvsit1C/MSj38NMtfK0/iCdQHZq5Kgjz9PcSneZN5dTStva6JcfLovah4usxWfHqo0qw/LBLvMXFU8qooPkuL/bPQ2RBU6IO+AB4iIbgvsxQ/FTew4Yjw8HoZBxFaMFLM8xRUFw5L2GpJOk3+uyejCH9N6cUL6RXo9GnoiJ2ahW0V+Jm/PQPMqxr0OBv/M7vycEtKJV4/UmfWIr8WyLyEjVKic2cFy0Wxw2nZRUgp4LuQyMlCn0/4UzyZlzCTYptiWTy7MYdtpRRDXqsd6RpLKP/+9+eCfe+z/c5qn0HkNHfhgfV5+Ol4jTGqriiZ1zur/QoSYjwmIedlf3H19iHz6Vew5f5lOPThlxiorkHuN7+gmETe75tCX2kJRssrMFBTg5DHyfYnohqf39lnJHp/Pu/v17PIvAy1ABpHxvD8mu3oCWtFJz1D9ctrTN75ndDomzy0M2wPU1RWHxxpwcMbC1A/OmW89VZZ/jF/lwx8T60CYS0NG8EX+0uwYH0hNhY0GSEuWWMEZdjH60Q4PWxvlCWJ7nUOaIhzZsbJe0oOxUyI00TQjzW5jUgpbsfG0l68u7sZS9aU4d61JbgntQx3p1VgAfv6wpRq3JlajdsozxalHcUREqT1j7yC4l/STb5HSPRWLlyGvG/WIOyaht81hc8WPY6qg1msR60qcqnJfOLzZ4MhIwL7whTl3RvbS3FUEx1ntBSbhpbllWMfYv1L0VibuGjJOrZnltGukmq8uH4fHkkrwb1pDbg3pQkPbGzAwtQ23Efcn9ZCNOLe9DrcmdFocEfGSdyW3ohbeVz4G393y+znHSzPBaksy415uHdTPh7YnM97H8Vr6Qexq7iO+Ygx35dXrorMR9mOZqKK2w3Bwz7hCIVNnK5X4YYRkKSRwFDpa2KchvnjnQzzkWu6xr7O/jv+2LkgMpLoeCLoftorwBphC2PcG8NvxxrwyIZDeHjDEZKjYpQMjJK0q27lQVQcr9bTl172GzK/uaqD/b4c72V1mp1kdU8RKZsUa1lPhRWqrKj1Mdbbj5bCclMmKkszF0Hnea1xCBm9+sd3MIRO5Ib51b4Pr+yrxh3ryrG7upN5s0Ys5ltG84V9PxEsxYTLsAn7fRiubcK3S5/Bzp9+ho8GeJSGud5ZRom871q20xA0kVyReIHvpX4k8q57+LxuKwxH9+Zxm7wL0o1XmswLpj5YLzOhiFlyOLOwEsVDYxgz8pT5Zvkbgm0IuM/oIBn61rwey0jp9YewdH0WNlU1Gx2hxUEU+uRj2WlJU8kKectnqHuNx1kcT+FZcTDhWoRZFtRcq7+tPOpZOq/fhWIKb4whq6MPi1MOYHNpM79b9Wa9k9rVpWsPgupQe0uIr9ZOefByWhYOdI6gaMyFZzblYumGHCzfXob8YY9ZptmE91G/l2/fieNvfoyilz/E/uUfoulInqljY6TM1vOZRotg2iDLzYw2XuC7xKd5T4AVIVKIii/qRZfXi8WbK3FXRhcOt4zDb0j+DAkABYch8/JK8lpjcVAIs4Am/H68dqAR92eW4fP8WqvyZ6bZKLy81mnubwhFgudfOogcuDFDC3tvWx/u5Dvct6EVaZV9cKhQTcOS8FAcoyVE1CgT3UsdYJoC3UXC83NFvQkhWpyWjy5tFGE6RuLfXSko70qJzp0NGgJy8Z1+2HyADXYaIywTH9/fTF61r1MdxdfT7N/xZN4654ebgu/zo/V4dP1xtE2pjq0Ge7pD2tBvZ38/DygvVpvUd9Wp4tBCyGo6hYfSSrHnZK9RxGYdYLUrg/j7X4b64fPU7iUQ1Gb0qR1e3ewPE80t2Hj/Y9j818UoWLUWneWlyP92NUq37IR3ehxTbc0YKSzBqaJiBNwO/k596I/l8cdys6A0Vz9/gBQrCS/LQJ749rEJfJ2x3XictWW5QsU07K7h6yhJmp6rUDNBwkfrue9sG8HidSdQMzrN91S+7NClOBhjnOfOB7y3GfqeNYAto1H9UPlWObqZjzBWbK/Dgyn5KDk1ThJvhQZZhpPqPj4fumf8u58bJtxiVnGZeFwekwE4RUG9paIbX+yrwtMbsqnAjuPh1AIqlQI8vv4IPjtYjpXZ1fjlRB0OUthndw6gz+lC28F8vP7Pd6DpRLGZ/xD10sgIeigfp5G64hO8e/tChLUVOAmUIdJzfeXCYaez139iWLJNnlbWN/v3a6lHUTQ4ybYA5ktknvKZ5WANCbNcjXJXWZHuUdlO+LzocfvQPOXH4cY+7KjpRWbtIH4q6MJrNAyWby/EyzvzzMTal3cWEyV4aWcpXtxRgue3z2JHMVHKv3l8SyG+yq5HZl03tteews7aLlRP+NDq8NLAkhdZYQKJ3+VSwSKgrDe+Z4Tvq7hd03+oy9Q/FD5iwmKoB00/Zxklus/lwvms/mbqV32J+ZfRKq/jtBfY2z6MpzYXYvHGEjySko1fa9rRwXfysny18ZVGZDT3TYSrmv19ybpcLNtRZzafMkRL/UxyiO1C5FtEXs+ZajmF9Aeex6q/LEbdniMASa2uDcY0+qOylcy2CGPC/LL/aTncoekAlm3X5Nci9Lp5zuhkyQQLiX57IbDvJzKv/Fvr64t4B0AhA01WHGg+ieDkBNs72z3flda+8eYLMywLEfkoeYKIW4jv63U44J6agmNqAm4XDQHm3YTdyAHCe5q5UPwuj/OVJPN6T9MG2Baikp8xoG5oAi+l7cY3lGN1o5qEqfebZlt3M5+qY8pW5k/9Xw4Uxar3ByNYvjkPW6rbyAsUxQCWGWgAUk7AGqEx/ZRlYiaMymHB44lgRkVUHqYNCWwrhDV3gkSf9wjw/oc7+7EkfT8qx7Tyy+l6O/MdLwVknGsJWvX7EfLWDRUn8cNxyqm0vXg05Rg+2VuApikvHDQyPGG+N+XjNNu42zmOnPRUtB86hv66k+SXqufEz4iH/S4X807xaV5k3iYqVviMDwdbm3FXajnu2ViLkyR9KgQrTl7XsyGwQ6hzKJ7SjhHSTpNf5DTjnsxKfJx7ksRfSkKKwcPzbv6OVXwJlNu5IQ8llStb4NrKDty6tR5LMqpQMThhhtLMUIwRHpbQMYXM3yS6l5SnNpfSjp+lgyNYkFKGB9Mq0TLpotC9PI3tfKGU6PjZoPpz8r0b+T7f7DqI9zbvwm9ljbTgJ82KIpocZibDmrYgr6ZVZmaSTUh/y/NgkWszZ4L3k4d/ycYinKSlaxMvq0xt6Bjr3iaIvyOFes5p6P7yCGh1GYVpGfB3uq+bxzbX9+HRjcdR53CZd5kJzt5n7lnWe14W2Pk031UGyifzy/dxDQxi3ctv49cHnkT78TyEPQ70tzfBPzmOvtJSDOQcR39uHhwd7VQi1vtY+bbvd24onYvMm7WAw15D5k9NOrBy615k5lUZT4tHfVYCLGQZ69rBWMaoX22YedASkAfb+6n481A0MGlW51H96nn2M1Un8vKbJRsTgW1Gu8ueCY3gadJbjHnTJl3yimpXZn1K3oQjLra7IN7d0oAlKTloHHHMkflLhd8LVMuQ11r6biq38aCGef3o8vnQ4Q+gfsKFFrbjgcAMJsIxTFHbaEM8L99FE98jDg/WPvkmlv/3vyFndQqcrafg6D6F7R9+gdf+5RZUbt9rFBelHXxUfMZbmSBP5wM7JTp3LljvGzSk1cf3XHmkEFV8v3GSee2WqaU51b/NRnGGyFtD7pLrCiMzEyDZx+WJU/yqITm6F+W8YpK1RvMYFf0Y8+aIRecwGY1igvef4Oc4y0CYoOJ2RiPw8FOE0R/TBueU0yQD1lKeLFvVDdtione5pDDPmwXfX2Uko0fL87FA2Fb1N8uF5SGCpN+oLP9wn7Pg9+3t8r6PiFuYOsoHi6iLVDpJlvJ7J2lwleG+lELcmVGC5Xsr0ECS4jMGLeWPluFkvWtTyOe3FuDedTlocXngYd2oLRhDlPWhT63sFKDhuunR17DnHx7C1n98EMee+whjdS2mnOTQ0MiOIfPSq4ne2fQDkV4P2oZdWJB6As9tK8KYV/m5PGQ+HlrFRMs2WquyWHXbeOgo9t//PPa9/rFZclYEN2p0HPPAcjBknu8j7/sMZYTf5YJPZN4xBde0A15553ku4JxGVEtxS5ayHCQzrbLgsy+i/9sp0bkzYdWX9V4yRjVP0UmUDgzjnW3H8eLmEmTU9qPfJwPeKgN56BVyprh55VkTQUfYlr4+VoltNS2m3jXBWu+gctMGci4Sea005gIRo2wkKLETwmWga3kdQYlvdln2kxNK7mtnZi0trUmv7+/MxqCPcpn5UBuYbxjleYNyzBg81EGau9HF8lh1KBcfb83CroZ+9FLeqxyM45LyS3NSnCwnF/NsFkkIkMvynDiUqd9Ez7jEiE/zJvMi69o9VR6sba1tuDu1Bo+n55MgWAVrew1sj6k8XGajIFp6Hio+rQ6xMqcOd26qxYfH2s1seSnzACtN3kBDYK5AAWhZTQcV1nt7qvGnTfV4P6+e78XnGwGW+DcJIbJB8uOS0nJ68MqWKpZJEyqHnSyL87zXZYAavVKic2eDyIU6qcKoBgJBZJDIP51yAI9uILHfU2IadNd0yKz7rWE5Q+pIBA05FyFUW2Cdqi5No+c9K3vHsGRDCfY39rBNULixoZslLtlZ7L+tVUtm82FIpHWfOYI8C2Ns8ZxWHtHcDQtWPYi8f3asFs+kHqXQIXnkvRSKYX5r3/sKQu3fbBjCth0lWfKTRLsnxtjhXXD292B6cpBGpRN91RU4dSIHrXnH4RkbMjGaxmN7Hvk+dz1LAbE9kjD7WV7aTbHN6ceKzGx8vEOTtidYn1RmIZJ91ruWs5OHXkaSCWOhsOpk331kQzZSihsMcTVLlar+TR1Z9aS/zShOIrB/aXmuMyElak2SUx4tBWJB9Sql4kbHhBsvbijGW/vLMBLRsmSXn8wbAhGUXKISp6C2NsHjJ8vEy7Lys70F5X1hHzGx0ST+ar8KP/HS8O08kItvb3sYn/4/f8U3/3A7Nj/2OnpLq+D3U3VRhsqjq8lQev9EeTof2Gmu/5wPWDcyjIMBHzr9PmTklSI1pwSFNOYH2YccrGMZc5aHTvWosBuFIrLOWU5SfkHK8QAVuHQD1S/fS2SPBhplgGBWHOJvzbC7fmfuN9v/1QaM15NtbdYbrhhuy0hgHbAeFMYhWLHaCd7hkoKyiO9kwxgqRr9Z4RLy4Jqwidk8nW3U9lz4fXtTeSS+LiHUJxIdPws0UVBx7EHNg2AfjMxMM98BeNh2O90BvEOZfuea43gwpQTPp+biQEOP2Rl1gv1Mda3V3d7mNQs35qHJ4yM5kxfbx/uqHER8LGIjkluyfhN+vmURdj30AjYteBq/LXuVMm+S91GZWnVnjfIkeGeel9c6FvbQYHfjnox8fHC0nG1P9tPlJfOmbbMdWiNPlDsspxC5QHHGNuz4j4eRseR5knWLzBtiqz47S+bNyIdGM30kc26a6F5e5+ffPCavvHdyClM9/Zjo6zfvryUh1favKJln/ajO7UmlFGrGyAuyjhVS1zXtxVfHyvFgei6eyCxBWlEnel0KmSY/4/VmJ3QRVcpnD/vDzoYOZNY0oonG3aFTYzjUPYHD/VM41DeJH/NP4suceurhenyZ3YAv+flxdh0+Ju+z8cksPs+uJerwWbaur6ORUINdrUM4emoUOT2jONY3jPJhB9LLG7G+qNzM2Uj4fpcQmsOikYIYZb5GLGUIe2nDszgoBwAf/9acIiMHacCY9sKy1d/SD+JCko1eto2E7fwyID7Nj8zzxeQFdSnTEeCr3CrcvrEGXxV2UFlL2P3xN4bMSyBHPMbCUmXsbhnGLRvL8FRaMUb86jTqSFZYjuW1/eN9LjWiQTe6HV48tqkGt5IkbG/pg1vk8DwmHBowzyKWWp5NYSjv7SjH3RvrsblM8WTnea/LAAk+pUTnzg4qWQpPhT1oCboRWu+FfePskLV4iIbbo6mFeH7DcazOqkQBy61j2oMJXqvNbwwJMyRUnnuRfDZmYjgwY3Zv21zRwnKxCaAl3M0sekF/SzASNpnXdQq7mPvUuVnFal2v37GcTafRCg0zeHdfET7LKjNLKkYV+sXz5zM0fcnAZ5oRBNNv2LYp3P3aUIiKcGyoF8W/bUDZhjQ0HT8O72A//I5hBKbHoaXx5nbYPY98K52NzOm4ZUSxrEhOdWw6EkXzlAcfby9mfRYgo7oHnYGwWU/b9FmWuVljW5ObqMRGaQA8sfYAfsuv5fvIs2PFX+pTMJNPDWSI2NAustb7yDjR0mhnQkOqMh60N4XiI838GsI4AVgWgagXDWPTeGbNUfxSWGc8un6zxOnlgtW+BG2446PM8rCs1Bdk6PjUFvn8mQAJzCwifnnseEyEntAOsCG3C92V1Zju7Mb0qR7MyJCj/HTyfWJsC1oRQx4glWHifMwfdkp07u+CbVPGmuKCXVEPJvnO+2ta8Ur6Hry7Ow9b67rQFYzBqWF043nnO/JTpMxazUNyhm1AXk2+m1dxroTi6iP8rk/FnyvcwgrPsJ47R+ZFmNlvdcw25gzxZ9vQxEGFL6ic7GXq7NjaywVLrsTDkklGLund9Xzm3by7ef/Euu9ciCem50tO50IZ5wnt0hlj2cXCMUPApYvlddUW/PIkDpHUbSzrwKPrsvHQhiI8lpaHt/bkYXf7KAaC2hk5hu+PN2FJSiGa3ZIFNGCYB3l3eTMias2jG5vEeGcHPONDaD2ei5+efhk7P/gKoakp9h/VO58pmah2Y/Kh9qMytcpV5zXHThPaq4ZcuCe9AF/nVvL6qCnjP5aXPu2/LxKmXcngFDFjXtXW+J4Rrxt1Rw5jvO8U+66WX7TasFkKVfpOZJ7vEaVBr2VpY345j6x2o/cyRN/twXTfIByDQ+a48czrPZR33sPuDxcCO/3dNqT6Ut/isxXWYgwx9i0zf4H1p3J08G/FwS9Zn41FG0vxxvYSFA86MBUD5THfRfKe9SCnywD75lf7juCVlO1YuO4EFtAQvDellAZhIe5PLcVdqRW4K6OGBplWLqzH7fxMhLt5zd2Z/Mxs5PX1WJBWiQc3FmGp9vwhL3s4JRvL1uzDy2m7UTw2SjllyYnLCtaHysmMxPFdte6wVpmKsr1rVCtM+ehnm9QmZqpLhZQrLMcYgmwbkueWTL94uT5fxKd5k3mtxaxNltyhGD482oiFqY0U9v1UeIkbk/Ho6HfGI6ih6CiO0oq7K60KS9cex5CPhcCGoR3pRB7softE97pkUGEHp1FyahC3r6/EY6m5aJvQ5kJaTot54Pl5C0wJp5BCSUgw+Lm7YYgNuxYbytpYTn+ng10BSGAoJTp3NsgTZilSClDWmbYrd7Jshgl17h9yGrEsJReLfzuCh9cewpMbDmNDZRdaffLmqKGrw7FOKRxM6A1/pyH393cWY1NFMxu92pG8xKpzKWg9U/VuKXdNdtLa3iLmagvaal2KR54BrbAgr53q0FLqvIc8KuxEGnYT4fr4EI2zk6cwQ0UUoxFhBO8Z73glYBk1s4SeeRWh198+dvzJ/h5U/LwWdT+sQdf2gxgurzEEyGxepLKZFQTzzjefc6561n0UEy9DyhgKWi6L+RAxbXUE8MYOCs/0YryxpwSF/cNU4GFMs9487JfyOvtYB1rx4NM9RVibX8X6Ytkyj1LqlhGuURAZC/LSqQ/NwvR/G6oHS+D9DuZa5s2Eb0lpsH/SgNAue8GQyzy7oMeB59cdQm5XP/Nljbgkes9LA4vIG4OWfWDukzDGFWFGhUToDfQ3+zrzrjLQDsSuoAd1WTn4fvHTOLomlcSf5cd26iQZUMhRLKg61goQfH+154T5mD/sdEHtXP1IxEX1yLJWSIvmAYnkfXOsEo+mHMULW4uwqakf3SEa7aozKjE/y0MKT94+GQOBmOWhF9kVrHh7ea6pBFVGbNsuticpQJEas5SkeXfWO9uHBeucCL28oPLWm/lXvM4ardG5M/J/iWHlQTJKsL9bsEinYBEhQ0iZ/0T3ORfiienfJWJnQm0w0fG/A4tAxz1ztixlNE9Rn+d0DGL5puN4cMNx3L+pBgszqrFidzVyWgaR0TiAxzMK0ebUyIlklEbUyfI0OsVPj8uFI299hpRbHkTzsSzEPB6MneqHZ3LS8AUHf6PnxUh0jV5R2ZIIK7baH2O/kYeTRoeMQRHLirEpPLohG/va+uDgOcsxprYSr5dVbudZdmeBdFCE7VEjZmbUbFauzZDMN+afwOTYAN9Z+xrISFU7FKmnPFdbpr6KkMSTAFBmaURP7V9t35L76pPy1Pt9CjHl82b7mt8jGaw+cOHvYCdjGCQ4Pwc+xyLzlLWE6bcqS76z3smaq6D5U0BO5wCe2Mx2QGNqWdpxbKlqw3hIDhbtNQND6DURusnJOm9sN5EWq040YmVeE34obMHzW/PNLrEPkSMsWn8Ci9fnYuGGXDwwhzzzqWOL1h/HIn1uLMBDxFIaEh8drsVPuU1Ynd+InwprkVHShOKBSYxR/2hSfsL3u4RQSKFG3AKSZVpWPcY2SbCF0pBlX2f9m7k0pi1aI3dmzhXllWSh2X9A7ce018TPuNSIT/MMs1GowLSxNt2+GF7f20QLqhrN43zRRNcTUvJq+JrRbkh7cAa5vWO4h5bbI+vyMOi1GpKGeedCNhLc59KCwoFEYdVxWoUby7Am/yRczEfINFYJJ+ZBnSzhb38P5VUeT4066P0q+iexOL0aP5d1wXWJBM3FQinR8bNChEpWqLFEKXiNwCa5V+hHwAsHO33lhA8ri9vw1OZ8PLShAIs3FLETl+G7Ew043j2MfjZydT43lZ2L14vkbS1vRlpJg1kzdpIYj8aMgdBH0lDM3+SdGsYJgX8f7xlBNnGiZxR5s8hnu7FR2jWKys4hjAWjJj8K33JT4AxSsXy6Lw8VfaOWp5TvYJbTS/SelxtSuiJIhOWht6ARDH/Ug5pdO9C0eRtOHjmGwBSNSfYBkVsjZPU7Xns++T5XPatfGcVh2vbpe2tI0MXvdVMuvLNLK4ecwNMZ2Tg+MG68LyKmURpEZuMtku10Cte1x8v5W9Yp69bLep4mEZdwH2U9dLv96HFrUqSFbpf7NNw+c/5MdEz70Oryod3pNUuQTUZ5T7Ub1ps/4mIb8mBDbjve25KDUU3AI5E2w9xx73dpYZF59QOFcBmP1CysOQUqRxkgPG/aGBW6PDMi5ywnkQ9niHl+YwVW/Xkxvl/6HEIkBXa4lci8rpPRpomkcmQkzsf8YacLJXoJQYXWTXm9pWUAT1GpL/o1C69sOYHDXUPstxHKPBEzzXmIsJ6o/LShDt9FXj/NCdBKPW556/Wu/mm4p0b57mpHAYD1LMeJDFxDjs98dhJnxd8lbudAPJkXgRXBozVKcqId2qPoJJv7LbcWS9dk446UOty6oR4L11fgyR2NWJJeivoxhyHzEf5Gq7Zo7oCcPb6pMay5ZylS//VeZK9aRTI/xn7hgJftXf3VL281+7SZc0B9EmI7Id0BWwsJUox9QJOsFXvt4v0DyOsexFMbjqBoaARuszqe+vvlJvOzRJ7PEplXvy7bvR+HF72IY8+/D+/QAA0PL2bknRcor+UokhdX5aH5HHLgWXMETztv7E/1Tc2d0go38tIPtXfC43AYYp0oT/OBnX5fLr/HXJ3bx+Kfx7xZYWQaCRWZj5gVjJonJ/DZ8UqzQtfDG7Pw9aEaNAy6+B4wI8y6hxY18UY1AVSeezkS2A7YjuT0cVPfu3lf82lgzZc8E9pZ10toKVJ912admjOjJc3lFNTKOPo0q5fx3MW0/fOBZbjzWQb6m+Vrysp6vnEqmOv0fTZPum72tzbs+11uxKd5k/kYyZzWIe8b9eCxTVV4aU89JoOyThJcTxgyH7bW2tR2yJpYpxioBzIq8di6fAx4SOaNMmDn4LnzJTAXAt1/jPl6ZU85lmw4SmLYTwVDa5kN2VLkiX+XCLqXUWSsUFny4yQbD6wrwNObcklwrsCQ0DyglOj42WB1fHnnZa3PmHKRASdhZD4pVD28TjGVTdN+rC7twaNaqi+tFvfxczEV/1sk1Fmn+jBExS2iJ89sw6gDP2eXYl1xI34uaMKrmbl4Jj0Pj6flY+mGfDwoqz0lDwtSCnDfxiLcm1JshutuT601uC2F2FhjcPeGEjywkeQzQztWZuOFzTn4segkVp0oxq85VWaLeQ11+Wldm454KUnOfMFn2t55+/kS6i6WrzfsQu/hw2jesh1exzjzaXlLpEDMclbmenmzrd/NB+euZyknGmNUJmqrGvWwPPVqo4r185nJba/tKcHizSV4amse9tKwGmUb9tJI8pGYzQSC6JzyYEtJDUo7B1BwahQZRc344XAlvjpSjY8PVOPJjSewILUS96dWGdyXUjmH+1PKDRak8lOY/X7fhkIs3HAcD647ipd3V+DDY3X45GiN2Z3wBJ+T3zOMLw7WYHtVB3xaDpDC3xq9SPSelwK2gLbK3xpVkEGrUQcqF5abvssbLbllPDQsW+NBDnjIjTQpm+2+uQN73v8GbdkFLDvJPip+1qubBMBFMiDDwFo5SCQlUT7mDzslOnfBYHuc5ud4DCgddePtnUV4eP0JLNxYiE+P1aN23G0MaSlkhWFp6lok5iMoS+XRYplEqC8GW5pRkrEZ+974EF3F5dQFauPWyJ/l6Urw7CQuC+aInWSNyDXbtryIMckbtU3Kg8lQBLnto3huW4WZE7cgsxn3b2qlbK7BptJWOCgPpC9B2a5N1gJhkrigG2PVbShevQ0e6nc5sqbZL/pb25HxxUo0nSil7FEcMfsT278cAf4Yf8e25SchFBHU7tQaoWOzwOaCRnyytwSDynd0mm3Eyzyz/4hEMe/W+9j99PT7XSjiyXxUhJ5lopDbhuxc5D70KorvX45DP6+muSoy76Eh4uG7eBEktMb6WFs7umtq4Zma4Pvo/UR4lV/+ze/qH3LUaDRUm05NdZ7COMvGPToyq1MT5+vvwU6Jztk4XV6JYUbDDVm24NekVZLoNn8Qv5Q2YdH6Y1j4ay5eSSvEURr2Y6wrzacLRllXvF6jtIol16ozCnWdc4b8DomfHU98zchRHBJdn0RixKd5T4DVcLLCSprYYe9dl4vVDYOGOMkaNY2X12mo3Hi1zG/4SeISMd4sdkgaAt1UyE/vacSjG/LQTzKv+Gp5LEMUIiIaxotorPDfQ51BXi155eZWyDgLLG+snqm8WGROnjRjKfMZR1r7sSiVSulgkfEsKiTD8ihpJGH+DcmQeeVZnZ9w8RlvHqzHY5kFGJOnwTxfsK41v1N+7L8vM9QplBKdmy/szjUXLmHyr/JVTHUY4xTCjZM+pJV24KWMAiwiMb83tQhLNubhte1F2FHfi15vCKOs55rhYWwqq8e6ohZ8wTJ6d3c+VmQVYmtBM74/fBRP7NuCxdsP4JF1hViyvggLU0j0UkqIUpL3YizYUEQU436S/fvZfp7YquXtCvDS1uP4ngpga3klTo6Mkyxbq6RYZExCNPG7XVbomQazIz38W54ZH4noUGsL2lemo+mHFDiGBuCY8cZdPwve49KReUF5sEYp4mHqlkaog2VW4/TilR0n8EBmPu5OL8RPJxpQTYNtktfM+NnG2XcbWb7vZGbhlfRcPLomBw+zTlRHD6SWGmPu9vR63GYjbRb8+470OtyVXkvo0/6byKgmSnF3ZhmfWYZ708pYvyV4cH0JntuUj6e3ZePb/Cq2IYXHaYhaO41acf9XA6ZOWI8i5NOGlFt1K4/zySN5aDmUiwjLKkAyGw34AJ/q1ktlJ9mjUCQSGX1KHs0i0XPOB3ZKdO6CYYgT5Sk/NcH/pMOLVXktWMp+vWhTBZak5yO99hROurw07PUOWjWFhIDERZt5deYXozlzL7Lf+Bx5r36C/Jc+RlHqFrYhH/uDHAOU+2Ruv/MUJvF3cenm/4iEaTR6NiadfdyqC5K7aAz91MdHOkfxwW45vQrZvytJ7IrwTUEnTvF3o5EYRtguRknI+z1hlDcMoKiuH19tzMLRtjHkNo3hp9W7seK1X/DR2+tR1TKKko4RlHcMI/vUCI5p9LV3BHkDI+gmKRwEdUTUC0fUh90VTdhV2won+00k6jHt8EqReQMdYzmrrTbsPYSdj7+Gxrxcs1BHNMz8BJw05F1wTQ6gOfsYqtamo27jFnQeycH0yDA8jkmWq7iIj+SYMp/0XysAahlPFwn8UG0jHO1dNAQszpQoT/OBnRKds/H3yTx1AmH0wyxvMjyK/XiIOvtAnxPPbC7HQ2vz8HhqPj7NqkPluMcs3au8a4J1iH/LKDtfMm+H5EnWyKgxE8sJ0xYTXJ9EYsSn+ZF5WdPs+PIwpRe2YhkJVcuEj9a8JolRGES0jTUbrIaeFVNqSB8Vb9iJIIW7N+LmeTcmQjN4eWselqbkUEFLKfuNt0ukV7H3Jv5ylpT/AUa5zBMinCJ0ET6ff/uMRRmGj+/wXnYflqZX4ET7KAKBGGIC82xW1Dgf5cIOr1VKLG8TOy478KayZixYX4yKUSotvuuMdlBVzBk7ht7R8rpeGehdlBKdmy90j7OVien4rC8fhbHWXT3lj2B70yCWby3AkrRi3EdytoCfr28vxXEK8VG2lWEaTGoDWk0h4HCi9WgeatbvxsmDBZh2OFA3MIri/imU906heHAcRcMTKBqaQDE/i4fGUcLPsoFxVBFDgRlMRaMkG9aSdtq1TRNTzIQdkSSRVyOo/pj3K4X4sC2R+YDPhYrUbej6aTPqtu6Dy635Ghfnab6YevaxX2mlGQlQL43aFkcAr2wrwP0k2PdtqMAL2yvQwGOh4Axifg2LaoWLiJmI2jThQWH3KI51juFIx6gJXfs0uwqf2MipnsOn2dX4TMipIWb/Jr48VonvjlbgK9b/hrIWZPWMIpvI7R4hWZjBQCyMoVjIeLTl7dXmTvKIJ3qXKwUfny8i76XCk7zTvIL2okqs/Osj+O1/LEZXWQ2vCRgvvch8QHOGqMitSZ9s91RelmPBQqJnnA/slOjcxUAESjJRXlwv++5IMIYTXcN4ZV8x7k49hkfTi/E8kVrWg15fBF4v5aHXh86KGhz+YiUK3v8eue99g+yvf0bZ3oPwj42jLGUrcn9L53UBE8p3MWTmpsQl0x8a4dIcB42sUzdJh/O4iK1Wq5E+10TnEeqv470OvLjlBOu8BHduqcUzOwvw0vajeGZrNp7bnI3HU/LxbGoxnk0rwlubK7Ask9hSQ2O9EH/V0pebanFvZgMeyKzHwoxaLKSB/0BqHRamVuFBrXWfVoAnUo/jrW1FSCtoxI87K9E45CCxI58weZFeFuLJqT7PQ1efAxaZPx0zb8JmeG/TVylzwhOTVh+e8WCk4SS2v/sRavftQcFva1D0xQ9o/H4N6tamoXH3XrTszWJbPwCfm4SfMsKjuVAi8zHpIhLkrg4M1NVjrL0doYAMlcR5mg/sdC4H4dl09xykHyVPCVPG1AcawdUKVBpFmUYE9VN+fHWklnWVi/tYz0+yvrbVdWM4SD6ldqP5MmxHNnmfWxFsFgmfS8STeekfm9DPh8zbvMRGomtuFsSneZF5hV5ESdaiAT82F9Xh2+xaOH0+swpCjB0+piXatBLHjIvXu6l4RdS1I6PWt1YsmVY2cGOaAvyrrCo8ubYQfW6tgKC1a9VpnYiG5HULsNP8Ebb3W2TY+vz7kPUcjI6ywbipNBXGE8DUtB9Pb67Gs1tK0DGtyXYkKSQqZmUO06DPo2EYMk9lR0NAZF7WbdnAJBavy0NB1zjJPBs5EQrFDLQMlDFcEt3rMkEp0fH54tydRcre6vxBloGInra/H6GSqBiawkeHS7Eoo4BCuxxL1hXjvX31SK9pRc/IBDoKSpHy8lv46i/3YfPjr+GXB57DqjuXovtoKespxraguH2rk9uwn2smSoYVCsRyp3Fp4ppFlBWfS5hJSgrr4u8vBVm6GMSTebU/bfHckZWPutSdmBgdYnkpdO3iRw8utJ41suRj/uRNVdiHj+Xe6KTwzmnEnevLcc+GEjyXkY99NX1waUKxQiQofFXvVvkqrjFq9lvQ3BFtPqQ4SEGhPDZEBgVzTRz0u+kIMMW24+B9XDTOtJuglINCMbT8oSZThzTaopAf04fOriCuBETirbh3OSIC8LLseuua8PWtj2L17Y9joLGV+VT5yDtveeZV92eOithI9IzzgZ0uxb3iYWJEWfZaS9vapl+GMo051k1WN0n9lnIsSq2ngq/B4o35eG/1dmxduwEddQ3Y8tWPKNqwGafKKjE+MsQ+MIPO+kacWLYCh558G61l5WZCZJLMnx8uVR2fXg5W30XoZmW50YGa7CldLrLGvhkD6iYc+OxQPR7OrMFjGUV4fHMJHkovMyT85ZQjyGmbQCNJ/9iYFydHnSgdd+GnmhHcs60cf9tSjbsy63CfVjDJrMYDaaUk9BYeooHwRHopns0swfIdhVhXUoctBU0YcrnZPlyUjQoDkR6yYesBfZ5NL50fEnnmzfrxRr8o5t8PJ40Kedrz16TjxHMrcPzFd1D86oeoev9rVHy5EqWbNmGqtwvdO4+g7cAxeBwT8MBn/mneiJfEntISQecUprt7zae1HGbiPM0Hdkp0br6wJ3vbHvo5A551r5EErUilch8lf1nFelmaWYBFmaVsA3n4LrcBLf4Ztg/Fz/+RxNtI9FxBbe9sSHR9PGxecm5+cnMgPs2PzLPAtAGPJokeaBjEm9sqkHKsAk2DY3Cw8n0UAOEQlZc81bTYFAMvD6kUvtkanA06FHZTyYWRWdmCJ0juet3aUEKrPGhpQ4LK3PxGivAMmDAbCpp5Q41U4TPKM5+veH2tiNI7NoXH1ubguxP1cLCzxoIegnk0xOE8GwZJkNlS3njmNdHXjwFfEK9sysOmvCr4/DpvEXpDQsJUuBrdSHSvywAJfqVE5y4dVMc2+J2fCsFRO1H5VgyNm9V9Xt5ZaXb0+3BfPnp6RvDtP92N3R99Cw/rI+ylEeeaxN6PvsJH/3oXXAPjFCZWqIzxOhB/6PCqJwpcE/PHNiWPgFkGj3VsvDmsD4ts8jqTz6uDM8m8vLqBoBcRt4dEUGu+y7urNp749/OF0oUINfWNaCBmvMszYQ/L00uCHTIrE63MP4klG7LxQAZJ28YifHekGsM0fD3sLxr1ClHRaZt4M7+CxHyGbZxf5xCkArARCJkFH/6AAK/TBCo/SYN2FFQIiiEsqnPexKy0QPJobVTGc8IZ73DFob4eZBtjvbmp8LQDYMjnw2BzB3pa22E2kVG9s641MVaGvpnYfFYkeMZ5wE6Jzl0UZvuYtQSlBTlT/JTzmrDW6Q5jdWknlXuFCaN6gIbfS+v2Ye2RYpzqG0dgWms10/gJuSkH2Uc9AZz4ej2yPvsFUyyrjqN58GmjnajVbhVfLFIZvcjwgxsZ8/Fazge2HD33MT3L0ouBaAQjnjD2VLTjifW5uDuFpHxDPvY098DhG0VTfg5+vn8pXv/v/47X/u9/xZan3kJvUZuR/zkt3TjQ2oMjTd3IIvLaepDX0YfjXf0opawfjsTgjLL/x6j/yQVMPDbJoVl15QJk2sXCLgcbxoPMT/EfZ98Qsn5ci8Jn30Pdy5+i8svVqNqyB96eQSMP5HUf3HEEQzV1lGmU8VNjONVcz3Y+BVfMh8mmVkwXVsNn4uspH64imde7ySEmo81aJlaw6zzKetCKLiLjNGgod7WB3pHeUSyj0fVAeiEe3FyOZZtysa99ACOSz6y3Gf5GBF6rWM0R+tlnCbYBZp4tUJ4YBy3/jvfU/w7md78/ZvjoLK5GG7mWEJ/mGTPPQgtGKZQVI+lGwdgYXs7IwuL1dfgoqx3lY9Mm/lxx9SLzWupRa1lLAcdIGMxSZGFZ+0EU9w9jYXouurwiMj4zuc5MHOM5LcavWdFeKnF92pBHSJ6hGXZ8fSrmz3yKHJtPC/IAKQ7fTFhjpUf4TO00qwk53hkXyofH8cQv+5HVOmiIg5aJi4XYAEk4RCATvvtZIQIkI8VqlCobF5+772Q3fqF17iXxifoscjsdk4ETI3FS50h0r0sPNXKlROcuFfRu8tYqFtgQPJaDIKNFXluFlqictVLJ0bZTKO/sQtZvq7Bn0eMIT4zCOzKMo+vXYmqsH8FpJ9Y8+RqyVqUaD68Eiz/qNggYeAzCbH+RGcEzB2v5So3wsE2JXIlAKy8J8nzVwPxoAyVnzBJg9nf774S/mScutJ5FmM2Saqw7M7FUHjm2aZXhGOt1e0MXlqbm4t7UYjyyMQ9fH6zEKZcmuGnnY02As8iejXiBa3mjFTYno8pqI3bMuA3TRhRzSfjklafwN6NovK9ZCcXEx2tZNxkaGvUTLi4s6WIhoq514o1HS0TU6Ya7bwR+rw9TIvCUN1rBS0PWKlMtxXo67lfkXSQ/HomfM1/Y6VIYBvOBJvmZzVJYf04aYse6xvDmnircnVaGf99Sj/syK/HajnIcOtmPcbYv7TqsrdnNzsLUD+EpJ7a++h4OLH0Z1Rl7qDO0uIJGUjVSq/uyTNSGEjz7ZselIvPnC0P42CfdlMsnukbx1rZCvLhmDwrburDnlx/w9X/7E479sBLjfe0Y6WxBzhuf4bt/uhUtRfmUE9NoyMtDV0Ul3EHKc1A3sL0qzlp7SshQlwfcJmaGqInMzyJRfq4EbAI6RzK1P4SfPGJgBDkffIXj732F1hMFbL9yILIvYAZt9bXo33UMXcfy4BoaxOCJEoznlmG4qo6/96A3vwTeolpMdnUZh4AIbaJnzwd2ulAya70fy1ttivewVmuZBd/HmhwrmS7ZbtXLJHlMwegY3thxHI9vKsbCjFLcn16Mb8u60U8+p9WJdF85MGa0EhH1doz9WpEP1r4iIvqzhtpcHizYesNaJjcISnz4qStNLD+hsQ2PVgubDVtS2Vmjt1evjVwLiE/zIvNSyM6YYpOlpD0U0AF0TjiQoa36UwqwILUI3+XVo258CtMBVpSPxFgr3ZAkyPMtb7lWtNHyhr1eFx5MP4R2twuBACvcz8r0UUkHHSTDfjhCWvVDBFykQQjDwU49zgqeoPKc5N/6PBtGeY8J5tcVm2beXYZIa3KqPIlbS1vxKa3JMeZNjVPx7lGRbK2UweckevezQw1UZIONk41Km1EF2EFbHV58unkvGscdZskvLdPkVYegMpshwU98r8sDpUTHLxVMJ5QX0hAJi+BYXnGFNsnQYbkS6sQWcfUg9dVnUZL6G7whD3Y89wFW/6c/Y8crHyHo8aJ620GkPvcmAjLyJOAlAEQ4+WmFM0kgSLBYdWWEDD+tWE99Wt9/l79rBMYDwfamvqQQA3l7tGutjiW6/nygdCFC3exuGmPfMwKX5UxDXIap6lIhOBOsu6OnxvFM+jE8vOEEHl2Xj+/3laFn2m9C5hRmIrIdNgaV6t8qc6MgjJEio0rEVvWiumO9GaNvFrqO+Zbhplhya0K5zuk65imk0S2WFY+J/Fsbkul3v3+PKwspEr1TAFGPDye+XIOf7ngM5buzEPbPknN5mI0Ck4JTrL9FUuNhk/nfhw+cxpkjEPpuI/64na4YmWffE3nRu+mZ2kxraMqLH7ezfaQV466UatyzrQsLtzTi7YN12F7ZhtrGengo6z3s8wGPEwd++AXpz7yOpuxcuCfG4R2f4L1IimgoaP3uJJlPDEvOJj532UH9rX0/vOzXY6EommnAjnUP4O2/3o6TWYcR8UxSB1LnEuHRYRx651P8/NQL8DvHsemRV7Dz6XcxTvJvdqKlnpYMJAEASIZJAhKS+QuRaZcKtiyzybzJCw3PCPPbUlGOimPH4JYDT4RzhlyHOi7scaO3uhZDLS3oPHwC47tPYPREGRw9PfBR9zlHh+Do7jYrAJkdti+indsp0bnLBe1gO8q66qNe2Nc8gOczirA4vQyLSOqfzzyKI+19mJTs5ruprURknGvlH0Vm8PfSA1GWY1Tleca9baispQuMAUWZEGQZW3MWvPDNuOGacUL7ElgjnrzuKhp81wLi07zIvB0ioDVURdakZDWp009BXtA3gTd2lZLUl2FJajW+ONqEujE3tKuYLDt1VDPkzN9o90MXK+en7FLUjY6atcV/LevEr6Wd+KW4Az+VdOPt3dV4IT0fr2wpwfLNxQbPbi7A45kn8Mz2YrywuxzP7yqbw3M7S2ZRimd3lGDZ1gJ8XNSFb8q7sbqwCz+UdiG1qgX1Q068vOk4SplfE0utST56n0jU5CsqL/sZ731uSKmTzPMdIywLheyEgy4SoLBZxumljMP4vrgSHS42ar92twTcsd+H2cwpZ9NwLy0kfJQSnbu8kMKxwe+G1IkEBODxu5D58vs4/lsKgj43infuwcf/eBsK12xCmEZeRdo2bH7lffj905Txs5sbse1o1ZCYWc3EGukwQ4F/QHwerkHMloONubrX9/jrLgCmni/gPtYqUfKAywiTgBXhnj3HNumNhTDFNlvaN46PduVjyfpjWJJWhA8PVqF6YMrsaOuPUHkrvIl9SB5oGVVm/wjWkyauG4NXpN7UG2HIug09yzIGLfC7jv0BNsm3f3P1oE2TNJJoRuWcDvxwx8PI/PNS7Hn1Y1MGlhLSNcrrDLTUm9nS3vQHu0/Y7ytCLKXOv1l2Oma/s1b5skY1TsM+Fp8fO8Ufu5ywwtpkaEuZutknvfCOTqBgVza2pubgo7Un8MiGctyeVoc7tzRhYWoBvti6D/ktPZjyqw9H4Zt0Y7itG1ND/Uh/80PsfOVDOPr7Wcez5TdL4uTFswne1SR2Nz1M2bPO2c/DJp5eI9ERHPwlFesffQlRyvWJtlasvH8pNr/2Lqa94xg51YGP/v0e9FTWYsdLH2Hr+9/AOTRm5IK8wJI31i6/lpFvje6druurXd96RyML2R7VJi2CqbyrDyikmPqMskDx4pp3x45pjgVDPkw5J9CcX4Su7EKEphzGiekhodVcGy14oD0YFGJ8MXrfTldSHppy4KfmLU3zlRsnvPjmcB2eIJm/J7MSi9n/11e0YECjcOSGWlc/JB87Cb0cRnL4iMjHKO9sPXMmfFrCVNfQ2DMbMPk96KmpRTm5Qm9pKU4ezULx3p1mx3TdUyOFN7PxH5/mF2ZDJaPhd5ErSzGzQkXmCTXenik3vj3ShPt/q8Qd6+pxz/oKfHHiFE5OaPUJ/s4/gmhgmqSMliy/d7u92JBdgid+O4z7N5Th7pRS3JmSjztpDNyb0YS7Uhpxx4ZG3L5eOInbUppwa1oTbk9vxm1pzfxsMbjNfOd5Ib0Jf0ttxF821OFPaypxb6pQg7vSarBgbQ6eX7Od1mQnHIZUSJFaJEZCSgaKJs3+8b3PBV0vZcxOT6FkPNIsCx87V6cvgKc2nWCeyvDS7iJ0umRZRlleGoaiUDSNL0yDSKEFIfg1293c78xnXASYD6WE564C9H5a7qvtSB4+u3MJBk82maFH9/gIAr4pjLWexJe33IfWrBw4RgdRsDYTw+X1/I0mEFII0Ci0CU2i+9/MULoUym9OkaqPsP2IXGvTDhfbbZd3Bp/t01KU2ViYXopXNlWgamCa51U/TmhCl8i8Ji4rjl7GvsJqzMjDefetaxda/cdHWejUCCXbb1vGfmx+6HlMjw4ZZaVyEHHXpmsxjQBqErwxQiRDBd5H0P3Md3klVT5WGRmjirAJvLn2TOj4LOw0ZyhcZkgJm0lyzLcMEI2qRNk+Blq6UJVfCAdl+46yBizfUYD70ytw2+aTuD2zGg9RxmeW9qF3VHKAbSzkQl9dI/YvfQMHF7+G3to6BGjEK8bePIf3NQsf2G1yFmfmJ4nLDyMP2Je1J4bat9lcyefHzu/W4OiKlWx8QRzclIkf/48/4Zd/uhODvS0IOofx/X/cjd7qcrh6T2F4vB8+1W2Q95RM0L1F9qgXyf1Yt9ao9bVaz4bES28TWiwA1PEKuVMflUESIKnXvjMmZIhweF1w+7XAAa9nX4lKJhBaQEC84fQE5AuDnS45bzgXmHfVfZQGvJal9EbY71l3v+W34/EM7SNShgczy7Eiqw7NDi1IIUendIKfxNxCVESefCchAecxhS6q36tsIwEfqg9moezrNWj6cg1qP1mJmg++xa7X30VLaQHvLwPp4oyi6x3xaZ5k/uyQsvITE+zw+UMjeCL9mCHkd6ScxCPpBfjiSAMaJz0kBFLyHhOOMuMdgYd/KyznyKlRHO4eR1b3KDa0DeD9vHq8fqQCyw+W4xVi+YEKftbi1YMN/LSw/ED93Oerh/R3HV6Z/XxpXzW+LO3BEd4vq2cch4jDLT0YpSHh8Q+zA2mVncTvcqmgSXHHBp24K6MKt2fUYPn2Agz6JKQouCQIZZWrM4c1uU/CUqMCl75TKiU6fjWgkAwfEXV5sOHhl/DdPY+idtsBs4nGQFE5frx3KVY+9CSmpkaRvWUn0m99EumPLEdEng0S+lhAhP50GdkTS+2/47/fbDD1fAbJuxDMkSb2ZU1aVNu0NlEJkWRFMeAP493debhnbS4W0Zh+gSTtWHMvJoyRbnlfVEdRXm92fdY8FJvMJnje9QgzmkESPx50IPfIIey471lsvncZ+jpbSN6t+QZmAr76tYacI+zjMuANIbI8e/LyWZ4+kQEZADIS2EdElgzBkSFkkXl7tMJMtCd03/j82MlcdwVgxdaqbVjhNp4Y8xqzVury8Jw/FsZ0dAYd3iA2ljRjWXo+/mNjOf665ST1Qh1e31KFw419GGQ7UThlw4kCtOQWIuxx4sTqtdj/+TfwuqfnCN1cm5zFmfm5mXBFiVscrBVO/PCxbjVaJ30VIVHNzdyFtOc0kurBpHsCR9//ClUZmxEITMHd3Y+P/uc96G9rN6ROu3m2F1QiJ3UrQlNOQ/IMMWRbQjCGCD/1rGumnkUQZ0mi8dKrD/JT/VbeYG2cZVbBE0llW1a/1oik+oVG6tWHfcbJp7lfLD++q4i8iVLgd23/fzEk1E6Jzl02qF6YZy0mYhZMoAGjfShGWIXabOyltEIsZF9flFqCN3fko6B7iAYcOQ91gOZmUZGbjbnkr4/v03Z92+Useae2Hpl2oW3fcdR9vR4tP6ai7uOVqH/1c2S9tgJD7c3wMh+Sn0kyb6WLJvMBKWutCBOyNlOodziw4nAV7k0pMET27owOPLK5CSvzm9E27uC1Ycz4nQgHp1gRDgp/DdUrvl4rWkRo7c1AW/wqFtNAHm0qB3mAJBQEK8b297DPGWh1HMX4G2gSlhfBkIOCQxs6KM498btcErCDR0I+aALhtyUduDuzGfelNGJdUTsc0SiFoYaSvPyUVcm8U8FbMbSXXlArJTp+NWATHIVbeZ1ONGXl4qvbl+CFf/wL3vvbAyikkHf3D+Jo9jH0VbXix0dfxvFfNyDiYLtyORDWMn8iPhSelkeD5WUIvIWbncxfcgVoPOsSqiSoJK+KpfeyX3YHwvhsXzHuX3cCt6VW4j5+ppW3sG3PkMTpeirpsDV5VfsQKDzm0m12c/Uhb1HM7zMhYmsXPI19tzyJjfc+geayUoQUGiZvtd6f7TXMa62JWlRiRkZpWJ5GrYg7y0ZD7t6oz4xWumPsF5QNXpvUsz0b4jAL4xVUHs4oSztdTPzt+UAjNQFjoJCw8J00SU2jFZrToLXLLYcFZTbhprxrc7jx8aES3JGei7/uaMFtGU0mJPPD/TUo7B/BEGW09ojorK7CJhr4B+55ArkHDpslU40Hk2Wh8ggLxiBKnK+bARfjyf17iCdVfwDbljFAWQdqh2rTGoHzsv6++vOD2PLZt5h2jMPpmoCDGDzViS8XPIkt730NPwmZQlHcoxNYs+RlHHjwFZTu2Gv6gbzZ0tcaybPr9pz5uJJQf5rtU4ZkzkLHLOJ+GlZooWDl3Xya97Fg+q5+M/vbM+9/IbDT5eANZ4P9XnY5WO8meaDVCGfQ7Q5ifUEbnkkpxOINhWYZ0yOtPRiJaJ+fKA2aCGJsQ0L8HAm7vs192a4k79zOKTTtPoLO9P3oyS9lO5pC5e69OPTKBzj+3c/weh2YVsjX7G9vVsSniybzIVlpLFQRWHnwXFT246y8vJ4RvLFTW7lX4i8bm3Bn6km8tLsOW0/2os0XhkOC36xkQMs2wM4conXOiolQGZ6GZc0KsugEaz1YHjc4ffz0OXYuXq8VMoKEthw2E+f4PM2et2I+E73HJQIbozaL8tPAGaDC+6GgGwvXN+KhjWXYYral1yQ+khyR0xCFmeLL1CkS3esioZTo+NWAiKGX9auOqhjiYJDtxacJcdPwkKxH3NMkQxT88vBO69gUpjo7seHpV7Hlg88R4DXGKxqiYSayxPamTzNJRt9vcjKf6PjFQG1SE540gdNMcmW5m10NwxEM+4L4NqcY92Tk4a8bq7HktxNIz2/ESZcHTgr1EPtgQPs7aF4Kf3Mj1Y3aXYRkPuXx5ThwyzIcWfomavceJPl2w01ZqMltwakp1G7fh4Of/oDcn9ajIG0zpru64RsfRdDjhMcxhoBjAqOnOuB3T8FHuJzj7BM0mtgvxgf6MN7di5BXspXEnv3FxN2r35yRHzudSfIvH2ySwr/Zl39PSuxzs2DeffzsZ3vZ2zyEZzeV4EHqgwcz6nD/hnIsXFeAlVT+bU4fAl4fTvy6Fvmffo/ApJOyW95MOTnCmDZLFgYsZX8T43K+fzyp+gNYv/ZokvKgUSazyQ/7QfmOfVj+pzux4anXcDJ9Hxo27cf3jz2PN+9YhJHaFrZ3D/sFZbTbi6PfrsXO597DcGMTtEFQVPqYunlGI9RqL2c+N4mzwk5Xg8xbfTtsfRffUbvhdzkmp0jY83un8NKmQjy4vgiPbMrG18VNqPOG4Ylqt33yPV4XiGl0QuFH8qxr1McPd4y6QqEzgWk4u7pQvTod5WvSMdzZRrlLfcLjJw9noTJtK5wTw2a5T2suUuL83gyITxdF5tX5NQyvWHoNd8jbJKUSVUwkCe2IN0QC24LH0wtw98Z63J5ag/tYyct3FmFHTRfGPOzIvC5qVtEgOSf51RCV+SQJt2HWONaz1IBmhY6BGhOvjYfWODXQfcKK5xQ0LExSfwXIvLyQGlrSiIW8a9pF79PdFViQWoVHUvPRMOY0q/SIHIVDCj0JU9iJPCW+34VCZaOU6NxVActF29f7+Lc9XCzPbdRDwhJwY8Yn7/sUy8SJSNAFN//u2H8Ee25/Ctvuewade46g72g+akichrraMTTQzXtqMpbmcqhTS/FTKBAiofYzf5eHGxSXvJ5ZbgrrUH9WTKImaJrlFtnnzMgKy3iABGszDfNlaaV4dGMVUYh3duSgkcRsmn3WxJaburHul/A51xFsmaP9AWSEZpOkb1+yHLsffgWZL7yF1rwCuPsHcGTVWuSs+B65z3+Eghc+RvHb36D2y9Wo/H4NGrfsxGRlNXpzTmAirwiNm7djtKAYw/mFaD18BI6qOvQfL8BQbjHGyuowXNWImWmt084+w2cbnJEvO12pMJvzhRmVMSE5MxgOhLBHq2DsLMO9GVX4c3oj7k4rxxOZx7G3YwCnRh0k8tOIhT0Y7GpCU301lX2M7681rNmW7H6dxCWH3b4TnbPJ/JxHmnVqEXr+7afBPjhq1l9f9+SrWL30BRSsyUDY6UZMK9XxWnngzZrmI5OIDk4g5JxGxOOjUeuEdu2eYf2afUXin5nEOWEni1wnvuaKQdEQJPHqn2onE6zPLn8EX++vxMKNh/BARi5e3F2MkmEHptkeFJ4UIhGPUX8j6EVU8yojCt3xIkLC7p8eRVfWMZxck4nBikoEg0EsB8gAACAcSURBVA54Aw4+w4Mj3/2EIm3c9ctafif5lzxOlKebBPHp4mPmWTlm8qe8oyYeXRPiROq1ZJ3LKP4enx+pVR14amsJFmRWYkFaGR6k8l9Oob6/rR/jZhb4JCtTw9KWkDj9qRhzD2ZirrOARPBMRAkzBKNJWopnY34MKZGXUaQv8btcCkipasa+NxxjI4wZUtRDhfzijiosSi/GymPH4Q75MVhfha68PHQUFsA/McLyOq2obMF6VuE6TyglOn5VwHYixW6TDvNuhKljHp/bQELlQMI4NTaIsaoqNKzNwMmULejbth/7F72I/QueQcGva9By6CCac46iu7oco+3NLHMnf0sjgG3QobrXM24SBXHJ61n1wXZrRpBm+4upH7ZrffewjJ2xkNlcqnrYg5+ON+ORdblYvCYfr27PR920F9Mkb37eQ94aD/ueSLC8SAGFnxj5wP7Ie855cWfvL6WvCWTmHKH2Iu+LPq8FwmqW2ZWcck1jurULmU+/ga1Ll+PQm18g+9OfsP+xN3H8kXeQ9djbOPLqp8j76hfUrlyPRmHVRrSu3YTWdZvRuXE72tN2oDlzBzq27kHP9gNs4wcwvvsYJojJg4UYPcG2Xd9MUjSrsKgoz8yPnc48fq1ABog/yr+j0gsetp0Z9AVixlP/9N5i3LOtCrft6sBdm+vx4f46lDaN4FTHKaQveQarFjyIyrwjlAceGpVa4vOP97+ZcDlJyzn1jcp9FpYDzYIJH9OykuqfcqhoZIn9W8c0GmffU5Mazd8+EjjKhiD7TnjaAZdjwuwDIyJoO+oSPj+JP8BOV9IzfzZoxFDhgerrJmQqLEcm4CQH2t/Sh+e35OJBcp+l648ivaQBUzNRaJNNkXjD07SxnHcaIdcUtKRlT3sTDcIUNKzOQN3u/fB4p+Ck/HBTv5fv2IG85R+h4pcUtj+/WSo0SeatdAnCbHysPFYKCZg8zSLyGpr3klAHtcmLOjkV4BQrr90TxKaqbixOLcBfU8rxl81NeGBLNdaUtGLcr9+wwhRHH51mw5BhIC8gLXizYZCWQhPZ1ycbgGLfZZkZwn4a1iYDfj5T+bBCOnwUGFIoliV3eRu/7q8VfLSNfSCkjbZkrfpROuTAT4dL0F7XhryfNuLrv96DD2+/Bx//9W6sW/w0mvZmI6xhdRIg7aRrJs5IECZ4xnwgYauU6Ny1AFvQGwIXB4vQ0yDyODHR3ARvZT0mKqrRXVaGgz/8jJRX3kLrgUNo/GwVKt/5Ek0/r0PL2lQMNtVioqcDw40N8I6PmbXqb6RY7XPhStazNTGTfY390E9hqljIsXAU++v78GRqEYX2cbyw/TjqHV5Msf272Q/dNOxlAGjTGK0bHKLC14Qwq22HSdZY72zzQS8Fs4d93Ms+GhBpVl+2YijNMH9cPq4k4sOEzIRVyR++R9TnwanKamz94jtMt/Xg5OEcbHziFZT9koFTeaWY7OnBDK8JOyfQVpCPnhOF6M0pRDUJfF9+KVry8uEZHcZoSzM6C4swUluP1oNZxjs/mFWAU7zWPThoPFlmq3XiTMVlp2vB0EkEs46+ZK+W6IxFjCdWK1L5+C7dngD2tw3hlT01uDe1HAs2luGplFKkZJ3ElqUfYsuDj6O58DCmBzrNHh7X6jteMUieXQWZZhwjcbCPq29qGyiFSEjnau6X2qjp2zxnSDx1ryH01Is6Fguzv/vd8LS3Y7ioFEGSerUNnYt/ZhLnhp2ulgE0p7/1fNa337QB6W/tBh41x+WEcZIH1U758N6+SjyaegJL1x7CJwdKMewlpwu44RwcwNo338d3jzyDz5Y+hdpjOfD1DaD5YDZqM3ehbPNODLe2wk/d4Q2ztU2O4sjyFTj21DtoKy3lcxLn72ZBfLoEZP78IK91u8uP9RWdeDi9HPem1GLRxgq8f/AkKkadhvRrZYxgSFZ+AL21DajLyUV9bj4Vo5cVStJPIhEKznr4EjzjakIKRxskiYAYb+Os8NWELtfEOL69fQl+ueMR9JfXIuyexszkFI7+uAYf/j9/QSOVuDbZ0vCkPJqKqRfZPfMZ84VSouPXGuYUha2sCD/J0mjvKUzWN8HZ3mnWode8jCgVwXBrC3YtfRGHljyPg489j/xHXkDtT2tQRVLf8ONGFPyWhkkSKBOrGfecGxVKV+w9TZumwmZdCFqpxhPWalZR5PSPYNmGfViakoc3d5agYdwLj3caYcckjq5PRc6aVBTv2mt55kjog372cRqvMyTw/pFxjDS3Y5SY6urF2MgQ/H5ew35kD/EnzM8VQDyZN8vYmvf2Gk+k9Z0En3/7KLMmBvpokGjuhx9TUS+moz5jyASpiCJUSGGWx7QZiaMs4/HpGRcNHpIbjWKGXGy3w3B7JuF3OWnQyqmh8EURJS0Jx3KflSc27BR/7FqCvLYU5NB8KG3Vr5ALbQ5lNpLRShdU/qOBEPa1DeC1g+W4X5sQbqjEO2kFyCqoRVHKbqTc/SRajmbx3TWymvg5NwuuhjyzZbPBGce1yo1gvKSs5xkabjLeNOIa0hwPwtrMz5rIbNZm9zmQ9eHnyH30VXTsPWJG7azYZxmt/L0I4uz97Wcl8XvY6WoYd0I8mTeEmjLKGoVTiGWYBh5lOk091b2MteFQBAc6x/Dy1nwsS8tBQ1cPMt77FO/9653Y9v4XqNx9ABWbd+Hdf78bqx5YBm9TD7qralCedRQhtwthytdQ0AWfYwT73voIWU+/g8Idu8gX5dT9Y/5uFsSnK07mDQGnEvcFAxjw+LG2qAVPbKnG7ZtasHBLHtaU12GYDbSvog4HPv0eK1jZq/60CKv/ZSF+vW8Z6g4cQ2Cais54/G3v3rUDE0pCyIsoD5Qh9fzUqEVl2i78eMtDmOzuocKfhrO7D97pSTMp7sCH32HlwmXwkfAHSQ4U9x31BU287JnPmA/UyZQSnbtWIdJkEyd57ny03L1DQ5jq6MRIVydCJEkzpu24kJuegSMrVyHjhZdx/KlXUPDie2j8/Gc0fb0WBWvSMOEYg9OMxCR+1o0EpYsx+s4Hlmeef7P/2fMVFC7l4TFnbAY1ww68vacQL6QeQl1LH/b/8BN+XvQEvr9jCVKWvMi/n8GKux5C0f5DiLk9CJDED1c1oHX/cZzcfhhNe45hrKIBgz09cJHQyrNn1h6W0rhC73gm/kDmCTPxmqTUQ2WiDWAE453UXBiWi1ejc/xu7ZTqJbnxIMpzkYA2l5MCUugRFR7PGWJLaKdDazUcL5Wi5fHUfUV+T5P503kR7BR/7JoCyVsIPkRiHiBCsNyiIS0CEIOX7UUET8pfm5P1z0SQ3dGPJ3e3496MWjy5uRoffL4bXzz8DjZ9/iGNvilMDfVRf7BdGPKndsH2yPKxQkBYV/y02or1PWGerlNcrfZvl+OZ5WmXsXXcGjWyQmPjrlVdEPpbsthDeeEIObHvjfdwbPHzqN+/HwMtJzHe3mH6hbz6Wo89HLMMwfPf/+XmgJ2uVpjNmWReI4dyuvhi6s9ywMgwk8zShFeXkZWjkRja/TNoc3rQfqIc7/3b3Ti54wgiLrcZ5fX6XRgqrcVHf3kAR1dtgHtoBFU5x9Hf3mYWBgj7yJkmB9HTVIuKE0fh9zoxTfmYJPNWuuJkXkTXpxVcSFLVUR2hMBqnAvj0QJWZ+fxdThF6SXa//ec7sHbxM+itrEXA62ZH92PrFz/g7X++DV3HS80ScYqXulqW6VnB/NgeZm3X75EXiseDLhfWPPAMyn9JgTs8jfqsY/jqv9yCTctep+XpxGRnJ776h9sxWFlnQhFEBCJa8vMC30/PVEp07lpFPJk3S1nK68O6H+7owGhXF7wydBxOs5SfZrdHvQ6MnKzDzhUfIZtWfimNv9J1KZg41WHKUCM4NwuZv1LvaVYjIhRKFg8ZX8FQlH07hlqHAyVsz+W7DuLN//4/cGL1BniGBxEIUmiPjSHz/c/xzL/+Fb2l1RitbEDbriw0rduJxtVbUL1mCzoPnEBwmoYbyUtEZJ7PM0rjKpGZeJhwAbZLawM9C/puzS2wQg71qeMRGuUxLU9Jcq7dMxUnanmX1S71G52jHBNmfzsHPscKq7H6gfWpvvF75W2nOfJ0rUGK1tQfwe8WZuty9pwhfCT2MtwC0RmUjU3ix4IWPJRahQfS67H0lyxsP15HA34n0u9ahOK1K9FdU2HCsTTiEaChoJVvYpSVdlil/ayEebpOcS20/4uFCJ8/4kVbVhaqU1LRW1yErOfew4Fn3sFkdxdo3iNII5b/0wQkQTyjvSdhwU7XhH5jnVpGNet21rDWRlox8jzJvMiMh8f85EJRcqIZGmteZDzzJnZ++YOJTnC2dCL9+bfRnlOIiM+D8t0HseL2RZjqOoWTJ/Ix2dtL+elHR3kZtrzwFg6vWm0mxGoTUi20YBuMQsL83cCIT1eczMur56HA9ZqljMJUepowEYXfH0JdzygG+kdw9Kvv8NsDizE93ItJkrZ+kjOvc9IsWbjnrc+x+uHnTaydCP21TuYVM2wm8Lnd+H7hU6jfdQCBsAuZH32Or//Tn/DNf70V7skRuJ2j+PIfbsNoWS07gZQ5BRo7wMXE+CslOn4tY84Lyk9NsNKcA02c8rtdmBgZJlHvhss/DX/ATeXtMxv1DHe0Yt/3P+Lg198hf/cOQ45iJFIa9r3m2sdlgNKVUvRqywr7MOukz0EeZpZ1UCtTheCKUnBPDuOzW+/Hvo+/QpTGqn9sGK1lxQh7nYg6nWbVi7Rn38ZkYxv2fvA1Cj9ahaJPfkbJTymo3b4f0QDJLN8pIpI3K6j1PVGeriROj0xY/dyGyLtZupNlESCMIUrIg6/v/ihBkuKTx51QGeq4II++Nc/H+i7Ioy8PpbY0F+SlNPOB9BmXHztdLQ/dpYRRxiIFrGd3cAaVvWNYsasQj6Xl49GNZXj9vTSkLnwPmU8uh7vnFPpKKnHkg8+R9fHXKN6+C4HhCQSDupdlAN5oE2YNcbuO5ZlGTJwk6V3NDaj9LQV9P6eh5ctfUfbCJ8h55n2MdrTDpXA0tuUoSZr6izy8ie51s8NOF8MPLinU12zMHrOMdn3a5yz5LQflyvseR+2eg9QZHqx79nV8+7//CW//620k8y64u3vx7X/+G1z9fQg4JxCmvneHHSjYtAU5T76LjFffhYN8KepxU2aQH5BPJsn81fDMs/FpQxnjmQqrsiMIBbREpUXqQ95pfHH7XSjZlgmPfwLlW7fj83+4FTtfXgF/2IuRtna89t//grFTpyxleS0KN+ZJgtfyYvJ9+emmBZr6LoXW97/C53fANdiHtDfeR8MhxYJ6MNlwEh/+6S6MtbZQmHnN8JS2zr7QzqqOpJTo3PWC+Emx+pymAeecGoeHhp3ZSMrnNisnREno1S5yd+2GZ4ydPGh5RWeIm4XMX7n3tLzR5nlq5+ZTfZrtlUaUtvmWt6S/7iRe/a9/hq93AGHPJNY/9yre/X//HQe++wkRvwtteUV47t/+Bm9PP0rXb0bBV78h98vVqEjfAX/fECJBi8wbhTArqK8VMm+TKttot8Lp1E8tr7u87doVUhNXzUpas8flnbJW07LapkYmjUc/7rhgypJlqF0izXboMkx57bk88zcKmQ9rmbtwDOGA6juICb8PxztH8MHuUjy6+Tg+SduN0cpm7HzmDXx+633Y/N772P/JF/jiiWfw8b2PYLCmBbFA2Pw2nljcCLjePfMi8zL0XYODqNm4GU0/rEfXT2lo/y0TpZ//hNKNGejKzkPXsXyyVC1gwX5wA7TrywE7xa+Cd71AZP5bkfnt+ykDfajKzsYbJPJ7v13FvuuFq7cHH1B3TPaeQsjnJD/UQipuBIdHUZS6CX11tWweLrYRylGR+Vn9ICR63o2M+HQVyHzIrPRiiDwVlYFR2jOIktArplSrvNRkH0bYPYF976zA2v/zz0j9L/eYeOkAydrH/+UWTLZ2Ge/WNTHMdAZs750FCiV2OHku26qq8MZ//jcc37QJLt8UZqYnSWycGG5rwte3LsCer75lI9WGKV42eK3Yo5GHC+usathKic5dD5A1b5N5G4Y8kbj7aPB5PU6DoGKQNZJBYh8JeVleCmHwsdwtUpTo3jcarng9qx7+cIxCVW2V7S4YC6O/tgUv/+PfEJmYNksLfvm3hfjp/7oFG198Ex7XOAbKKvH0P/4bglNj6KmtRkN2Dhpz8zDjcZv4SNtY+MNzrkFIBllySH2VUDn8Lv+zx2avnzt3xvvFK6W5e57lWht2umY8dBcN9vVIFKGowm7U77VHSAz+KFDaM4wBhxt73vkM3//z3zDe2UKdMG3WpvZOjGD9M2/ilwefh29gwiwkcKHzja5dXN91LKfWtEadHNPoyC3CZF83mmvLMNHUiNJV61D41So0fboalR/8iFMVFZiIuODh9YnudbPDTonOXeuQHq/Zth8r7l6CocZmMxdOG+0FqMt9g8NIW/4edn34NQJepxlhD1Lf5/6yDukvvGk22gvPeBAhP9KGUxoNjZebiZ53IyM+XQUyH6f8jNKzBJSUkXfGi5jXjd9efA1Hfl7NTj+KyYFObP/qS/TkFSDmd5kl3b74jwfg7h+yhvavg0o070pB5ue77f5yFVb86T5kLv8AVem7ULVlF764dSHeXfAgnG1tmPHKCrU8EnNewAuAfqd0PTdwy8gT+J0CwBqyU3vxmzAbn3aMJbSSiJ+WelATB9mG1MGNl9P2IMfd80aE0tV+T9OnVUfKB9vc5Kl+vHHLAvSV1CHqdmOkog6Hv/4Zru5eMw+iPGUrvlz0BEaLynH4m58RcU6TyE+zfrXx182pwC9EKdkp0bnrEerjtMwxI6+sQqxmoiCn5ycJvd+Dia5ufPRPf0NfQSFJvNOM8FTt2Y8wDftA7zDP3YOGQzQKQwGzUlKiZ1yvuFBdcK3AIvNeNBw9juZ129B88Ch1vgi7EyPNJ9Gem4vmX9JQ/dIXOPz+l+jtaDZOmUT3utlhp+txtEZ9PDA5hY/ufxSf3f0IGvZkI9g9Bn8fDfLn38Qnf1uI0ZOtCIQ8ZtR9tL0Tmx5/BfseXo7CLduoY9yIRfw09kn0tZPsrLy8nrnOhSI+XXEyfzaIzLuimgjmR3dZJd7/b/+BmpTNmPKMYHxmAkH/JAlBNd79tztx+LtfESZBkGf+eiDzglHSJDo+H63PgVFkvv0JVi1bjg2PvoiazXvgGx1CyD9tCKlZHYOCTxMNL0aAKyU6fj1DZN6aGMiOTKUvQi8yr63wzUiGLHWeMzHHNwGZt422ROeuJGR4qr3KG2qIlNeLvT/8hvf+YwF6Civg8U3DEXQh4nKhfvshLP+HP6N85z707c3G+gVPo7O+DjMBDxU7DTL16xu83hLByIjzlGd2ut69tjbCM2H22xgC0RgVdYR/a21ytnMy+kDEhY6juVh556NsRw6Mtbdg9T/fi+/+8y2o2LsfAfb3w298i5yVKSbEUW0y0TOuV1zvYTbGoUWC1kkDrG3NdvRk5RvCFghN02Bzw+EaQVtNqZkHUfD6pyhct9GES1pOnNOw4q/j7nsTwk6Jzl3zYN25WK+unmGUpezBK/9yJ976h9vx+v93J9Lf+xz9tfUIup1orq5EYHwCw+V1KPs1A0ceWo6Nj7yAwVNtiJAjicxHZ8NsdN/zkZs3CuLTtUPmpbxZMfLKzbic2PPuZ/jmH2/DttfeQ0F6BvI2pOKzf78HKx97Ds6RIcRI5jX54Xrp1GpokXAI0yQqXiqdsNdNA8WNiGca44FJeILTJkZe8cYefkoZGSJ/gaRGz1NKdO56hiHzs4TezJkIeQ2RD2pDIhpC1sZg1mohZgnBm4AUKl1tr52Ik3YBNLtCBllPQT88AyP4+oFl+O6vD2HfR9/hxLp0HP7iZ7z5T7di3ZsrMMl+nPEOjdr7nkRrfS0iAa9ZllGfNyOZvxDY6YZRZKbew2zPVqiRCd9if5dX10O055Th03seQcznhaO3Bz/f/Qg+/fNd6CwrQYgG497ln+Lot2soY1keN5hn/rrfIIf591NWdx06jv6th9GSk8fjfrhJ5LVjfCDihi/sRMWOnSh641PkfvwNxnq6536fJPOnYadE5655sO48lFczAXIijx8j7d2YbDqFgfo2uDp6UZGyDZlvf4yN9y7DgSWvI/3+Z5H6yEvY/sRr2PXsO5gc7DNEPkIOAK2KOCv7kmQ+wQVXBRTiIl/TMYuMxVxuBHoHkfnyW1i18HF8v+hxNB4+hggtNu3+anaClQcv0b2uUYTZ8ETSXTHlm++o5TX5Lm54SeB9p1e5ENlneZiYzwskNdeKx/bSYzY2W0p+VtFb4VpWjLy1Q6cmFlpIfI8bC9dCPau9mbAwClSR+ZAmJ7H9YtKL8fJm/LbkZaxZ8Dw2Pvsu2vPLEfUEMDowiP76ZgyW1Zp5D2Yt4aAX0SSZnzfsdN17bc+C+OVqtVKNd2QSb96zGLUHjpmwrLHuTgw01cEVmMSpsgq88z/uRA/bUyQYNvL2zPtdz5hb6es6hSYlD1bUYGTvcXQczIZ7cszMpwnFWMdRLwmaBc+pLlR+vRq1q1PNggZm92dCBp2I4Bypv4lhp0TnrnVIV/jZlm0YXe73Ybi7B78sXIaN/7YQqf/xELbd+hj23rUMu+98Crte/RADbe0YOdVNI0ALAlgTac3S3TexrohP11CYjUiuCJq801rqTt7WabOM44xriuTADX/IxeMudmgPibzXLF2V6F7XKqyVP7Tah4inReZDfI+AiLxIqISVrjUrYVhezotpqEqJjidxY0HJeDGvIkScZIB6YyEr1CYYgFsjI2zLoSCPedme3UFE/WH41Ae0NC2viwR4rd820NgfTKhUkszPF3a62vV/OTFH5kMhBEjos1M24+n/619QsnErgoNjCDsdOFVSip/+5T5sfvF9+LRzcFjbyd9YBo6p4+u4X0ifDR4pQPfuLAycKMBYWzNlA/V7lGQeCptQiCnhd2Kwshrutg7KBsoC/lbvbvRjkswb2Om69UazT9sON72DNtWU3nB0nMKad1agZPseVO87DGdzB+oOHoWrf9A4iwL8nV+TYvm3jYT3v0kQn66tMBtTwZbXWsPt4bCHpMDNSvSYWDtti+5nZ9cGLCESYK3DnOhe1yq0hJ0VxynPu7WEndlMhp8+vosd52kaKBu4PBEX411WSnQ8iRsL10Q9s/+KzKsN61MeE01Q98rjLqI/S/aNt5SfQS1BKEXE74asxQl3a2TljPsnkRB2upHLyybzGprXPgYzTg+yN2zCdw88hS9vX4Kf7nkC79xCIv/BlwiMTsITICHktZasvXFwvdexPPP+0TEM19dh5FA2hvdnYaitCW6Fl8Y0z8kanZ6IWCGok/398DuciCpkSvJhVicmyfzpfp/o3PUAowsI+/uMdAHr2CzXGyT/85P70Rg3MNeF2P+1SIqlV8Sl1B9udj0Rn66xMBuRWUux2zBxzyL4quRZZW9CKxQzrUqOaxDXOk43Pikn+31I7A1pTwTrmkT3mg+UdJ9E55K4cXC91bM8MTPapVMCPMH5JOYPO93o/Vzv56XMjwX4PaTFEoKYHh3HyewCnCwowkhXF6+jrDQbEmreEa+7jnTDfHDd17GcVRES94AD3TWlaD9yCBONjfAG3fCGPYj6vJh2jJO0+TDR04uxykYM15wEfLMhp7xHksxbsFOic9cFZvmeIfSCjG/TPuTkmbEQnWF/jszCcv6YPhD3W/P7M+99EyE+XTtkPolLDqVEx5O4sXC91XOSzF862Om6nxw5D5g9O0jU5ZWTl97Jz2A4jGke08jmDImAmTtgnEBsZwrxivv99Y6LcexcC1Ab1Ty3YNQDb9SJgepyjB4+gdG2Vvh9ToxV1WG0uBLOgX44+gcwWlEPR1cPG3d41jtL3ATtfD6wU6Jz1zpEyG3YxNwYejLEhVh4Dr7YDPyY4Tmrb8eTeBs3mtF+PohPSTJ/A0Mp0fEkbixcj/WcJPKXBna6USfAngnttCsSoPf93VC7SN5sm5pT9Dp+Q+E6r2ND5jVPzEdC78NgZQ3GjhZgsOUkAiEXRqprMV5UBe/wMLRzcsA9TYPMmhd3vU/+vdSwU6Jz1zrUX7WMsQmDi+urJqx4rh8T/Awbp4/l+LEMdet31q7b1qfp/zcp4lOSzN+oYKNXSnguiRsKyXq+eWGnm9k7dbPAzCtLcPy6AcmXRyvXyCATfB5M9Q+YeGkPNL/GY8JsNAneF9OCGBZh02+Txv/vYadE5651iHzPzQ1Um55t13OkPO6Y8cbHGbG6xoZ9j7nf3YSIT0kyf4NCDVwp0bkkbiwk6/nmhZ0SnUvixsJ1T1pIzLXa1Uw4jEhohkR9ht+jJGUR+KIk7yT0mgw7w+s08dEdR+YFm9AbL+1NTu7tlOhcEjcP4lOSzN+gkLBTSnQuiRsLyXq+eWEnO8QkiRsXJmb+OvbOWxNXwyTqM0AwwmMxEna23TAwQ3KvuGghGub5kDyyiQ2YJJlPkvkkLMSnJJm/YZEk8zcLkvV888JON8ME2Jsd1/0EWCJGku7DDAl9BNFQDN5IDGGS+VA4yvPCDA3TGbbnmbPus5Ik80kyn4SF+JQk8zcwlBIdT+LGQjIlU6J2kcSNhes9zEZkPjJjrVaifSYi4RkEIlGei8JPch8ymIGf5wXzuySZT4hkSqYz0/8y+5lMyZRMyZRMyZRMyZRMyZRM11lKkvlkSqZkSqZkSqZkSqZkSqbrNCXJfDIlUzIlUzIlUzIlUzIl03WakmQ+mZIpmZIpmZIpmZIpmZLpOk1JMp9MyZRMyZRMyZRMyZRMyXSdpiSZT6ZkSqZkSqZkSqZkSqZkuk5TkswnUzIlUzIlUzIlUzIlUzJdpylJ5pMpmZIpmZIpmZIpmZIpma7TlCTzyZRMyZRMyZRMyZRMyZRM12lKkvlkSqZkSqZkSqZkSqZkSqbrNCXJfDIlUzIlUzIlUzIlUzIl03WZgP8f7Ms94h0L680AAAAASUVORK5CYII=;" vertex="1" parent="wPIXFzT_h8KsHpIcY9-G-3">
          <mxGeometry x="120" width="755" height="141" as="geometry" />
        </mxCell>
        <mxCell id="wPIXFzT_h8KsHpIcY9-G-2" value="Tchaikovsky Piano&lt;br&gt;Concerto No.1" style="text;whiteSpace=wrap;html=1;" vertex="1" parent="wPIXFzT_h8KsHpIcY9-G-3">
          <mxGeometry y="50.5" width="110" height="40" as="geometry" />
        </mxCell>
      </root>
    </mxGraphModel>
  </diagram>
</mxfile>
